<svg width="61" height="61" viewBox="0 0 61 61" fill="none" xmlns="http://www.w3.org/2000/svg">
<rect x="1.73145" y="2.38892" width="57" height="57" rx="28.5" fill="white"/>
<path d="M10.8588 29.952C10.2583 30.4324 10.2583 31.3457 10.8588 31.8261L18.0093 37.5465C18.795 38.1751 19.959 37.6157 19.959 36.6095V32.9433H37.4476C37.9999 32.9433 38.4476 32.4956 38.4476 31.9433V29.8347C38.4476 29.2825 37.9999 28.8347 37.4476 28.8347H19.959V25.1686C19.959 24.1624 18.795 23.603 18.0093 24.2316L10.8588 29.952Z" fill="#174780"/>
<path d="M18.9804 42.6751C18.2684 43.387 18.2633 44.5494 19.0419 45.1878C21.384 47.1083 24.1701 48.4303 27.159 49.0248C30.7459 49.7383 34.4638 49.3721 37.8426 47.9726C41.2214 46.573 44.1093 44.203 46.1411 41.1621C48.1729 38.1213 49.2574 34.5463 49.2574 30.8891C49.2574 27.2319 48.1729 23.6569 46.1411 20.616C44.1093 17.5752 41.2214 15.2052 37.8426 13.8056C34.4638 12.4061 30.7459 12.0399 27.159 12.7534C24.1701 13.3479 21.384 14.6699 19.0419 16.5904C18.2633 17.2288 18.2684 18.3911 18.9804 19.1031C19.6924 19.8151 20.8407 19.8047 21.6345 19.1853C23.4551 17.7648 25.5891 16.7833 27.8703 16.3295C30.7499 15.7567 33.7347 16.0507 36.4473 17.1743C39.1598 18.2978 41.4783 20.2005 43.1094 22.6417C44.7406 25.083 45.6112 27.9531 45.6112 30.8891C45.6112 33.8251 44.7406 36.6952 43.1094 39.1364C41.4783 41.5776 39.1598 43.4803 36.4473 44.6039C33.7347 45.7275 30.7499 46.0215 27.8703 45.4487C25.5891 44.9949 23.4551 44.0133 21.6345 42.5928C20.8407 41.9734 19.6924 41.9631 18.9804 42.6751Z" fill="#174780"/>
<rect x="1.73145" y="2.38892" width="57" height="57" rx="28.5" stroke="#174780" stroke-width="3"/>
</svg>
