<svg width="61" height="61" viewBox="0 0 61 61" fill="none" xmlns="http://www.w3.org/2000/svg">
<rect x="2.29199" y="2.38892" width="57" height="57" rx="28.5" fill="white"/>
<path d="M22.5935 24.3138V23.1183C22.5935 22.1278 23.3964 21.325 24.3868 21.325H40.3555V17.7384C40.3555 16.1419 42.2907 15.3443 43.4168 16.4704L49.3944 22.4479C50.0947 23.1483 50.0947 24.2837 49.3944 24.984L43.4168 30.9616C42.2949 32.0833 40.3555 31.2968 40.3555 29.6936V26.107H24.3868C23.3964 26.107 22.5935 25.3042 22.5935 24.3138ZM37.1959 35.6712H21.2272V32.0846C21.2272 30.4921 19.2948 29.6876 18.1659 30.8166L12.1883 36.7941C11.488 37.4945 11.488 38.6299 12.1883 39.3302L18.1659 45.3078C19.2888 46.4306 21.2272 45.6416 21.2272 44.0398V40.4532H37.1959C38.1863 40.4532 38.9892 39.6504 38.9892 38.66V37.4645C38.9892 36.474 38.1863 35.6712 37.1959 35.6712Z" fill="#174780"/>
<rect x="2.29199" y="2.38892" width="57" height="57" rx="28.5" stroke="#174780" stroke-width="3"/>
</svg>
