<?xml version="1.0" encoding="utf-8"?>
<!-- Generator: Adobe Illustrator 25.4.1, SVG Export Plug-In . SVG Version: 6.00 Build 0)  -->
<svg version="1.1" id="圖層_1" xmlns="http://www.w3.org/2000/svg" xmlns:xlink="http://www.w3.org/1999/xlink" x="0px" y="0px"
	 viewBox="0 0 63 63" style="enable-background:new 0 0 63 63;" xml:space="preserve">
<style type="text/css">
	.st0{fill:#FFFFFF;}
	.st1{fill:#174780;stroke:#174780;stroke-width:2.7871;stroke-linejoin:round;}
	.st2{fill:none;stroke:#174780;stroke-width:3;}
</style>
<path class="st0" d="M31.5,3.4L31.5,3.4c15.5,0,28.1,12.6,28.1,28.1l0,0c0,15.5-12.6,28.1-28.1,28.1l0,0C15.9,59.6,3.3,47,3.3,31.5
	l0,0C3.3,16,15.9,3.4,31.5,3.4z"/>
<path class="st1" d="M25.4,31.9v-9c0-0.8,0.8-1.3,1.5-0.9l7.4,4.5l7.5,4.5c0.6,0.4,0.6,1.3,0,1.7l-7.5,4.5l-7.4,4.5
	c-0.7,0.4-1.5-0.1-1.5-0.9V31.9z"/>
<path class="st2" d="M31.5,3.2L31.5,3.2c15.6,0,28.3,12.7,28.3,28.3l0,0c0,15.6-12.7,28.3-28.3,28.3l0,0
	c-15.6,0-28.3-12.7-28.3-28.3l0,0C3.2,15.9,15.9,3.2,31.5,3.2z"/>
</svg>
