<svg width="40" height="34" viewBox="0 0 40 34" fill="none" xmlns="http://www.w3.org/2000/svg">
<path fill-rule="evenodd" clip-rule="evenodd" d="M14.4792 3.25001C14.4792 2.23886 13.8701 1.32727 12.9359 0.940313C12.0017 0.553361 10.9264 0.76725 10.2114 1.48225L1.04473 10.6489C0.557531 11.1361 0.313454 11.7744 0.312503 12.4129L0.3125 12.4167L0.312503 12.4204C0.312998 12.758 0.380414 13.08 0.502197 13.3736C0.624196 13.6685 0.805042 13.9448 1.04473 14.1844L10.2114 23.3511C10.9264 24.0661 12.0017 24.28 12.9359 23.893C13.8701 23.5061 14.4792 22.5945 14.4792 21.5833V14.9167H28.0208C29.7889 14.9167 31.4846 15.6191 32.7349 16.8693C33.9851 18.1195 34.6875 19.8152 34.6875 21.5833C34.6875 23.3515 33.9851 25.0472 32.7349 26.2974C31.4846 27.5476 29.7889 28.25 28.0208 28.25H25.7292C24.3485 28.25 23.2292 29.3693 23.2292 30.75C23.2292 32.1307 24.3485 33.25 25.7292 33.25H28.0208C31.115 33.25 34.0825 32.0209 36.2704 29.8329C38.4583 27.645 39.6875 24.6775 39.6875 21.5833C39.6875 18.4892 38.4583 15.5217 36.2704 13.3338C34.0825 11.1458 31.115 9.91668 28.0208 9.91668H14.4792V3.25001Z" fill="white"/>
</svg>
