<svg width="20" height="18" viewBox="0 0 20 18" fill="none" xmlns="http://www.w3.org/2000/svg">
<path fill-rule="evenodd" clip-rule="evenodd" d="M14.8571 0.747027C15.1475 0.395103 15.6734 0.340898 16.0318 0.625956L18.8637 2.87804C19.0595 3.03374 19.1732 3.26789 19.1732 3.51526C19.1732 3.76262 19.0595 3.99677 18.8637 4.15247L16.0318 6.40455C15.6734 6.68961 15.1475 6.63541 14.8571 6.28348C14.5668 5.93156 14.622 5.41518 14.9804 5.13013L15.9799 4.33528H7.95456C6.37331 4.33528 4.88345 4.83628 3.80796 5.69158C2.73724 6.5431 2.18215 7.6564 2.18215 8.77012C2.18215 9.22301 1.80821 9.59015 1.34693 9.59015C0.885657 9.59015 0.511719 9.22301 0.511719 8.77012C0.511719 7.09649 1.34895 5.53659 2.75656 4.41716C4.15942 3.3015 6.0309 2.69523 7.95456 2.69523H15.9799L14.9804 1.90038C14.622 1.61533 14.5668 1.09895 14.8571 0.747027ZM18.338 7.95009C18.7992 7.95009 19.1732 8.31723 19.1732 8.77012C19.1732 10.4438 18.336 12.0036 16.9283 13.1231C15.5255 14.2387 13.654 14.845 11.7303 14.845H3.70501L4.70447 15.6399C5.06291 15.9249 5.11812 16.4413 4.82779 16.7932C4.53745 17.1451 4.01151 17.1993 3.65307 16.9143L0.821231 14.6622C0.625451 14.5065 0.511719 14.2724 0.511719 14.025C0.511719 13.7776 0.625451 13.5435 0.821231 13.3878L3.65307 11.1357C4.01151 10.8506 4.53745 10.9048 4.82779 11.2568C5.11812 11.6087 5.06291 12.1251 4.70447 12.4101L3.70501 13.205H11.7303C13.3116 13.205 14.8015 12.704 15.8769 11.8487C16.9477 10.9971 17.5028 9.88384 17.5028 8.77012C17.5028 8.31723 17.8767 7.95009 18.338 7.95009Z" fill="#A2CDFF"/>
</svg>
