<svg width="30" height="30" viewBox="0 0 30 30" fill="none" xmlns="http://www.w3.org/2000/svg">
<path d="M0 15C0 6.71573 6.71573 0 15 0C23.2843 0 30 6.71573 30 15C30 23.2843 23.2843 30 15 30C6.71573 30 0 23.2843 0 15Z" fill="white"/>
<path d="M11.6127 8.3875C11.1252 8.875 11.1252 9.6625 11.6127 10.15L16.4627 15L11.6127 19.85C11.1252 20.3375 11.1252 21.125 11.6127 21.6125C12.1002 22.1 12.8877 22.1 13.3752 21.6125L19.1127 15.875C19.6002 15.3875 19.6002 14.6 19.1127 14.1125L13.3752 8.375C12.9002 7.9 12.1002 7.9 11.6127 8.3875Z" fill="#8A100A"/>
</svg>
