<svg width="20" height="20" viewBox="0 0 20 20" fill="none" xmlns="http://www.w3.org/2000/svg">
<path d="M3.33366 5.00002H1.66699V16.6667C1.66699 17.5834 2.41699 18.3334 3.33366 18.3334H15.0003V16.6667H3.33366V5.00002ZM16.667 1.66669H6.66699C5.75033 1.66669 5.00033 2.41669 5.00033 3.33335V13.3334C5.00033 14.25 5.75033 15 6.66699 15H16.667C17.5837 15 18.3337 14.25 18.3337 13.3334V3.33335C18.3337 2.41669 17.5837 1.66669 16.667 1.66669ZM16.667 13.3334H6.66699V3.33335H16.667V13.3334Z" fill="white"/>
<path d="M10.3566 5.88702C9.49359 5.88702 8.77441 6.6062 8.77441 7.46922C8.77441 8.54798 9.78126 9.411 11.2196 10.7774L11.6511 11.137L12.0826 10.7774C13.521 9.411 14.5278 8.54798 14.5278 7.46922C14.5278 6.53428 13.8087 5.88702 12.9456 5.88702C12.4422 5.88702 11.9388 6.10278 11.6511 6.46237C11.3635 6.10278 10.86 5.88702 10.3566 5.88702Z" fill="white"/>
</svg>
