<svg width="71" height="70" viewBox="0 0 71 70" fill="none" xmlns="http://www.w3.org/2000/svg">
<rect x="0.668945" width="70" height="70" rx="35" fill="#8D9DAE"/>
<g clip-path="url(#clip0_3311_12874)">
<path d="M42.4707 48.5V51.3125C42.4707 52.2445 41.7094 53 40.7702 53H21.4983C20.5592 53 19.7979 52.2445 19.7979 51.3125V25.4375C19.7979 24.5055 20.5592 23.75 21.4983 23.75H26.5997V44.5625C26.5997 46.7337 28.3796 48.5 30.5674 48.5H42.4707ZM42.4707 24.3125V17H30.5674C29.6283 17 28.867 17.7555 28.867 18.6875V44.5625C28.867 45.4945 29.6283 46.25 30.5674 46.25H49.8393C50.7785 46.25 51.5398 45.4945 51.5398 44.5625V26H44.1711C43.2359 26 42.4707 25.2406 42.4707 24.3125ZM51.0418 22.1308L46.3696 17.4942C46.0507 17.1778 45.6182 17 45.1672 17H44.7379V23.75H51.5398V23.324C51.5398 22.8764 51.3606 22.4472 51.0418 22.1308Z" fill="white"/>
</g>
<defs>
<clipPath id="clip0_3311_12874">
<rect width="31.7419" height="36" fill="white" transform="translate(19.7979 17)"/>
</clipPath>
</defs>
</svg>
