<svg width="27" height="27" viewBox="0 0 27 27" fill="none" xmlns="http://www.w3.org/2000/svg">
<g clip-path="url(#clip0_3590_27130)">
<g clip-path="url(#clip1_3590_27130)">
<g clip-path="url(#clip2_3590_27130)">
<path fill-rule="evenodd" clip-rule="evenodd" d="M18.9698 3.29194C19.3116 2.87002 19.9307 2.80503 20.3526 3.14679L23.6859 5.84679C23.9164 6.03345 24.0502 6.31417 24.0502 6.61074C24.0502 6.9073 23.9164 7.18802 23.6859 7.37468L20.3526 10.0747C19.9307 10.4164 19.3116 10.3515 18.9698 9.92953C18.6281 9.50762 18.6931 8.88854 19.115 8.54679L20.2914 7.59386H10.8449C8.98362 7.59386 7.22991 8.1945 5.96396 9.21991C4.70362 10.2408 4.05023 11.5755 4.05023 12.9107C4.05023 13.4537 3.61007 13.8939 3.06711 13.8939C2.52414 13.8939 2.08398 13.4537 2.08398 12.9107C2.08398 10.9042 3.06948 9.03409 4.72637 7.69201C6.37766 6.35447 8.58056 5.62761 10.8449 5.62761H20.2914L19.115 4.67469C18.6931 4.33293 18.6281 3.71386 18.9698 3.29194ZM23.0671 11.9276C23.6101 11.9276 24.0502 12.3678 24.0502 12.9107C24.0502 14.9172 23.0647 16.7874 21.4078 18.1295C19.7566 19.467 17.5536 20.1939 15.2893 20.1939H5.84278L7.01924 21.1468C7.44116 21.4885 7.50614 22.1076 7.16439 22.5295C6.82264 22.9515 6.20356 23.0164 5.78164 22.6747L2.44831 19.9747C2.21786 19.788 2.08398 19.5073 2.08398 19.2107C2.08398 18.9142 2.21786 18.6335 2.44831 18.4468L5.78164 15.7468C6.20356 15.405 6.82264 15.47 7.16439 15.8919C7.50614 16.3139 7.44116 16.9329 7.01924 17.2747L5.84278 18.2276H15.2893C17.1506 18.2276 18.9043 17.627 20.1702 16.6016C21.4306 15.5807 22.084 14.246 22.084 12.9107C22.084 12.3678 22.5241 11.9276 23.0671 11.9276Z" fill="white"/>
<path d="M13.1267 15.6547V11.4081C12.1873 12.0147 11.5548 12.3181 11.2294 12.3181C11.074 12.3181 10.9353 12.2667 10.8133 12.1641C10.6949 12.0583 10.6357 11.937 10.6357 11.8001C10.6357 11.6414 10.6949 11.5247 10.8133 11.4501C10.9316 11.3754 11.1406 11.279 11.4402 11.1607C11.8877 10.9834 12.2446 10.7967 12.5109 10.6007C12.7809 10.4047 13.0195 10.1854 13.2266 9.94274C13.4337 9.70007 13.5687 9.55074 13.6316 9.49474C13.6945 9.43874 13.8128 9.41074 13.9866 9.41074C14.1827 9.41074 14.3399 9.47451 14.4582 9.60207C14.5766 9.72962 14.6357 9.9054 14.6357 10.1294V15.4727C14.6357 16.0981 14.3824 16.4107 13.8757 16.4107C13.6501 16.4107 13.4688 16.347 13.332 16.2194C13.1952 16.0918 13.1267 15.9036 13.1267 15.6547Z" fill="white"/>
</g>
</g>
</g>
<defs>
<clipPath id="clip0_3590_27130">
<rect width="26" height="26" fill="white" transform="translate(0.0839844 0.927582)"/>
</clipPath>
<clipPath id="clip1_3590_27130">
<rect width="26" height="26" fill="white" transform="translate(0.0839844 0.927582)"/>
</clipPath>
<clipPath id="clip2_3590_27130">
<rect width="25.896" height="21.58" fill="white" transform="translate(0.135742 2.38547)"/>
</clipPath>
</defs>
</svg>
