<?xml version="1.0" encoding="utf-8"?>
<!-- Generator: Adobe Illustrator 23.0.0, SVG Export Plug-In . SVG Version: 6.00 Build 0)  -->
<svg version="1.1" id="圖層_1" xmlns="http://www.w3.org/2000/svg" xmlns:xlink="http://www.w3.org/1999/xlink" x="0px" y="0px"
	 viewBox="0 0 35 35" style="enable-background:new 0 0 35 35;" xml:space="preserve">
<style type="text/css">
	.st0{fill:#C4C4C4;}
</style>
<path class="st0" d="M17.3,20.3c1.2,0,2.3-0.5,3.1-1.3c0.8-0.8,1.3-2,1.3-3.1v-4.4c0-1.2-0.5-2.3-1.3-3.1c-0.8-0.8-2-1.3-3.1-1.3
	S15,7.4,14.2,8.3c-0.8,0.8-1.3,2-1.3,3.1v4.4c0,1.2,0.5,2.3,1.3,3.1C15,19.8,16.2,20.3,17.3,20.3z"/>
<path class="st0" d="M25.1,15.8c0-0.3-0.1-0.6-0.3-0.8c-0.2-0.2-0.5-0.3-0.8-0.3c-0.3,0-0.6,0.1-0.8,0.3c-0.2,0.2-0.3,0.5-0.3,0.8
	c0,1.5-0.6,2.9-1.6,3.9c-1,1-2.5,1.6-3.9,1.6c-1.5,0-2.9-0.6-3.9-1.6c-1-1-1.6-2.5-1.6-3.9c0-0.3-0.1-0.6-0.3-0.8
	c-0.2-0.2-0.5-0.3-0.8-0.3c-0.3,0-0.6,0.1-0.8,0.3c-0.2,0.2-0.3,0.5-0.3,0.8c0,1.9,0.7,3.7,1.9,5.1c1.2,1.4,2.9,2.3,4.8,2.6v2.3
	h-2.3c-0.3,0-0.5,0.1-0.7,0.3c-0.2,0.2-0.3,0.4-0.3,0.7v0.2c0,0.3,0.1,0.5,0.3,0.7c0.2,0.2,0.4,0.3,0.7,0.3h6.9
	c0.3,0,0.5-0.1,0.7-0.3c0.2-0.2,0.3-0.4,0.3-0.7v-0.2c0-0.3-0.1-0.5-0.3-0.7c-0.2-0.2-0.4-0.3-0.7-0.3h-2.3v-2.3
	c1.8-0.3,3.5-1.2,4.8-2.6C24.4,19.5,25.1,17.7,25.1,15.8z"/>
<path class="st0" d="M17.5,33.3c-8.7,0-15.8-7.1-15.8-15.8H0C0,27.2,7.8,35,17.5,35V33.3z M33.3,17.5c0,8.7-7.1,15.8-15.8,15.8V35
	C27.2,35,35,27.2,35,17.5H33.3z M17.5,1.7c8.7,0,15.8,7.1,15.8,15.8H35C35,7.8,27.2,0,17.5,0V1.7z M17.5,0C7.8,0,0,7.8,0,17.5h1.7
	c0-8.7,7.1-15.8,15.8-15.8V0z"/>
</svg>
