<?xml version="1.0" encoding="utf-8"?>
<!-- Generator: Adobe Illustrator 23.0.0, SVG Export Plug-In . SVG Version: 6.00 Build 0)  -->
<svg version="1.1" id="圖層_1" xmlns="http://www.w3.org/2000/svg" xmlns:xlink="http://www.w3.org/1999/xlink" x="0px" y="0px"
	 viewBox="0 0 35 35" style="enable-background:new 0 0 35 35;" xml:space="preserve">
<style type="text/css">
	.st0{fill:none;stroke:#C4C4C4;stroke-width:3.0038;}
	.st1{fill:#C4C4C4;}
</style>
<path class="st0" d="M17.4,10.4l7.1,7.1l-7.1,7.1 M8.7,17.5h15.8H8.7z"/>
<path class="st1" d="M17.5,33.2c-8.7,0-15.7-7-15.7-15.7H0C0,27.2,7.8,35,17.5,35V33.2z M33.2,17.5c0,8.7-7,15.7-15.7,15.7V35
	C27.2,35,35,27.2,35,17.5H33.2z M17.5,1.8c8.7,0,15.7,7,15.7,15.7H35C35,7.8,27.2,0,17.5,0V1.8z M17.5,0C7.8,0,0,7.8,0,17.5h1.8
	c0-8.7,7-15.7,15.7-15.7V0z"/>
</svg>
