<?xml version="1.0" encoding="utf-8"?>
<!-- Generator: Adobe Illustrator 23.0.0, SVG Export Plug-In . SVG Version: 6.00 Build 0)  -->
<svg version="1.1" id="圖層_1" xmlns="http://www.w3.org/2000/svg" xmlns:xlink="http://www.w3.org/1999/xlink" x="0px" y="0px"
	 viewBox="0 0 35 35" style="enable-background:new 0 0 35 35;" xml:space="preserve">
<style type="text/css">
	.st0{fill:#FFFFFF;}
	.st1{fill:#174780;stroke:#174780;stroke-width:1.4827;stroke-linejoin:round;}
	.st2{fill:none;stroke:#174780;stroke-width:1.8735;stroke-linecap:round;stroke-linejoin:round;}
	.st3{fill:#5CA7FF;}
</style>
<path class="st0" d="M0.9,17.5c0-9.2,7.4-16.6,16.6-16.6c9.2,0,16.6,7.4,16.6,16.6c0,9.2-7.4,16.6-16.6,16.6
	C8.3,34.1,0.9,26.7,0.9,17.5z"/>
<path class="st1" d="M15.8,17.5v-3.1l2.6,1.5l2.6,1.5L18.4,19l-2.6,1.5V17.5z"/>
<path class="st2" d="M11.3,23.7c0.8,0.8,1.8,1.5,2.8,1.9c1.1,0.4,2.2,0.7,3.3,0.7c4.8,0,8.7-3.9,8.7-8.7s-3.9-8.7-8.7-8.7
	c-2.4,0-4.6,1-6.2,2.6c-0.8,0.8-2.6,2.8-2.6,2.8"/>
<path class="st2" d="M8.8,10.2v3.9h3.9"/>
<path class="st3" d="M17.5,33.2c-8.7,0-15.7-7-15.7-15.7H0C0,27.2,7.8,35,17.5,35V33.2z M33.2,17.5c0,8.7-7,15.7-15.7,15.7V35
	C27.2,35,35,27.2,35,17.5H33.2z M17.5,1.8c8.7,0,15.7,7,15.7,15.7H35C35,7.8,27.2,0,17.5,0V1.8z M17.5,0C7.8,0,0,7.8,0,17.5h1.8
	c0-8.7,7-15.7,15.7-15.7V0z"/>
</svg>
