<svg width="21" height="21" viewBox="0 0 21 21" fill="none" xmlns="http://www.w3.org/2000/svg">
<path d="M13.5439 9.84033C14.3724 9.84033 15.0439 9.16876 15.0439 8.34033C15.0439 7.5119 14.3724 6.84033 13.5439 6.84033C12.7155 6.84033 12.0439 7.5119 12.0439 8.34033C12.0439 9.16876 12.7155 9.84033 13.5439 9.84033Z" fill="#174780"/>
<path d="M6.54395 9.84033C7.37237 9.84033 8.04395 9.16876 8.04395 8.34033C8.04395 7.5119 7.37237 6.84033 6.54395 6.84033C5.71552 6.84033 5.04395 7.5119 5.04395 8.34033C5.04395 9.16876 5.71552 9.84033 6.54395 9.84033Z" fill="#174780"/>
<path d="M10.0439 16.8403C12.3239 16.8403 14.2639 15.1803 15.0439 12.8403H5.04395C5.82395 15.1803 7.76395 16.8403 10.0439 16.8403Z" fill="#174780"/>
<path d="M10.0339 0.840332C4.51395 0.840332 0.0439453 5.32033 0.0439453 10.8403C0.0439453 16.3603 4.51395 20.8403 10.0339 20.8403C15.5639 20.8403 20.0439 16.3603 20.0439 10.8403C20.0439 5.32033 15.5639 0.840332 10.0339 0.840332ZM10.0439 18.8403C5.62395 18.8403 2.04395 15.2603 2.04395 10.8403C2.04395 6.42033 5.62395 2.84033 10.0439 2.84033C14.4639 2.84033 18.0439 6.42033 18.0439 10.8403C18.0439 15.2603 14.4639 18.8403 10.0439 18.8403Z" fill="#174780"/>
</svg>
