<svg width="25" height="24" viewBox="0 0 25 24" fill="none" xmlns="http://www.w3.org/2000/svg">
<path d="M7.30194 11.1939L6.53324 13.5738H8.07064L7.30194 11.1939Z" fill="white"/>
<path d="M22.1378 0.829834H9.83865V4.66838H12.9134V6.2038H2.92036C1.61357 6.2038 0.614258 7.20182 0.614258 8.50692V16.9517C0.614258 18.2568 1.61357 19.2548 2.92036 19.2548H3.68906V23.1702L8.53186 19.2548H13.6822V13.8809H22.1378C23.4446 13.8809 24.4439 12.8829 24.4439 11.5778V3.13296C24.4439 1.82786 23.4446 0.829834 22.1378 0.829834ZM8.91621 16.1072L8.53186 14.8789H6.14889L5.68767 16.1072H3.8428L6.3795 9.27463H8.22438L10.7611 16.1072H8.91621ZM20.6004 10.0423V11.5778C19.6011 11.5778 18.525 11.2707 17.6025 10.81C16.6801 11.2707 15.6039 11.501 14.5277 11.5778L14.4508 10.0423C14.9889 10.0423 15.527 9.96557 16.0651 9.81203C15.3733 9.12109 14.9121 8.27661 14.6815 7.35536H16.2957C16.5263 8.0463 16.9876 8.58369 17.5256 9.04432C18.3712 8.35338 18.9093 7.35536 18.9862 6.2038H14.374V4.66838H16.6801V3.13296H18.2175V4.66838H20.7542L20.8311 5.43609C20.9079 7.04828 20.293 8.66046 19.1399 9.81203C19.678 9.96557 20.1392 10.0423 20.6004 10.0423Z" fill="white"/>
</svg>
