<svg width="71" height="71" viewBox="0 0 71 71" fill="none" xmlns="http://www.w3.org/2000/svg">
<rect x="0.500977" y="0.982178" width="70" height="70" rx="35" fill="white"/>
<path d="M25.1374 50.236V35.554L20.584 31.3884L16.501 29.0768V47.645C16.501 49.0786 17.6625 50.236 19.092 50.236H25.1374Z" fill="#4285F4"/>
<path d="M45.8646 50.236H51.91C53.3438 50.236 54.501 49.0743 54.501 47.645V29.0769L49.8763 31.7246L45.8646 35.554V50.236Z" fill="#34A853"/>
<path d="M25.1374 35.554L24.5178 29.8173L25.1374 24.3268L35.501 32.0996L45.8646 24.3268L46.5576 29.5209L45.8646 35.554L35.501 43.3268L25.1374 35.554Z" fill="#EA4335"/>
<path d="M45.8646 24.3268L45.8646 35.554L54.501 29.0769V25.6222C54.501 22.4182 50.8435 20.5917 48.2829 22.5132L45.8646 24.3268Z" fill="#FBBC04"/>
<path d="M16.501 29.0768L25.1374 35.554V24.3268L22.719 22.5132C20.154 20.5915 16.501 22.4182 16.501 25.6221V29.0768Z" fill="#C5221F"/>
</svg>
