<?xml version="1.0" encoding="utf-8"?>
<!-- Generator: Adobe Illustrator 23.0.0, SVG Export Plug-In . SVG Version: 6.00 Build 0)  -->
<svg version="1.1" id="圖層_1" xmlns="http://www.w3.org/2000/svg" xmlns:xlink="http://www.w3.org/1999/xlink" x="0px" y="0px"
	 viewBox="0 0 20 40" style="enable-background:new 0 0 20 40;" xml:space="preserve">
<style type="text/css">
	.st0{fill:none;stroke:#FFFFFF;stroke-width:1.5;stroke-linecap:round;stroke-linejoin:round;stroke-opacity:0.5;}
	.st1{fill:#F74768;}
</style>
<path class="st0" d="M5.8,1.2c-2.3,0-4.2,1.9-4.2,4.2c0,1.9,0.7,6.3,8,10.7c0.1,0.1,0.3,0.1,0.4,0.1c0.2,0,0.3,0,0.4-0.1
	c7.2-4.5,8-8.9,8-10.7c0-2.3-1.9-4.2-4.2-4.2c-2.3,0-4.2,2.5-4.2,2.5S8.1,1.2,5.8,1.2z"/>
<path class="st1" d="M5.2,21c-2.6,0-4.8,2.1-4.8,4.7c0,2.1,0.8,7.1,9,12.1C9.7,38,9.8,38,10,38c0.2,0,0.3,0,0.5-0.1
	c8.2-5,9-10,9-12.1c0-2.6-2.1-4.7-4.8-4.7c-2.6,0-4.8,2.9-4.8,2.9S7.9,21,5.2,21z"/>
</svg>
