<svg width="71" height="71" viewBox="0 0 71 71" fill="none" xmlns="http://www.w3.org/2000/svg">
<rect x="0.667969" y="0.982178" width="70" height="70" rx="35" fill="white"/>
<rect x="0.667969" y="0.982178" width="70" height="70" rx="35" fill="url(#paint0_linear_3182_8566)"/>
<rect x="0.667969" y="0.982178" width="70" height="70" rx="35" fill="url(#paint1_radial_3182_8566)"/>
<path fill-rule="evenodd" clip-rule="evenodd" d="M27.7599 16.9822C24.8181 16.9822 21.9968 18.1508 19.9167 20.2309C17.8366 22.3111 16.668 25.1323 16.668 28.0741V43.8903C16.668 50.01 21.6401 54.9822 27.7599 54.9822H43.5761C46.5178 54.9822 49.3391 53.8136 51.4192 51.7334C53.4994 49.6533 54.668 46.832 54.668 43.8903V28.0741C54.668 21.9543 49.6958 16.9822 43.5761 16.9822H27.7599ZM22.7113 23.0255C23.9504 21.7864 25.6309 21.0903 27.3833 21.0903H43.9527C47.6051 21.0903 50.5599 24.0451 50.5599 27.6975V44.2669C50.5599 46.0192 49.8637 47.6998 48.6247 48.9389C47.3856 50.178 45.705 50.8741 43.9527 50.8741H27.3833C23.7309 50.8741 20.7761 47.9193 20.7761 44.2669V27.6975C20.7761 25.9452 21.4722 24.2646 22.7113 23.0255ZM45.5531 23.5723C44.8835 23.5723 44.2413 23.8383 43.7678 24.3118C43.2943 24.7852 43.0283 25.4274 43.0283 26.097C43.0283 26.7667 43.2943 27.4088 43.7678 27.8823C44.2413 28.3558 44.8835 28.6218 45.5531 28.6218C46.2227 28.6218 46.8649 28.3558 47.3384 27.8823C47.8119 27.4088 48.0779 26.7667 48.0779 26.097C48.0779 25.4274 47.8119 24.7852 47.3384 24.3118C46.8649 23.8383 46.2227 23.5723 45.5531 23.5723ZM35.668 26.3966C33.1257 26.3966 30.6876 27.4065 28.8899 29.2041C27.0923 31.0018 26.0824 33.4399 26.0824 35.9822C26.0824 38.5244 27.0923 40.9626 28.8899 42.7602C30.6876 44.5579 33.1257 45.5678 35.668 45.5678C38.2102 45.5678 40.6484 44.5579 42.446 42.7602C44.2436 40.9626 45.2536 38.5244 45.2536 35.9822C45.2536 33.4399 44.2436 31.0018 42.446 29.2041C40.6484 27.4065 38.2102 26.3966 35.668 26.3966ZM31.7948 32.109C32.822 31.0818 34.2153 30.5047 35.668 30.5047C37.1207 30.5047 38.5139 31.0818 39.5411 32.109C40.5684 33.1362 41.1454 34.5295 41.1454 35.9822C41.1454 37.4349 40.5684 38.8281 39.5411 39.8553C38.5139 40.8826 37.1207 41.4597 35.668 41.4597C34.2153 41.4597 32.822 40.8826 31.7948 39.8553C30.7676 38.8281 30.1905 37.4349 30.1905 35.9822C30.1905 34.5295 30.7676 33.1362 31.7948 32.109Z" fill="white"/>
<defs>
<linearGradient id="paint0_linear_3182_8566" x1="7.15546" y1="65.8764" x2="66.6281" y2="8.10143" gradientUnits="userSpaceOnUse">
<stop stop-color="#FFA422"/>
<stop offset="0.242782" stop-color="#FF7223"/>
<stop offset="0.515371" stop-color="#DC0809"/>
<stop offset="0.77104" stop-color="#C80E63"/>
<stop offset="1" stop-color="#CE099F"/>
</linearGradient>
<radialGradient id="paint1_radial_3182_8566" cx="0" cy="0" r="1" gradientUnits="userSpaceOnUse" gradientTransform="translate(20.1966 85.8565) rotate(-90.7298) scale(82.5511)">
<stop stop-color="#FFDD55"/>
<stop offset="0.1" stop-color="#FFDD55"/>
<stop offset="0.5" stop-color="#FF543E"/>
<stop offset="1" stop-color="#C837AB"/>
</radialGradient>
</defs>
</svg>
