<svg width="330" height="43" viewBox="0 0 330 43" fill="none" xmlns="http://www.w3.org/2000/svg">
<rect width="330" height="42.5678" rx="21.2839" fill="url(#paint0_linear_4395_22577)"/>
<path d="M47.2986 23.5393V27.9334C47.2986 29.9687 47.8693 30.6345 50.1709 30.6345C50.6084 30.6345 52.2824 30.6345 52.7579 30.6345C54.6411 30.6345 55.2498 29.8736 55.4971 27.0393C54.8504 26.9062 53.8803 26.5448 53.4047 26.1833C53.3286 28.2758 53.2145 28.6182 52.5487 28.6182C52.1492 28.6182 50.8367 28.6182 50.5133 28.6182C49.7905 28.6182 49.6764 28.5421 49.6764 27.8953V23.5393H47.2986ZM42.8474 13.0391C41.8393 14.9603 40.0131 17.2049 37.4832 18.8979C37.9968 19.2593 38.7386 20.0582 39.081 20.5908C41.8773 18.5364 43.8556 16.0445 45.3203 13.5336L42.8474 13.0391ZM41.9724 19.906H51.5215V22.3599H41.9724V19.906ZM39.6898 17.8897V24.3953H53.9373V17.8897H39.6898ZM48.0975 14.3896V14.8081C47.6981 15.7402 46.6899 17.281 45.7959 18.2131C46.3094 18.4984 47.0703 18.993 47.5269 19.3354C48.5541 18.2892 49.8285 16.5962 50.5704 15.3027L48.9916 14.2945L48.6111 14.3896H48.0975ZM43.1328 14.3896L42.0105 16.2348H48.7823V14.3896H43.1328ZM45.5105 19.2593C45.1681 23.4822 44.7687 27.1725 37.7875 28.9415C38.3011 29.4171 38.8528 30.2731 39.081 30.8628C46.6138 28.7513 47.5078 24.3192 47.9263 19.2593H45.5105ZM59.4728 16.0636V17.4141H72.8643V13.9711H58.1032V15.3217H70.7909V16.0636H59.4728ZM58.807 16.0636C58.6928 17.2239 58.4646 18.5935 58.2363 19.5827H60.2336C60.4429 18.6316 60.6521 17.281 60.8043 16.0636H58.807ZM59.1113 18.2321L58.6928 19.5827H72.6741V18.2321H59.1113ZM71.9513 18.2321V18.4604C71.8942 19.4685 71.8181 19.906 71.704 20.0582C71.5898 20.1914 71.4757 20.1914 71.3045 20.1914C71.0953 20.2104 70.6958 20.1914 70.2393 20.1343C70.4295 20.5147 70.6007 21.1044 70.6197 21.4849C71.3616 21.5419 72.0654 21.5419 72.4268 21.5039C72.8453 21.4658 73.2448 21.3327 73.5301 21.0474C73.8535 20.6859 73.9676 20.0202 74.0627 18.8218C74.0627 18.6125 74.0817 18.2321 74.0817 18.2321H71.9513ZM62.4402 13.1342V17.0147C62.4402 18.8979 61.7554 20.2675 56.8667 20.9142C57.2472 21.3137 57.7608 22.1697 57.951 22.6642C63.6005 21.8273 64.5136 19.7729 64.5136 17.0717V13.1342H62.4402ZM66.6441 13.1342V20.8001H68.8126V13.1342H66.6441ZM61.5842 24.0148H69.8018V24.7947H61.5842V24.0148ZM61.5842 26.0121H69.8018V26.792H61.5842V26.0121ZM61.5842 22.0365H69.8018V22.7974H61.5842V22.0365ZM59.3776 20.743V28.0855H72.1225V20.743H59.3776ZM67.0626 28.8084C69.117 29.4932 71.2665 30.3872 72.5029 31.034L74.1578 29.6644C72.7692 29.0366 70.4295 28.1807 68.3371 27.5339L67.0626 28.8084ZM62.4782 27.8002C61.1847 28.485 58.9211 29.0557 56.9048 29.3981C57.3993 29.7785 58.1792 30.5965 58.5597 31.034C60.4999 30.5394 62.9538 29.6644 64.5136 28.7323L62.4782 27.8002ZM76.7068 18.8788V20.6099H82.6987V18.8788H76.7068ZM76.4405 21.618V23.3681H82.6987V21.618H76.4405ZM75.7747 16.0445V17.8897H83.0792V16.0445H75.7747ZM83.5738 16.6152V18.7457H93.1799V16.6152H83.5738ZM83.3075 28.1426V30.2921H93.5414V28.1426H83.3075ZM83.8971 22.0175V24.1289H92.7424V22.0175H83.8971ZM77.734 24.3572V26.0312H80.5873V28.1997H77.734V29.8926H82.6987V24.3572H77.734ZM76.7448 24.3572V30.7486H78.7992V24.3572H76.7448ZM87.1119 17.5663V29.1888H89.3945V17.5663H87.1119ZM78.0193 13.9711C78.5329 14.713 79.0655 15.7212 79.2557 16.3679L81.1009 15.4358C80.8536 14.7891 80.2829 13.819 79.7313 13.1342L78.0193 13.9711ZM86.0276 13.9902C86.7314 14.9222 87.5304 16.1777 87.8347 16.9957L89.7179 15.8924C89.3565 15.0934 88.5195 13.876 87.7777 13.02L86.0276 13.9902ZM96.5468 14.1994V31.034H98.7915V16.444H109.862V14.1994H96.5468ZM108.645 14.1994V28.466C108.645 28.6943 108.588 28.7894 108.36 28.7894C108.169 28.7894 107.561 28.7894 107.009 28.7513C107.313 29.341 107.618 30.3682 107.675 30.9769C108.778 30.9769 109.558 30.9198 110.148 30.5394C110.756 30.1399 110.909 29.5122 110.909 28.504V14.1994H108.645ZM94.7207 21.0664V23.292H112.602V21.0664H94.7207ZM100.58 14.9413V30.7106H102.691V14.9413H100.58ZM104.555 14.9413V30.7106H106.705V14.9413H104.555ZM113.553 22.8735L114.123 25.061C115.93 24.5855 118.232 23.9577 120.401 23.349L120.134 21.2946C117.757 21.8843 115.246 22.5121 113.553 22.8735ZM113.838 16.7293V18.8408H120.172V16.7293H113.838ZM116.14 13.1342V28.5991C116.14 28.8654 116.045 28.9606 115.778 28.9606C115.531 28.9606 114.751 28.9606 114.009 28.9415C114.294 29.5122 114.58 30.4253 114.637 30.9959C115.968 30.9959 116.881 30.9389 117.509 30.5965C118.137 30.2541 118.346 29.6834 118.346 28.6182V13.1342H116.14ZM120.61 17.3951V30.9579H122.778V19.5636H128.942V30.8437H131.224V17.3951H120.61ZM121.979 22.3028V24.4333H129.569V22.3028H121.979ZM122.036 27.4007V29.5883H129.645V27.4007H122.036ZM124.738 13.1722V28.7323H126.887V13.1722H124.738ZM133.925 29.2839H136.436V23.4061C136.436 22.0746 136.227 20.1153 136.075 18.7837H136.151L137.292 22.0936L139.461 28.0285H141.078L143.246 22.0936L144.406 18.7837H144.502C144.349 20.1153 144.121 22.0746 144.121 23.4061V29.2839H146.689V15.2076H143.57L141.23 21.8082C140.944 22.6833 140.697 23.5963 140.374 24.5094H140.298C139.993 23.5963 139.746 22.6833 139.423 21.8082L137.026 15.2076H133.925V29.2839ZM152.52 29.5502C153.738 29.5502 154.803 28.9606 155.735 28.1616H155.811L156.02 29.2839H158.303V23.0827C158.303 19.9821 156.914 18.3843 154.213 18.3843C152.52 18.3843 151.017 19.012 149.762 19.7729L150.77 21.637C151.74 21.0474 152.71 20.6289 153.7 20.6289C155.012 20.6289 155.45 21.4088 155.507 22.455C151.227 22.9305 149.382 24.1289 149.382 26.3926C149.382 28.2187 150.618 29.5502 152.52 29.5502ZM153.433 27.3627C152.615 27.3627 152.045 27.0013 152.045 26.1833C152.045 25.2132 152.901 24.5094 155.507 24.186V26.3355C154.822 27.0013 154.232 27.3627 153.433 27.3627ZM161.153 29.2839H163.949V22.9496C164.539 21.4088 165.547 20.8381 166.365 20.8381C166.821 20.8381 167.107 20.9142 167.487 21.0093L167.963 18.6125C167.639 18.4604 167.297 18.3843 166.726 18.3843C165.623 18.3843 164.463 19.1261 163.702 20.5338H163.645L163.416 18.6506H161.153V29.2839ZM172.24 29.5502C174.998 29.5502 176.463 28.0665 176.463 26.1833C176.463 24.2241 174.922 23.5012 173.514 22.9686C172.373 22.5691 171.403 22.2648 171.403 21.5039C171.403 20.8762 171.84 20.4577 172.811 20.4577C173.59 20.4577 174.351 20.8381 175.093 21.3707L176.368 19.6968C175.493 19.012 174.275 18.3843 172.734 18.3843C170.3 18.3843 168.778 19.7348 168.778 21.618C168.778 23.4251 170.281 24.2241 171.631 24.7567C172.734 25.1752 173.857 25.5556 173.857 26.3355C173.857 27.0013 173.362 27.4768 172.297 27.4768C171.308 27.4768 170.414 27.0393 169.444 26.2975L168.188 28.0665C169.234 28.9415 170.813 29.5502 172.24 29.5502ZM178.614 29.2839H181.411V21.9604C182.191 21.1995 182.742 20.7811 183.617 20.7811C184.644 20.7811 185.12 21.3327 185.12 23.0066V29.2839H187.916V22.6452C187.916 19.9821 186.908 18.3843 184.625 18.3843C183.18 18.3843 182.115 19.1451 181.278 19.9441L181.411 17.9468V14.1233H178.614V29.2839ZM193.388 29.5502C194.605 29.5502 195.671 28.9606 196.603 28.1616H196.679L196.888 29.2839H199.171V23.0827C199.171 19.9821 197.782 18.3843 195.081 18.3843C193.388 18.3843 191.885 19.012 190.63 19.7729L191.638 21.637C192.608 21.0474 193.578 20.6289 194.567 20.6289C195.88 20.6289 196.317 21.4088 196.374 22.455C192.094 22.9305 190.249 24.1289 190.249 26.3926C190.249 28.2187 191.486 29.5502 193.388 29.5502ZM194.301 27.3627C193.483 27.3627 192.912 27.0013 192.912 26.1833C192.912 25.2132 193.768 24.5094 196.374 24.186V26.3355C195.69 27.0013 195.1 27.3627 194.301 27.3627ZM204.646 29.5502C205.311 29.5502 205.749 29.4361 206.072 29.322L205.73 27.2486C205.54 27.2866 205.464 27.2866 205.368 27.2866C205.102 27.2866 204.817 27.0774 204.817 26.4116V14.1233H202.021V26.2975C202.021 28.2758 202.686 29.5502 204.646 29.5502ZM210.646 29.5502C211.312 29.5502 211.749 29.4361 212.072 29.322L211.73 27.2486C211.54 27.2866 211.464 27.2866 211.369 27.2866C211.102 27.2866 210.817 27.0774 210.817 26.4116V14.1233H208.021V26.2975C208.021 28.2758 208.687 29.5502 210.646 29.5502ZM228.526 18.2892V20.1914H234.728V18.2892H228.526ZM222.382 17.6614V19.868H224.265V17.6614H222.382ZM222.382 21.561V23.7865H224.265V21.561H222.382ZM217.437 28.5611V30.4253H235.298V28.5611H217.437ZM219.662 24.9659V29.5502H221.774V26.6208H223.562V29.5502H225.464V26.6208H227.271V29.5502H229.173V26.6208H230.98V29.5502H233.206V24.9659H219.662ZM228.45 16.7674C228.013 18.4604 227.157 20.0772 226.073 21.1425C226.472 21.5419 227.138 22.474 227.366 22.8925C228.755 21.58 229.839 19.4305 230.486 17.2429L228.45 16.7674ZM219.7 19.0881V20.2865H224.437V21.0664H219.7V22.2458H226.244V19.0881H219.7ZM226.757 17.0527H218.673V24.3762H226.833V23.0257H220.518V18.4033H226.757V17.0527ZM217.722 14.1043V15.8924H225.825V14.1043H217.722ZM221.355 13.1342V16.7103H223.581V13.1342H221.355ZM229.192 13.1342V16.7103H231.418V13.1342H229.192ZM226.662 14.0853V15.8924H234.899V14.0853H226.662ZM228.222 22.1126V24.0338H234.252V22.1126H228.222ZM239.788 20.5338V22.7403H253.807V20.5338H239.788ZM238.056 13.895V16.1016H252.932V13.895H238.056ZM247.549 14.8081V28.2187C247.549 28.5421 247.415 28.6372 247.054 28.6562C246.693 28.6752 245.532 28.6562 244.41 28.6182C244.771 29.2649 245.152 30.3492 245.266 31.034C246.921 31.034 248.081 30.9579 248.88 30.5584C249.698 30.178 249.964 29.5312 249.964 28.2377V14.8081H247.549ZM246.236 21.3517C244.239 24.0909 240.32 26.773 236.573 28.0665C237.105 28.5611 237.828 29.4932 238.19 30.0829C242.013 28.504 245.875 25.5746 248.233 22.2458L246.236 21.3517ZM239.826 15.3597C239.445 17.7565 238.779 20.8381 238.247 22.7403H240.701C241.195 20.9332 241.842 17.9848 242.298 15.607L239.826 15.3597ZM260.997 15.1125V16.9766H267.598V15.1125H260.997ZM263.261 13.2103V19.4305H265.258V13.2103H263.261ZM263.527 18.7647V23.349H263.28V30.9959H265.239V23.349H264.992V18.7647H263.527ZM262.671 19.7729H265.905V22.455H262.671V19.7729ZM261.187 18.156V24.0529H267.427V18.156H261.187ZM263.356 23.2539C262.652 25.061 261.187 27.1535 259.723 28.2758C260.046 28.8274 260.503 29.6834 260.693 30.2921C262.367 28.8845 263.85 26.2024 264.725 23.8626L263.356 23.2539ZM265.087 24.0148L263.927 24.9469C264.649 25.7078 266.057 27.3817 266.647 28.2567L267.997 26.6208C267.56 26.1833 265.677 24.4333 265.087 24.0148ZM268.168 15.0554V25.6507H269.9V15.0554H268.168ZM270.698 13.4385V28.5611C270.698 28.8464 270.603 28.9225 270.337 28.9415C270.033 28.9415 269.158 28.9415 268.207 28.9225C268.511 29.4742 268.872 30.4443 268.948 31.0149C270.261 31.0149 271.212 30.9198 271.84 30.5774C272.467 30.216 272.677 29.6454 272.677 28.5611V13.4385H270.698ZM257.079 14.7891V16.8815H258.867V23.9197H257.079V26.0121H260.56V14.7891H257.079ZM256.089 14.7891V27.7051H257.801V14.7891H256.089ZM276.234 14.7891V16.9766H279.182V23.9958H276.234V26.2024H281.142V14.7891H276.234ZM275.131 14.7891V27.7431H277.09V14.7891H275.131ZM286.011 13.7619V16.0636H288.884V13.7619H286.011ZM282.93 14.1614C282.911 18.9359 282.701 25.898 280.171 29.3981C280.704 29.7595 281.598 30.5965 281.979 31.053C284.927 27.1154 285.288 19.5256 285.422 14.2374L282.93 14.1614ZM286.867 13.7619V14.9413H287.248C287.495 21.1805 288.009 27.2676 290.177 31.091C290.748 30.5965 291.813 29.8926 292.479 29.5502C290.31 26.2214 289.721 19.9821 289.511 13.7619H286.867Z" fill="white"/>
<defs>
<linearGradient id="paint0_linear_4395_22577" x1="165" y1="0" x2="165" y2="42.5678" gradientUnits="userSpaceOnUse">
<stop stop-color="#3D7DD2"/>
<stop offset="1" stop-color="#1B4384"/>
</linearGradient>
</defs>
</svg>
