<svg width="26" height="24" viewBox="0 0 26 24" fill="none" xmlns="http://www.w3.org/2000/svg">
<path d="M7.58442 11.134L6.75861 13.6907H8.41023L7.58442 11.134Z" fill="white"/>
<path d="M23.5225 0H10.3096V4.12371H13.6128V5.7732H2.87732C1.47345 5.7732 0.399902 6.84536 0.399902 8.24742V17.3196C0.399902 18.7217 1.47345 19.7938 2.87732 19.7938H3.70313V24L8.90571 19.7938H14.4386V14.0206H23.5225C24.9264 14.0206 25.9999 12.9485 25.9999 11.5464V2.47423C25.9999 1.07217 24.9264 0 23.5225 0ZM9.31861 16.4124L8.90571 15.0928H6.34571L5.85022 16.4124H3.86829L6.59345 9.07217H8.57539L11.3005 16.4124H9.31861ZM21.8709 9.89691V11.5464C20.7973 11.5464 19.6412 11.2165 18.6502 10.7217C17.6593 11.2165 16.5031 11.4639 15.347 11.5464L15.2644 9.89691C15.8425 9.89691 16.4205 9.81443 16.9986 9.64948C16.2554 8.90722 15.7599 8 15.5122 7.01031H17.2464C17.4941 7.75258 17.9896 8.3299 18.5676 8.82474C19.476 8.08247 20.0541 7.01031 20.1367 5.7732H15.1818V4.12371H17.6593V2.47423H19.3109V4.12371H22.036L22.1186 4.94845C22.2012 6.68041 21.5406 8.41237 20.3018 9.64948C20.8799 9.81443 21.3754 9.89691 21.8709 9.89691Z" fill="white"/>
</svg>
