<svg width="70" height="71" viewBox="0 0 70 71" fill="none" xmlns="http://www.w3.org/2000/svg">
<rect y="0.982178" width="70" height="70" rx="35" fill="#04B004"/>
<path d="M46.6577 32.5998C46.7918 32.5952 46.9255 32.6176 47.0508 32.6657C47.176 32.7139 47.2904 32.7867 47.3869 32.88C47.4834 32.9732 47.5601 33.085 47.6126 33.2085C47.665 33.3321 47.692 33.4649 47.692 33.5991C47.692 33.7333 47.665 33.8661 47.6126 33.9897C47.5601 34.1132 47.4834 34.2249 47.3869 34.3182C47.2904 34.4114 47.176 34.4843 47.0508 34.5324C46.9255 34.5806 46.7918 34.603 46.6577 34.5984H43.8801V36.3796H46.6577C46.7926 36.373 46.9275 36.3939 47.0541 36.441C47.1807 36.4881 47.2964 36.5604 47.3943 36.6536C47.4921 36.7468 47.57 36.8588 47.6232 36.983C47.6764 37.1072 47.7038 37.2408 47.7038 37.3759C47.7038 37.511 47.6764 37.6447 47.6232 37.7689C47.57 37.893 47.4921 38.0051 47.3943 38.0983C47.2964 38.1914 47.1807 38.2638 47.0541 38.3109C46.9275 38.358 46.7926 38.3788 46.6577 38.3722H42.885C42.6213 38.3713 42.3686 38.266 42.1824 38.0793C41.9961 37.8925 41.8914 37.6397 41.8911 37.3759V29.8234C41.8911 29.2736 42.3364 28.8224 42.885 28.8224H46.6648C46.9212 28.8356 47.1627 28.947 47.3393 29.1335C47.5158 29.3199 47.6139 29.5671 47.6131 29.8239C47.6123 30.0807 47.5128 30.3273 47.3352 30.5127C47.1575 30.6981 46.9154 30.808 46.6589 30.8197H43.8813V32.601L46.6577 32.5998ZM40.5611 37.3747C40.5589 37.6392 40.4523 37.8921 40.2647 38.0785C40.077 38.2649 39.8233 38.3696 39.5588 38.3699C39.4022 38.3714 39.2474 38.3365 39.1066 38.2678C38.9659 38.1992 38.843 38.0988 38.7477 37.9744L34.8824 32.7174V37.3736C34.8824 37.6378 34.7775 37.8912 34.5906 38.0781C34.4038 38.2649 34.1504 38.3699 33.8861 38.3699C33.6219 38.3699 33.3685 38.2649 33.1816 38.0781C32.9948 37.8912 32.8898 37.6378 32.8898 37.3736V29.8211C32.8898 29.3947 33.1689 29.0124 33.5702 28.8758C33.6694 28.8408 33.7739 28.8235 33.879 28.8247C34.1877 28.8247 34.4727 28.9922 34.6639 29.2273L38.5601 34.4962V29.8211C38.5601 29.2712 39.0054 28.82 39.5564 28.82C40.1074 28.82 40.5587 29.2712 40.5587 29.8211L40.5611 37.3747ZM31.4696 37.3747C31.4683 37.6396 31.3621 37.8932 31.1743 38.08C30.9864 38.2667 30.7322 38.3714 30.4673 38.3711C30.2044 38.3689 29.953 38.263 29.7678 38.0764C29.5825 37.8898 29.4784 37.6377 29.4781 37.3747V29.8222C29.4781 29.2724 29.9234 28.8212 30.4744 28.8212C31.0243 28.8212 31.4707 29.2724 31.4707 29.8222L31.4696 37.3747ZM27.5662 38.3711H23.7864C23.5218 38.3704 23.2682 38.2655 23.0805 38.0789C22.8929 37.8924 22.7864 37.6393 22.7842 37.3747V29.8222C22.7842 29.2724 23.2354 28.8212 23.7864 28.8212C24.3374 28.8212 24.7828 29.2724 24.7828 29.8222V36.3784H27.5662C27.8305 36.3784 28.0839 36.4834 28.2707 36.6702C28.4576 36.8571 28.5626 37.1105 28.5626 37.3747C28.5626 37.639 28.4576 37.8924 28.2707 38.0792C28.0839 38.2661 27.8305 38.3711 27.5662 38.3711ZM54 33.3099C54 24.8062 45.4702 17.8855 35 17.8855C24.5298 17.8855 16 24.8062 16 33.3099C16 40.9301 22.7604 47.3129 31.8888 48.5254C32.5074 48.6548 33.3482 48.9339 33.5655 49.4599C33.7567 49.9349 33.689 50.6712 33.6273 51.1735L33.3672 52.7873C33.2924 53.2635 32.9836 54.6624 35.0249 53.8086C37.0722 52.9547 45.9784 47.3521 49.9673 42.7612C52.6949 39.7747 54 36.7062 54 33.3099Z" fill="white"/>
</svg>
