<svg width="25" height="24" viewBox="0 0 25 24" fill="none" xmlns="http://www.w3.org/2000/svg">
<path d="M22.3027 8.608V16.75C22.3028 17.5801 21.9852 18.3788 21.4151 18.9822C20.8449 19.5856 20.0655 19.948 19.2367 19.995L19.0527 20H5.55273C4.7226 20.0001 3.92391 19.6824 3.3205 19.1123C2.7171 18.5422 2.35473 17.7628 2.30773 16.934L2.30273 16.75V8.608L11.9547 13.664C12.0621 13.7202 12.1815 13.7496 12.3027 13.7496C12.4239 13.7496 12.5434 13.7202 12.6507 13.664L22.3027 8.608ZM5.55273 4H19.0527C19.8583 3.9999 20.6352 4.299 21.2328 4.83927C21.8303 5.37954 22.2059 6.12248 22.2867 6.924L12.3027 12.154L2.31873 6.924C2.39626 6.15431 2.74578 5.43752 3.30448 4.90246C3.86318 4.36741 4.59442 4.04919 5.36673 4.005L5.55273 4H19.0527H5.55273Z" fill="white"/>
</svg>
