<svg width="83" height="20" viewBox="0 0 83 20" fill="none" xmlns="http://www.w3.org/2000/svg">
<path d="M36.096 -0.000180305H40.4742V19.9995H36.096C34.9409 16.4108 33.7851 12.8237 32.6601 9.32963C32.7414 10.2737 32.8832 11.3147 32.9106 12.3587C32.9765 14.8633 32.9886 17.3693 33.0205 19.8738C33.0144 19.9175 33.0015 19.9599 32.9822 19.9995H28.7007C28.6857 19.8411 28.6559 19.6811 28.6559 19.5227C28.6528 13.1743 28.6528 6.82558 28.6559 0.476587C28.6559 0.318234 28.6857 0.158212 28.7007 -0.000180305H32.9822C34.1807 3.79188 35.3792 7.58429 36.5626 11.3272C36.0924 7.60003 36.0575 3.80115 36.096 -0.000180305Z" fill="white"/>
<path d="M47.9745 15.2201C48.6161 15.1626 49.092 14.9137 49.3892 14.4697C49.6556 14.0928 49.8616 13.6767 49.9996 13.2365C50.4937 11.4621 50.4807 9.65701 50.1369 7.86908C50.0048 7.17696 49.6857 6.49957 49.3545 5.85841C49.1091 5.3841 48.6398 5.08344 47.9745 5.1235L47.9745 15.2201ZM43.3929 -0.000180305H48.2588C48.3996 0.0292629 48.5399 0.0652493 48.6826 0.0868009C49.947 0.271071 51.0615 0.736114 51.9773 1.5547C53.183 2.63282 53.9091 3.96357 54.3779 5.41628C55.0679 7.5575 55.123 9.74997 54.9378 11.952C54.8129 13.4453 54.4902 14.9067 53.8146 16.2898C52.9927 17.9739 51.7747 19.272 49.7285 19.7708C49.3711 19.8589 49.0087 19.9243 48.6486 19.9995H43.3929V-0.000180305Z" fill="white"/>
<path d="M21.2085 -0.000180305H25.6845C25.6893 0.630612 25.6984 1.26247 25.6975 1.89381C25.6938 6.16563 25.714 10.4385 25.6707 14.7115C25.6527 16.4312 24.9208 17.9016 23.424 19.0245C22.7168 19.5549 21.882 19.8063 21.0147 19.9996H19.3603C19.3027 19.9719 19.2424 19.9504 19.1803 19.9355C17.0775 19.613 15.683 18.5082 14.9199 16.7338C14.4376 15.6154 14.2991 14.4383 14.3006 13.243C14.3036 8.82779 14.3036 4.41339 14.3006 -0.000180305H18.8736C18.8715 4.38613 18.872 8.77301 18.8751 13.1605C18.8775 13.5856 18.9322 14.0089 19.038 14.4207C19.1891 15.0147 19.529 15.2504 20.0685 15.2281C20.5842 15.2087 20.9259 14.9225 21.0126 14.3321C21.103 13.7384 21.1506 13.139 21.155 12.5384C21.1682 8.54768 21.1617 4.55635 21.1637 0.56529C21.1637 0.377201 21.1935 0.189017 21.2085 -0.000180305Z" fill="white"/>
<path d="M63.9953 13.2005C63.7216 10.5741 63.454 7.99426 63.1924 5.46103C62.8613 8.00024 62.522 10.5924 62.1812 13.2005H63.9953ZM69.5677 19.9996H64.8966C64.7888 19.1338 64.6811 18.2678 64.5697 17.3712C63.6039 17.3712 62.686 17.3641 61.7681 17.381C61.7093 17.394 61.6546 17.4216 61.6094 17.4614C61.5641 17.5011 61.5296 17.5517 61.5092 17.6083C61.3912 18.4035 61.2988 19.2025 61.1998 19.9995H56.432C56.4649 19.8717 56.5016 19.7449 56.5284 19.6152C56.9032 17.7602 57.2774 15.9055 57.651 14.0513C58.313 10.7739 58.9763 7.49627 59.6409 4.21852C59.9266 2.81112 60.2262 1.40615 60.5182 -0.000154861H66.0647C66.5876 2.94987 67.1108 5.89998 67.6343 8.85017C68.1386 11.6699 68.6528 14.4877 69.151 17.3077C69.3088 18.2023 69.4295 19.1017 69.5677 19.9996Z" fill="white"/>
<path d="M11.3815 0.000592293V4.57611H4.59248V7.29824H9.01556V11.693H4.56989V20.0003H0V0.000592293H11.3815Z" fill="white"/>
<path d="M78.2273 -6.46557e-05C79.7196 -6.46557e-05 81.211 -0.00196043 82.7039 0.00375463C82.8043 0.0182148 82.9022 0.0466665 82.9947 0.0882786C82.9284 0.200526 82.87 0.317195 82.8198 0.437458C81.611 4.00163 80.4068 7.5668 79.207 11.133C79.1104 11.4253 79.0609 11.731 79.06 12.0388C79.0483 14.5178 79.0549 16.9978 79.0513 19.4776C79.0513 19.6524 79.0224 19.8254 79.0056 19.9997H74.5304C74.5247 17.3158 74.5232 14.631 74.5124 11.9464C74.5146 11.7271 74.4804 11.5089 74.4112 11.3007C73.8874 9.82485 73.3464 8.35528 72.8154 6.8822C71.9902 4.58859 71.1671 2.29453 70.3461 1.58254e-05H75.1142C75.6278 1.93925 76.1399 3.87876 76.6688 5.8777C77.199 3.87743 77.7137 1.93917 78.2273 -6.46557e-05Z" fill="white"/>
</svg>
