<svg width="30" height="40" viewBox="0 0 30 40" fill="none" xmlns="http://www.w3.org/2000/svg">
<path d="M14.998 25.1316C18.4054 25.1316 21.1559 22.3811 21.1559 18.9737V6.6579C21.1559 3.25053 18.4054 0.5 14.998 0.5C11.5907 0.5 8.84012 3.25053 8.84012 6.6579V18.9737C8.84012 22.3811 11.5907 25.1316 14.998 25.1316ZM27.1291 18.9737C26.1233 18.9737 25.2817 19.7126 25.1175 20.7184C24.2759 25.5421 20.068 29.2368 14.998 29.2368C9.92802 29.2368 5.72012 25.5421 4.87855 20.7184C4.71434 19.7126 3.87276 18.9737 2.86697 18.9737C1.61486 18.9737 0.629598 20.0821 0.814335 21.3137C1.82012 27.4716 6.74644 32.2953 12.9454 33.1779V37.4474C12.9454 38.5763 13.8691 39.5 14.998 39.5C16.127 39.5 17.0506 38.5763 17.0506 37.4474V33.1779C23.2496 32.2953 28.1759 27.4716 29.1817 21.3137C29.387 20.0821 28.3812 18.9737 27.1291 18.9737Z" fill="white"/>
</svg>
