<svg width="5" height="16" viewBox="0 0 5 16" fill="none" xmlns="http://www.w3.org/2000/svg">
<path d="M2.33057 4C3.43057 4 4.33057 3.1 4.33057 2C4.33057 0.9 3.43057 0 2.33057 0C1.23057 0 0.330566 0.9 0.330566 2C0.330566 3.1 1.23057 4 2.33057 4ZM2.33057 6C1.23057 6 0.330566 6.9 0.330566 8C0.330566 9.1 1.23057 10 2.33057 10C3.43057 10 4.33057 9.1 4.33057 8C4.33057 6.9 3.43057 6 2.33057 6ZM2.33057 12C1.23057 12 0.330566 12.9 0.330566 14C0.330566 15.1 1.23057 16 2.33057 16C3.43057 16 4.33057 15.1 4.33057 14C4.33057 12.9 3.43057 12 2.33057 12Z" fill="white"/>
</svg>
