<svg width="24" height="17" viewBox="0 0 24 17" fill="none" xmlns="http://www.w3.org/2000/svg">
<path d="M12.2184 0.5C10.2987 0.50602 8.44455 1.19838 6.99076 2.452C5.87658 3.412 5.0693 4.66291 4.8613 5.91818C2.42349 6.45636 0.582031 8.58 0.582031 11.1444C0.582031 14.1233 3.06639 16.5 6.08167 16.5H19.0359C21.6758 16.5 23.8548 14.42 23.8548 11.8062C23.8548 9.42655 22.0482 7.48764 19.7326 7.16036C19.3791 3.40764 16.1311 0.5 12.2184 0.5ZM15.6424 7.98509C15.71 8.05271 15.7637 8.13298 15.8002 8.22133C15.8368 8.30968 15.8557 8.40437 15.8557 8.5C15.8557 8.59563 15.8368 8.69032 15.8002 8.77867C15.7637 8.86702 15.71 8.94729 15.6424 9.01491C15.5748 9.08253 15.4945 9.13617 15.4062 9.17276C15.3178 9.20936 15.2231 9.22819 15.1275 9.22819C15.0319 9.22819 14.9372 9.20936 14.8488 9.17276C14.7605 9.13617 14.6802 9.08253 14.6126 9.01491L12.9457 7.34655V12.8636C12.9457 13.0565 12.869 13.2415 12.7327 13.3779C12.5963 13.5143 12.4113 13.5909 12.2184 13.5909C12.0255 13.5909 11.8405 13.5143 11.7041 13.3779C11.5677 13.2415 11.4911 13.0565 11.4911 12.8636V7.34655L9.82421 9.01491C9.68765 9.15147 9.50243 9.22819 9.3093 9.22819C9.11618 9.22819 8.93096 9.15147 8.7944 9.01491C8.65783 8.87835 8.58111 8.69313 8.58111 8.5C8.58111 8.30687 8.65783 8.12165 8.7944 7.98509L11.7035 5.076C11.771 5.00827 11.8513 4.95454 11.9397 4.91787C12.028 4.88121 12.1227 4.86234 12.2184 4.86234C12.3141 4.86234 12.4088 4.88121 12.4971 4.91787C12.5855 4.95454 12.6657 5.00827 12.7333 5.076L15.6424 7.98509Z" fill="#174780"/>
</svg>
