<svg width="20" height="21" viewBox="0 0 20 21" fill="none" xmlns="http://www.w3.org/2000/svg">
<path d="M17.1757 3.64976C17.1756 3.62007 17.1742 3.59041 17.1714 3.56078C17.17 3.5464 17.1675 3.5325 17.1655 3.51828C17.1632 3.50218 17.1614 3.48609 17.1584 3.47015C17.1554 3.45421 17.1512 3.43882 17.1473 3.42328C17.144 3.40914 17.1409 3.395 17.1369 3.38109C17.1325 3.36593 17.127 3.35132 17.1218 3.33648C17.117 3.32242 17.1125 3.30828 17.107 3.29445C17.1015 3.28062 17.095 3.26742 17.0889 3.25382C17.0824 3.23968 17.0763 3.22523 17.0691 3.21132C17.0624 3.19843 17.0549 3.18632 17.0477 3.17382C17.0398 3.16 17.0322 3.14601 17.0236 3.13257C17.0149 3.11906 17.0052 3.1064 16.9958 3.09335C16.9875 3.08187 16.9798 3.07007 16.9709 3.0589C16.9532 3.03661 16.9345 3.01518 16.9149 2.99468C16.9136 2.99328 16.9124 2.99171 16.9112 2.99031C16.9097 2.98875 16.908 2.9875 16.9066 2.98601C16.8869 2.96583 16.8664 2.94659 16.845 2.92835C16.8339 2.91882 16.8221 2.91054 16.8107 2.90171C16.7985 2.89234 16.7866 2.8825 16.7741 2.87375C16.7606 2.86445 16.7469 2.8564 16.7331 2.84796C16.7215 2.84078 16.7101 2.83312 16.6981 2.82656C16.6843 2.8189 16.6702 2.81242 16.6561 2.80546C16.6434 2.79929 16.6309 2.79273 16.618 2.78718C16.6044 2.78132 16.5905 2.77664 16.5767 2.77156C16.5626 2.76625 16.5488 2.76062 16.5343 2.75617C16.5207 2.75187 16.5068 2.74867 16.4929 2.74507C16.4781 2.74125 16.4635 2.73695 16.4485 2.73382C16.4327 2.7307 16.4169 2.72875 16.401 2.72632C16.3877 2.72437 16.3746 2.72171 16.3611 2.72039C16.3324 2.71747 16.3038 2.71596 16.2752 2.71585L16.2719 2.7157H12.6558C12.416 2.7157 12.1861 2.81447 12.0166 2.99029C11.847 3.1661 11.7518 3.40456 11.7518 3.6532C11.7518 3.90184 11.847 4.1403 12.0166 4.31611C12.1861 4.49193 12.416 4.5907 12.6558 4.5907H14.0894L11.6234 7.14796C10.3421 6.15442 8.74553 5.70104 7.15491 5.87906C5.56428 6.05709 4.09772 6.8533 3.05036 8.10747C2.00301 9.36164 1.45261 10.9807 1.50993 12.6387C1.56725 14.2968 2.22803 15.8708 3.35931 17.0439C4.49058 18.2171 6.00836 18.9024 7.60719 18.9618C9.20602 19.0212 10.7672 18.4505 11.9766 17.3643C13.186 16.2782 13.9538 14.7573 14.1254 13.1078C14.2971 11.4582 13.8599 9.80248 12.9018 8.47375L15.3679 5.91664V7.4032C15.3679 7.65184 15.4631 7.8903 15.6326 8.06611C15.8022 8.24193 16.0321 8.3407 16.2719 8.3407C16.5116 8.3407 16.7416 8.24193 16.9111 8.06611C17.0806 7.8903 17.1759 7.65184 17.1759 7.4032V3.6532L17.1757 3.64976ZM11.0305 15.7177C10.3985 16.3725 9.59347 16.8183 8.71719 16.9988C7.8409 17.1792 6.9327 17.0862 6.1074 16.7314C5.28209 16.3767 4.57673 15.7761 4.08047 15.0057C3.58422 14.2353 3.31935 13.3296 3.31935 12.4032C3.31935 11.4767 3.58422 10.571 4.08047 9.8006C4.57673 9.0302 5.28209 8.42967 6.1074 8.07492C6.9327 7.72017 7.8409 7.62713 8.71719 7.80755C9.59347 7.98798 10.3985 8.43378 11.0305 9.08859C11.877 9.96835 12.3524 11.1604 12.3524 12.4032C12.3524 13.646 11.877 14.838 11.0305 15.7178V15.7177Z" fill="#7096C3"/>
</svg>
