<svg width="20" height="21" viewBox="0 0 20 21" fill="none" xmlns="http://www.w3.org/2000/svg">
<path d="M16.5625 7.63307C16.5626 6.37513 16.2012 5.14365 15.5213 4.08529C14.8414 3.02693 13.8716 2.18629 12.7275 1.66347C11.5833 1.14065 10.313 0.957688 9.06785 1.13637C7.82267 1.31505 6.65507 1.84784 5.70411 2.6713C4.75316 3.49476 4.05891 4.57419 3.70404 5.78104C3.34917 6.98788 3.34864 8.2713 3.70252 9.47843C4.05639 10.6856 4.74975 11.7656 5.70003 12.5898C6.65031 13.4141 7.81746 13.9478 9.0625 14.1275V15.4456H6.875C6.62636 15.4456 6.3879 15.5443 6.21209 15.7202C6.03627 15.896 5.9375 16.1344 5.9375 16.3831C5.9375 16.6317 6.03627 16.8702 6.21209 17.046C6.3879 17.2218 6.62636 17.3206 6.875 17.3206H9.0625V18.8831C9.0625 19.1317 9.16127 19.3702 9.33709 19.546C9.5129 19.7218 9.75136 19.8206 10 19.8206C10.2486 19.8206 10.4871 19.7218 10.6629 19.546C10.8387 19.3702 10.9375 19.1317 10.9375 18.8831V17.3206H13.125C13.3736 17.3206 13.6121 17.2218 13.7879 17.046C13.9637 16.8702 14.0625 16.6317 14.0625 16.3831C14.0625 16.1344 13.9637 15.896 13.7879 15.7202C13.6121 15.5443 13.3736 15.4456 13.125 15.4456H10.9375V14.1275C12.4984 13.9003 13.9256 13.1192 14.9583 11.9268C15.991 10.7345 16.5604 9.21046 16.5625 7.63307ZM5.3125 7.63307C5.3125 6.70597 5.58742 5.79969 6.10249 5.02883C6.61756 4.25797 7.34964 3.65717 8.20617 3.30238C9.0627 2.94759 10.0052 2.85477 10.9145 3.03563C11.8238 3.2165 12.659 3.66294 13.3146 4.3185C13.9701 4.97406 14.4166 5.80929 14.5974 6.71858C14.7783 7.62787 14.6855 8.57037 14.3307 9.42689C13.9759 10.2834 13.3751 11.0155 12.6042 11.5306C11.8334 12.0456 10.9271 12.3206 10 12.3206C8.75723 12.3192 7.56576 11.8248 6.68699 10.9461C5.80822 10.0673 5.31391 8.87584 5.3125 7.63307Z" fill="#FF8585"/>
</svg>
