<svg width="16" height="18" viewBox="0 0 16 18" fill="none" xmlns="http://www.w3.org/2000/svg">
<path d="M11.9665 7.16667H13.6331C14.0752 7.16667 14.4991 7.34226 14.8116 7.65482C15.1242 7.96738 15.2998 8.39131 15.2998 8.83333V16.3333C15.2998 16.7754 15.1242 17.1993 14.8116 17.5118C14.4991 17.8244 14.0752 18 13.6331 18H1.96647C1.52444 18 1.10052 17.8244 0.78796 17.5118C0.475399 17.1993 0.299805 16.7754 0.299805 16.3333V8.83333C0.299805 8.39131 0.475399 7.96738 0.78796 7.65482C1.10052 7.34226 1.52444 7.16667 1.96647 7.16667H3.63314V8.83333H1.96647V16.3333H13.6331V8.83333H11.9665V7.16667ZM3.21647 5.08333L4.3948 6.26167L6.96647 3.69V12.1667H8.63314V3.69L11.2048 6.26167L12.3831 5.08333L7.7998 0.5L3.21647 5.08333Z" fill="#fff"/>
</svg>
