<svg width="19" height="18" viewBox="0 0 19 18" fill="none" xmlns="http://www.w3.org/2000/svg">
<path d="M16.3741 2V16H2.37415V2H16.3741ZM17.4741 0H1.27415C0.774146 0 0.374146 0.4 0.374146 0.9V17.1C0.374146 17.5 0.774146 18 1.27415 18H17.4741C17.8741 18 18.3741 17.5 18.3741 17.1V0.9C18.3741 0.4 17.8741 0 17.4741 0ZM8.37415 4H14.3741V6H8.37415V4ZM8.37415 8H14.3741V10H8.37415V8ZM8.37415 12H14.3741V14H8.37415V12ZM4.37415 4H6.37415V6H4.37415V4ZM4.37415 8H6.37415V10H4.37415V8ZM4.37415 12H6.37415V14H4.37415V12Z" fill="#727272"/>
</svg>
