<svg width="24" height="24" viewBox="0 0 24 24" fill="none" xmlns="http://www.w3.org/2000/svg">
<g clip-path="url(#clip0_474_3501)">
<path d="M18.6667 3L22 5.7M22 5.7L18.6667 8.4M22 5.7H9.77778C7.71498 5.7 5.73667 6.36375 4.27806 7.54523C2.81944 8.72671 2 10.3291 2 12M5.33333 21L2 18.3M2 18.3L5.33333 15.6M2 18.3H14.2222C16.285 18.3 18.2633 17.6363 19.7219 16.4548C21.1806 15.2733 22 13.6709 22 12" stroke="#727272" stroke-width="1.96624" stroke-linecap="round" stroke-linejoin="round"/>
<path d="M11.491 15.244V10.9973C10.5515 11.604 9.91909 11.9073 9.59362 11.9073C9.43828 11.9073 9.29958 11.856 9.17753 11.7533C9.05918 11.6476 9 11.5262 9 11.3893C9 11.2307 9.05918 11.114 9.17753 11.0393C9.29589 10.9647 9.50485 10.8682 9.80444 10.75C10.252 10.5727 10.6089 10.386 10.8752 10.19C11.1452 9.994 11.3837 9.77467 11.5908 9.532C11.798 9.28933 11.933 9.14 11.9958 9.084C12.0587 9.028 12.1771 9 12.3509 9C12.5469 9 12.7041 9.06378 12.8225 9.19133C12.9408 9.31889 13 9.49467 13 9.71867V15.062C13 15.6873 12.7466 16 12.2399 16C12.0143 16 11.8331 15.9362 11.6963 15.8087C11.5594 15.6811 11.491 15.4929 11.491 15.244Z" fill="#727272"/>
</g>
<defs>
<clipPath id="clip0_474_3501">
<rect width="24" height="24" fill="#727272"/>
</clipPath>
</defs>
</svg>
