<svg width="24" height="24" viewBox="0 0 24 24" fill="none" xmlns="http://www.w3.org/2000/svg">
<g clip-path="url(#clip0_474_3521)">
<path fill-rule="evenodd" clip-rule="evenodd" d="M17.9027 2.38145C18.2444 1.95953 18.8635 1.89454 19.2854 2.2363L22.6188 4.9363C22.8492 5.12296 22.9831 5.40368 22.9831 5.70024C22.9831 5.99681 22.8492 6.27753 22.6188 6.46419L19.2854 9.16419C18.8635 9.50595 18.2444 9.44096 17.9027 9.01904C17.5609 8.59713 17.6259 7.97805 18.0478 7.6363L19.2243 6.68337H9.77775C7.91648 6.68337 6.16277 7.28401 4.89682 8.30942C3.63648 9.3303 2.98309 10.665 2.98309 12.0002C2.98309 12.5432 2.54293 12.9834 1.99997 12.9834C1.457 12.9834 1.01685 12.5432 1.01685 12.0002C1.01685 9.99374 2.00234 8.1236 3.65923 6.78152C5.31052 5.44398 7.51343 4.71712 9.77775 4.71712H19.2243L18.0478 3.76419C17.6259 3.42244 17.5609 2.80336 17.9027 2.38145ZM22 11.0171C22.5429 11.0171 22.9831 11.4573 22.9831 12.0002C22.9831 14.0067 21.9976 15.8769 20.3407 17.219C18.6894 18.5565 16.4865 19.2834 14.2222 19.2834H4.77564L5.9521 20.2363C6.37402 20.578 6.439 21.1971 6.09725 21.619C5.7555 22.041 5.13642 22.1059 4.7145 21.7642L1.38117 19.0642C1.15072 18.8775 1.01685 18.5968 1.01685 18.3002C1.01685 18.0037 1.15072 17.723 1.38117 17.5363L4.7145 14.8363C5.13642 14.4945 5.7555 14.5595 6.09725 14.9814C6.439 15.4034 6.37402 16.0224 5.9521 16.3642L4.77564 17.3171H14.2222C16.0835 17.3171 17.8372 16.7165 19.1031 15.6911C20.3635 14.6702 21.0168 13.3355 21.0168 12.0002C21.0168 11.4573 21.457 11.0171 22 11.0171Z" fill="white"/>
<path d="M9.18999 13.485C8.92867 13.485 8.70317 13.4007 8.51351 13.2321C8.32384 13.0635 8.229 12.8275 8.229 12.524C8.229 12.2669 8.31962 12.0457 8.50086 11.8602C8.6821 11.6748 8.90549 11.582 9.17102 11.582C9.43656 11.582 9.66205 11.6748 9.8475 11.8602C10.0372 12.0414 10.132 12.2627 10.132 12.524C10.132 12.8233 10.0372 13.0593 9.8475 13.2321C9.66205 13.4007 9.44288 13.485 9.18999 13.485Z" fill="white"/>
<path d="M12.731 13.485C12.4696 13.485 12.2441 13.4007 12.0545 13.2321C11.8648 13.0635 11.77 12.8275 11.77 12.524C11.77 12.2669 11.8606 12.0457 12.0418 11.8602C12.2231 11.6748 12.4465 11.582 12.712 11.582C12.9775 11.582 13.203 11.6748 13.3885 11.8602C13.5781 12.0414 13.673 12.2627 13.673 12.524C13.673 12.8233 13.5781 13.0593 13.3885 13.2321C13.203 13.4007 12.9839 13.485 12.731 13.485Z" fill="white"/>
<path d="M16.2719 13.485C16.0106 13.485 15.7851 13.4007 15.5955 13.2321C15.4058 13.0635 15.311 12.8275 15.311 12.524C15.311 12.2669 15.4016 12.0457 15.5828 11.8602C15.764 11.6748 15.9874 11.582 16.253 11.582C16.5185 11.582 16.744 11.6748 16.9295 11.8602C17.1191 12.0414 17.214 12.2627 17.214 12.524C17.214 12.8233 17.1191 13.0593 16.9295 13.2321C16.744 13.4007 16.5248 13.485 16.2719 13.485Z" fill="white"/>
</g>
<defs>
<clipPath id="clip0_474_3521">
<rect width="24" height="24" fill="white"/>
</clipPath>
</defs>
</svg>
