<svg width="17" height="16" viewBox="0 0 17 16" fill="none" xmlns="http://www.w3.org/2000/svg">
<path d="M4.99032 7.45876L4.47419 9.0567H5.50645L4.99032 7.45876Z" fill="white"/>
<path d="M14.9516 0.5H6.69355V3.07732H8.75806V4.10825H2.04839C1.17097 4.10825 0.5 4.77835 0.5 5.65464V11.3247C0.5 12.201 1.17097 12.8711 2.04839 12.8711H2.56452V15.5L5.81613 12.8711H9.27419V9.26289H14.9516C15.829 9.26289 16.5 8.59278 16.5 7.7165V2.04639C16.5 1.1701 15.829 0.5 14.9516 0.5ZM6.07419 10.7577L5.81613 9.93299H4.21613L3.90645 10.7577H2.66774L4.37097 6.1701H5.60968L7.3129 10.7577H6.07419ZM13.9194 6.68557V7.7165C13.2484 7.7165 12.5258 7.51031 11.9065 7.20103C11.2871 7.51031 10.5645 7.66495 9.84194 7.7165L9.79032 6.68557C10.1516 6.68557 10.5129 6.63402 10.8742 6.53093C10.4097 6.06701 10.1 5.5 9.94516 4.88144H11.029C11.1839 5.34536 11.4935 5.70619 11.8548 6.01546C12.4226 5.55155 12.7839 4.88144 12.8355 4.10825H9.73871V3.07732H11.2871V2.04639H12.3194V3.07732H14.0226L14.0742 3.59278C14.1258 4.67526 13.7129 5.75773 12.9387 6.53093C13.3 6.63402 13.6097 6.68557 13.9194 6.68557Z" fill="white"/>
</svg>
