<svg width="14" height="14" viewBox="0 0 14 14" fill="none" xmlns="http://www.w3.org/2000/svg">
<path d="M7.94031 6.91512L13.467 1.38846C13.5762 1.26092 13.6333 1.09687 13.6268 0.929086C13.6203 0.761302 13.5507 0.602143 13.432 0.483413C13.3133 0.364684 13.1541 0.295128 12.9863 0.288648C12.8186 0.282167 12.6545 0.339238 12.527 0.448455L7.00031 5.97512L1.47364 0.441789C1.34811 0.316253 1.17784 0.245728 1.00031 0.245728C0.822773 0.245728 0.65251 0.316253 0.526974 0.441789C0.401438 0.567324 0.330913 0.737587 0.330913 0.915122C0.330913 1.09266 0.401438 1.26292 0.526974 1.38846L6.06031 6.91512L0.526974 12.4418C0.457186 12.5016 0.400506 12.5751 0.360491 12.6578C0.320475 12.7405 0.297988 12.8306 0.294442 12.9224C0.290896 13.0142 0.306366 13.1058 0.339882 13.1913C0.373399 13.2769 0.424238 13.3546 0.489208 13.4196C0.554177 13.4845 0.631876 13.5354 0.717426 13.5689C0.802976 13.6024 0.894531 13.6179 0.986343 13.6143C1.07816 13.6108 1.16824 13.5883 1.25095 13.5483C1.33366 13.5083 1.40721 13.4516 1.46697 13.3818L7.00031 7.85512L12.527 13.3818C12.6545 13.491 12.8186 13.5481 12.9863 13.5416C13.1541 13.5351 13.3133 13.4656 13.432 13.3468C13.5507 13.2281 13.6203 13.0689 13.6268 12.9012C13.6333 12.7334 13.5762 12.5693 13.467 12.4418L7.94031 6.91512Z" fill="white"/>
</svg>
