<svg width="16" height="16" viewBox="0 0 16 16" fill="none" xmlns="http://www.w3.org/2000/svg">
<g clip-path="url(#clip0_944_13687)">
<path d="M8.864 0.0460232C7.908 -0.192977 7.02 0.530023 6.956 1.46602C6.884 2.51702 6.726 3.48202 6.528 4.05602C6.403 4.41602 6.049 5.06902 5.488 5.69502C4.931 6.31802 4.206 6.87302 3.357 7.10502C2.685 7.28802 2 7.87002 2 8.72002V12.721C2 13.566 2.682 14.185 3.448 14.266C4.518 14.38 5.012 14.681 5.516 14.989L5.564 15.019C5.836 15.184 6.142 15.367 6.534 15.503C6.931 15.639 7.395 15.72 8 15.72H11.5C12.437 15.72 13.099 15.243 13.434 14.656C13.5959 14.379 13.6834 14.0648 13.688 13.744C13.688 13.592 13.665 13.432 13.611 13.28C13.812 13.017 13.991 12.702 14.099 12.379C14.209 12.049 14.271 11.617 14.103 11.23C14.172 11.1 14.223 10.961 14.262 10.827C14.339 10.557 14.375 10.259 14.375 9.97002C14.375 9.68202 14.339 9.38502 14.262 9.11402C14.227 8.98944 14.1808 8.86828 14.124 8.75202C14.2991 8.5029 14.4118 8.21533 14.4525 7.91356C14.4932 7.61179 14.4608 7.30465 14.358 7.01802C14.152 6.42602 13.676 5.91802 13.158 5.74602C12.311 5.46402 11.355 5.47002 10.642 5.53502C10.494 5.54834 10.3463 5.56501 10.199 5.58502C10.5459 4.09941 10.5246 2.55154 10.137 1.07602C10.0696 0.839612 9.9402 0.625508 9.76228 0.455853C9.58436 0.286197 9.36435 0.16715 9.125 0.111023L8.864 0.0460232Z" fill="#F63E5E"/>
</g>
<defs>
<clipPath id="clip0_944_13687">
<rect width="16" height="16" fill="white"/>
</clipPath>
</defs>
</svg>
