<svg width="24" height="24" viewBox="0 0 24 24" fill="none" xmlns="http://www.w3.org/2000/svg">
<g filter="url(#filter0_d_944_13708)">
<path d="M12 15C10.1435 15 8.36301 14.2625 7.05025 12.9497C5.7375 11.637 5 9.85652 5 8C5 6.14348 5.7375 4.36301 7.05025 3.05025C8.36301 1.7375 10.1435 1 12 1C13.8565 1 15.637 1.7375 16.9497 3.05025C18.2625 4.36301 19 6.14348 19 8C19 9.85652 18.2625 11.637 16.9497 12.9497C15.637 14.2625 13.8565 15 12 15ZM12 16C14.1217 16 16.1566 15.1571 17.6569 13.6569C19.1571 12.1566 20 10.1217 20 8C20 5.87827 19.1571 3.84344 17.6569 2.34315C16.1566 0.842855 14.1217 0 12 0C9.87827 0 7.84344 0.842855 6.34315 2.34315C4.84285 3.84344 4 5.87827 4 8C4 10.1217 4.84285 12.1566 6.34315 13.6569C7.84344 15.1571 9.87827 16 12 16Z" fill="#FFFBFB"/>
<path d="M10.3333 11.3334C10.7917 11.3334 11.1667 10.9584 11.1667 10.5V5.50002C11.1667 5.04169 10.7917 4.66669 10.3333 4.66669C9.875 4.66669 9.5 5.04169 9.5 5.50002V10.5C9.5 10.9584 9.875 11.3334 10.3333 11.3334ZM13.6667 11.3334C14.125 11.3334 14.5 10.9584 14.5 10.5V5.50002C14.5 5.04169 14.125 4.66669 13.6667 4.66669C13.2083 4.66669 12.8333 5.04169 12.8333 5.50002V10.5C12.8333 10.9584 13.2083 11.3334 13.6667 11.3334Z" fill="white"/>
<path d="M10.3333 11.3334C10.7917 11.3334 11.1667 10.9584 11.1667 10.5V5.50002C11.1667 5.04169 10.7917 4.66669 10.3333 4.66669C9.875 4.66669 9.5 5.04169 9.5 5.50002V10.5C9.5 10.9584 9.875 11.3334 10.3333 11.3334ZM13.6667 11.3334C14.125 11.3334 14.5 10.9584 14.5 10.5V5.50002C14.5 5.04169 14.125 4.66669 13.6667 4.66669C13.2083 4.66669 12.8333 5.04169 12.8333 5.50002V10.5C12.8333 10.9584 13.2083 11.3334 13.6667 11.3334Z" fill="white"/>
</g>
<defs>
<filter id="filter0_d_944_13708" x="0" y="0" width="24" height="24" filterUnits="userSpaceOnUse" color-interpolation-filters="sRGB">
<feFlood flood-opacity="0" result="BackgroundImageFix"/>
<feColorMatrix in="SourceAlpha" type="matrix" values="0 0 0 0 0 0 0 0 0 0 0 0 0 0 0 0 0 0 127 0" result="hardAlpha"/>
<feOffset dy="4"/>
<feGaussianBlur stdDeviation="2"/>
<feComposite in2="hardAlpha" operator="out"/>
<feColorMatrix type="matrix" values="0 0 0 0 0 0 0 0 0 0 0 0 0 0 0 0 0 0 0.25 0"/>
<feBlend mode="normal" in2="BackgroundImageFix" result="effect1_dropShadow_944_13708"/>
<feBlend mode="normal" in="SourceGraphic" in2="effect1_dropShadow_944_13708" result="shape"/>
</filter>
</defs>
</svg>
