<svg width="60" height="60" viewBox="0 0 60 60" fill="none" xmlns="http://www.w3.org/2000/svg">
<path d="M13.3501 5.29711e-05C11.5955 -0.00489638 9.85731 0.337033 8.23538 1.00618C6.61345 1.67533 5.13979 2.65849 3.89914 3.89914C2.65849 5.13979 1.67533 6.61345 1.00618 8.23538C0.337033 9.85731 -0.00489638 11.5955 5.29711e-05 13.3501V46.6501C-0.00489638 48.4046 0.337033 50.1428 1.00618 51.7647C1.67533 53.3867 2.65849 54.8603 3.89914 56.101C5.13979 57.3416 6.61345 58.3248 8.23538 58.9939C9.85731 59.6631 11.5955 60.005 13.3501 60.0001H46.6501C48.4046 60.005 50.1428 59.6631 51.7647 58.9939C53.3867 58.3248 54.8603 57.3416 56.101 56.101C57.3416 54.8603 58.3248 53.3867 58.9939 51.7647C59.6631 50.1428 60.005 48.4046 60.0001 46.6501V13.3501C60.005 11.5955 59.6631 9.85731 58.9939 8.23538C58.3248 6.61345 57.3416 5.13979 56.101 3.89914C54.8603 2.65849 53.3867 1.67533 51.7647 1.00618C50.1428 0.337033 48.4046 -0.00489638 46.6501 5.29711e-05H13.3501ZM29.6569 6.41443C35.4976 6.41443 40.7794 8.67193 44.8051 12.8888C47.8632 16.0632 49.5807 19.4307 50.4601 23.8669C50.7619 25.3426 50.7619 29.3644 50.4769 31.0238C49.5432 36.3002 46.6525 41.0297 42.3826 44.2669C40.8601 45.4201 37.1382 47.4226 36.5419 47.4226C36.3169 47.4226 36.3001 47.1976 36.3976 46.2694C36.5832 44.7844 36.7576 44.4826 37.5976 44.1301C38.9344 43.5751 41.2201 41.9419 42.6169 40.5469C45.0591 38.1055 46.7937 35.0476 47.6363 31.6988C48.1632 29.6363 48.0938 25.0557 47.5182 22.9388C45.7013 16.1982 40.1926 10.9669 33.4557 9.5588C31.5038 9.15943 27.9376 9.15943 25.9557 9.5588C19.1382 10.9669 13.4926 16.4644 11.7751 23.3794C11.3157 25.2619 11.3157 29.8444 11.7751 31.7194C12.9169 36.3001 15.8776 40.4963 19.7532 42.9976C20.5163 43.5057 21.4332 44.0232 21.8157 44.1807C22.6538 44.5407 22.8413 44.8463 22.9951 46.3182C23.0926 47.2276 23.0719 47.4807 22.8601 47.4807C22.7232 47.4807 21.6976 47.0401 20.6119 46.5226L20.5144 46.4457C14.3326 43.4082 10.3763 38.2632 8.93255 31.4157C8.58193 29.6476 8.51255 25.4401 8.86505 23.8182C9.76318 19.4626 11.4826 16.0651 14.3419 13.0576C18.4651 8.70943 23.7676 6.41443 29.6644 6.41443H29.6569ZM30.0001 13.4476C30.927 13.4453 31.852 13.5333 32.7619 13.7101C39.7276 15.2626 44.6569 22.2282 43.6988 29.1394C43.3182 31.9313 42.3619 34.2188 40.6632 36.3469C39.8232 37.4213 37.7813 39.2194 37.4213 39.2194C37.3613 39.2194 37.3032 38.5351 37.3032 37.7138V36.1988L38.3382 34.9594C42.2626 30.2626 41.9813 23.7001 37.7026 19.4044C36.0432 17.7244 34.1176 16.7363 31.6369 16.2901C30.0376 15.9882 29.7038 15.9882 28.0238 16.2694C25.4663 16.6801 23.4919 17.6644 21.7332 19.4044C17.4376 23.6626 17.1526 30.2626 21.0807 34.9594L22.1157 36.1988V37.7232C22.1157 38.5632 22.0463 39.2363 21.9582 39.2363C21.8907 39.2363 21.3038 38.8369 20.6776 38.3382L20.5894 38.3082C18.5101 36.6488 16.6744 33.7088 15.9113 30.8176C15.4538 29.0701 15.4538 25.7607 15.9319 24.0207C17.1919 19.3238 20.6588 15.6807 25.4551 13.9726C26.4807 13.6107 28.2844 13.4157 29.9851 13.4457L30.0001 13.4476ZM29.6682 20.9176C30.4501 20.9176 31.2207 21.0751 31.7888 21.3676C32.9982 22.0032 34.0069 23.2219 34.3857 24.5119C35.5482 28.4569 31.3688 31.9144 27.5776 30.1463H27.5494C25.7626 29.3157 24.8044 27.7538 24.7838 25.7213C24.7838 23.8857 25.7982 22.2938 27.5663 21.3563C28.1232 21.0638 28.8957 20.9157 29.6757 20.9157L29.6682 20.9176ZM29.6476 32.7451C32.1207 32.7357 33.9057 33.6132 34.5694 35.1657C35.0663 36.3282 34.8826 39.9901 34.0219 45.9188C33.4463 50.0588 33.1238 51.1032 32.3251 51.8082C31.2207 52.7832 29.6682 53.0588 28.1832 52.5301H28.1757C26.3888 51.8851 26.0063 51.0151 25.2638 45.9169C24.4163 39.9901 24.2288 36.3263 24.7294 35.1638C25.3819 33.6207 27.1594 32.7544 29.6494 32.7432L29.6476 32.7451Z" fill="url(#paint0_linear_3667_5584)"/>
<defs>
<linearGradient id="paint0_linear_3667_5584" x1="8.49366e-07" y1="4" x2="57" y2="61" gradientUnits="userSpaceOnUse">
<stop stop-color="#BB6EE7"/>
<stop offset="1" stop-color="#6817B5"/>
</linearGradient>
</defs>
</svg>
