<svg width="61" height="61" viewBox="0 0 61 61" fill="none" xmlns="http://www.w3.org/2000/svg">
<rect x="1.51172" y="2.38892" width="57" height="57" rx="28.5" fill="white"/>
<path d="M26.8545 30.8885V25.3605L31.5928 28.1245L36.3312 30.8885L31.5928 33.6526L26.8545 36.4166V30.8885Z" fill="#174780" stroke="#174780" stroke-width="2.78708" stroke-linejoin="round"/>
<path d="M18.8438 42.0574C20.3088 43.5263 22.0497 44.6911 23.9663 45.485C25.883 46.2789 27.9377 46.6862 30.0122 46.6834C38.7352 46.6834 45.8067 39.6119 45.8067 30.889C45.8067 22.166 38.7352 15.0945 30.0122 15.0945C25.6512 15.0945 21.7026 16.8626 18.8438 19.7205C17.389 21.1754 14.2178 24.7467 14.2178 24.7467" stroke="#174780" stroke-width="3.52164" stroke-linecap="round" stroke-linejoin="round"/>
<path d="M14.2178 17.7261V24.7458H21.2375" stroke="#174780" stroke-width="3.52164" stroke-linecap="round" stroke-linejoin="round"/>
<rect x="1.51172" y="2.38892" width="57" height="57" rx="28.5" stroke="#174780" stroke-width="3"/>
</svg>
