<svg width="26" height="22" viewBox="0 0 26 22" fill="none" xmlns="http://www.w3.org/2000/svg">
<path fill-rule="evenodd" clip-rule="evenodd" d="M9.64958 2.4063C9.64958 1.77432 9.26889 1.20458 8.68502 0.962734C8.10115 0.720889 7.42909 0.85457 6.98222 1.30144L1.25306 7.03061C0.948554 7.33511 0.796007 7.73402 0.79541 8.13312V8.13546V8.13781C0.795722 8.34881 0.837857 8.55001 0.913971 8.73356C0.99022 8.91785 1.10325 9.09051 1.25306 9.24032L6.98222 14.9695C7.42909 15.4164 8.10115 15.55 8.68502 15.3082C9.26889 15.0663 9.64958 14.4966 9.64958 13.8646V9.69796H18.1131C19.2182 9.69796 20.278 10.137 21.0594 10.9184C21.8408 11.6998 22.2798 12.7596 22.2798 13.8646C22.2798 14.9697 21.8408 16.0295 21.0594 16.8109C20.278 17.5923 19.2182 18.0313 18.1131 18.0313H16.6808C15.8179 18.0313 15.1183 18.7309 15.1183 19.5938C15.1183 20.4567 15.8179 21.1563 16.6808 21.1563H18.1131C20.047 21.1563 21.9017 20.3881 23.2691 19.0206C24.6366 17.6532 25.4048 15.7985 25.4048 13.8646C25.4048 11.9308 24.6366 10.0761 23.2691 8.70864C21.9017 7.34119 20.047 6.57296 18.1131 6.57296H9.64958V2.4063Z" fill="white" fill-opacity="0.6"/>
</svg>
