<?xml version="1.0" encoding="utf-8"?>
<!-- Generator: Adobe Illustrator 23.0.0, SVG Export Plug-In . SVG Version: 6.00 Build 0)  -->
<svg version="1.1" id="圖層_1" xmlns="http://www.w3.org/2000/svg" xmlns:xlink="http://www.w3.org/1999/xlink" x="0px" y="0px"
	 viewBox="0 0 35 35" style="enable-background:new 0 0 35 35;" xml:space="preserve">
<style type="text/css">
	.st0{fill:none;stroke:#C4C4C4;stroke-width:1.5;stroke-linecap:round;stroke-linejoin:round;}
	.st1{fill:#C4C4C4;}
</style>
<path class="st0" d="M23.8,12c0,0,0.8,1.7,0,3.8"/>
<path class="st0" d="M26.5,10.5c0,0,1.7,3,0,6.8"/>
<path class="st1" d="M23.9,26.8c0-2.1-0.9-4.2-2.4-5.7c-1.5-1.5-3.6-2.4-5.7-2.4c-2.1,0-4.2,0.9-5.7,2.4c-1.5,1.5-2.4,3.6-2.4,5.7
	H23.9z"/>
<path class="st1" d="M21.1,13.5c0,2.9-2.3,5.2-5.2,5.2s-5.2-2.3-5.2-5.2s2.3-5.2,5.2-5.2S21.1,10.6,21.1,13.5z"/>
<path class="st1" d="M17.5,33.2c-8.7,0-15.7-7-15.7-15.7H0C0,27.2,7.8,35,17.5,35V33.2z M33.2,17.5c0,8.7-7,15.7-15.7,15.7V35
	C27.2,35,35,27.2,35,17.5H33.2z M17.5,1.8c8.7,0,15.7,7,15.7,15.7H35C35,7.8,27.2,0,17.5,0V1.8z M17.5,0C7.8,0,0,7.8,0,17.5h1.8
	c0-8.7,7-15.7,15.7-15.7V0z"/>
</svg>
