<?xml version="1.0" encoding="utf-8"?>
<!-- Generator: Adobe Illustrator 23.0.0, SVG Export Plug-In . SVG Version: 6.00 Build 0)  -->
<svg version="1.1" id="圖層_1" xmlns="http://www.w3.org/2000/svg" xmlns:xlink="http://www.w3.org/1999/xlink" x="0px" y="0px"
	 viewBox="0 0 35 35" style="enable-background:new 0 0 35 35;" xml:space="preserve">
<style type="text/css">
	.st0{fill:#FFFFFF;}
	.st1{fill:#174780;}
	.st2{fill:#5CA7FF;}
</style>
<path class="st0" d="M0.9,17.5c0-9.2,7.4-16.6,16.6-16.6c9.2,0,16.6,7.4,16.6,16.6c0,9.2-7.4,16.6-16.6,16.6
	C8.3,34.1,0.9,26.7,0.9,17.5z"/>
<path class="st1" d="M6.8,17.5l5.3,4.3v-3.2h9.6v-2.1h-9.6v-3.2L6.8,17.5z"/>
<path class="st1" d="M17.8,7.9c-1.3,0-2.5,0.2-3.7,0.7c-1.2,0.5-2.2,1.2-3.1,2.1l1.5,1.5c1.4-1.4,3.3-2.2,5.3-2.2
	c2,0,3.9,0.8,5.3,2.2c1.4,1.4,2.2,3.3,2.2,5.3c0,2-0.8,3.9-2.2,5.3c-1.4,1.4-3.3,2.2-5.3,2.2c-2,0-3.9-0.8-5.3-2.2L11,24.3
	c1.8,1.8,4.2,2.8,6.8,2.8c2.6,0,5-1,6.8-2.8c1.8-1.8,2.8-4.2,2.8-6.8c0-2.6-1-5-2.8-6.8c-0.9-0.9-1.9-1.6-3.1-2.1
	C20.3,8.1,19,7.9,17.8,7.9z"/>
<path class="st2" d="M17.5,33.2c-8.7,0-15.7-7-15.7-15.7H0C0,27.2,7.8,35,17.5,35V33.2z M33.2,17.5c0,8.7-7,15.7-15.7,15.7V35
	C27.2,35,35,27.2,35,17.5H33.2z M17.5,1.8c8.7,0,15.7,7,15.7,15.7H35C35,7.8,27.2,0,17.5,0V1.8z M17.5,0C7.8,0,0,7.8,0,17.5h1.8
	c0-8.7,7-15.7,15.7-15.7V0z"/>
</svg>
