<svg width="71" height="21" viewBox="0 0 71 21" fill="none" xmlns="http://www.w3.org/2000/svg">
<path d="M0 0.84405H7.8452V4.06082H3.64304V8.37048H7.60629V11.5861H3.64304V19.7562H0.000468737L0 0.84405Z" fill="white"/>
<path d="M18.4055 15.0245C18.4055 17.5132 18.4055 18.9235 18.4438 19.7562H14.9442C14.8742 19.3262 14.833 18.892 14.8208 18.4565C14.5585 18.967 14.1486 19.3866 13.6443 19.6606C13.14 19.9345 12.5649 20.0502 11.9939 19.9925C10.5263 19.9925 9.02622 19.2836 9.02622 16.1389V4.83045H12.6676V15.2771C12.6676 16.3145 12.9666 16.8405 13.6693 16.8405C14.4746 16.8405 14.7641 16.3145 14.7641 14.8917V4.83045H18.4055V15.0245Z" fill="white"/>
<path d="M20.5102 9.30387C20.5102 6.63744 20.4998 5.38127 20.4722 4.83045H23.9624C24.0295 5.24868 24.0707 5.67065 24.0859 6.09395C24.3677 5.61183 24.7775 5.21725 25.27 4.95407C25.7625 4.69089 26.3183 4.56941 26.8757 4.60313C28.8777 4.60313 29.9264 5.88624 29.9264 8.48343V19.7562H26.285V9.24739C26.285 8.2313 25.97 7.75539 25.2939 7.75539C24.4702 7.75539 24.1516 8.21476 24.1516 9.69164V19.7562H20.5102V9.30387Z" fill="white"/>
<path d="M32.654 4.06082H29.8999V0.84405H39.0578V4.06082H36.2862V19.7562H32.654V4.06082Z" fill="white"/>
<path d="M48.4625 15.0245C48.4625 17.5132 48.4626 18.9235 48.5006 19.7562H45.001C44.931 19.3262 44.8898 18.892 44.8776 18.4565C44.6154 18.967 44.2054 19.3866 43.7011 19.6606C43.1969 19.9346 42.6217 20.0502 42.0508 19.9925C40.5831 19.9925 39.083 19.2836 39.083 16.1389V4.83045H42.7247V15.2771C42.7247 16.3145 43.0234 16.8405 43.7261 16.8405C44.5314 16.8405 44.8211 16.3145 44.8211 14.8917V4.83045H48.4625V15.0245Z" fill="white"/>
<path d="M50.5682 0.0141602H54.2096V6.05827C54.4752 5.59629 54.8627 5.21621 55.3297 4.95957C55.7967 4.70294 56.3253 4.57963 56.8576 4.60313C59.0973 4.60313 59.9846 6.30733 59.9846 9.03968V14.459C59.9846 17.6772 59.448 19.9927 56.5185 19.9927C56.0007 20.0312 55.4839 19.9047 55.0424 19.6313C54.6009 19.3579 54.2573 18.9517 54.061 18.4709C54.0426 18.9889 54.0033 19.4079 53.9573 19.7562H50.5385C50.5857 18.8582 50.5673 17.2247 50.5673 16.0363L50.5682 0.0141602ZM56.343 14.8751V9.65005C56.343 8.52502 56.2128 7.75539 55.3311 7.75539C54.4414 7.75539 54.2096 8.42128 54.2096 9.72968V14.9484C54.2096 16.3225 54.5582 16.8416 55.2862 16.8416C55.9091 16.8405 56.343 16.352 56.343 14.8751Z" fill="white"/>
<path d="M65.1906 13.2267V15.4028C65.1906 16.3629 65.4155 17.0597 66.2369 17.0597C67.123 17.0597 67.2766 16.3085 67.2766 15.3544V15.0193H70.8039V15.2249C70.8982 15.8539 70.8474 16.4962 70.6553 17.1026C70.4632 17.709 70.135 18.2635 69.6957 18.7235C69.2565 19.1836 68.7178 19.5371 68.1209 19.757C67.524 19.9769 66.8848 20.0574 66.252 19.9922C62.4121 19.9922 61.5836 17.8128 61.5836 14.7464V9.68951C61.5004 9.03645 61.5608 8.37309 61.7605 7.74579C61.9603 7.11849 62.2947 6.5424 62.7403 6.05778C63.1859 5.57315 63.732 5.1917 64.3403 4.94007C64.9487 4.68845 65.6047 4.57273 66.2624 4.601C69.4052 4.601 70.8488 6.47842 70.8488 9.67084V13.2246L65.1906 13.2267ZM67.3409 10.6411V9.17461C67.3409 8.02312 67.0907 7.49687 66.2853 7.49687C65.5918 7.49687 65.2099 7.99641 65.2099 9.17461V10.6411H67.3409Z" fill="white"/>
</svg>
