<svg width="632" height="81" viewBox="0 0 632 81" fill="none" xmlns="http://www.w3.org/2000/svg">
<rect width="632" height="81" rx="40.5" fill="url(#paint0_linear_4377_22449)"/>
<path d="M93.2461 45.128V53.444C93.2461 57.296 94.3261 58.556 98.6821 58.556C99.5101 58.556 102.678 58.556 103.578 58.556C107.142 58.556 108.294 57.116 108.762 51.752C107.538 51.5 105.702 50.816 104.802 50.132C104.658 54.092 104.442 54.74 103.182 54.74C102.426 54.74 99.9421 54.74 99.3301 54.74C97.9621 54.74 97.7461 54.596 97.7461 53.372V45.128H93.2461ZM84.8221 25.256C82.9141 28.892 79.4581 33.14 74.6701 36.344C75.6421 37.028 77.0461 38.54 77.6941 39.548C82.9861 35.66 86.7301 30.944 89.5021 26.192L84.8221 25.256ZM83.1661 38.252H101.238V42.896H83.1661V38.252ZM78.8461 34.436V46.748H105.81V34.436H78.8461ZM94.7581 27.812V28.604C94.0021 30.368 92.0941 33.284 90.4021 35.048C91.3741 35.588 92.8141 36.524 93.6781 37.172C95.6221 35.192 98.0341 31.988 99.4381 29.54L96.4501 27.632L95.7301 27.812H94.7581ZM85.3621 27.812L83.2381 31.304H96.0541V27.812H85.3621ZM89.8621 37.028C89.2141 45.02 88.4581 52.004 75.2461 55.352C76.2181 56.252 77.2621 57.872 77.6941 58.988C91.9501 54.992 93.6421 46.604 94.4341 37.028H89.8621ZM116.286 30.98V33.536H141.63V27.02H113.694V29.576H137.706V30.98H116.286ZM115.026 30.98C114.81 33.176 114.378 35.768 113.946 37.64H117.726C118.122 35.84 118.518 33.284 118.806 30.98H115.026ZM115.602 35.084L114.81 37.64H141.27V35.084H115.602ZM139.902 35.084V35.516C139.794 37.424 139.65 38.252 139.434 38.54C139.218 38.792 139.002 38.792 138.678 38.792C138.282 38.828 137.526 38.792 136.662 38.684C137.022 39.404 137.346 40.52 137.382 41.24C138.786 41.348 140.118 41.348 140.802 41.276C141.594 41.204 142.35 40.952 142.89 40.412C143.502 39.728 143.718 38.468 143.898 36.2C143.898 35.804 143.934 35.084 143.934 35.084H139.902ZM121.902 25.436V32.78C121.902 36.344 120.606 38.936 111.354 40.16C112.074 40.916 113.046 42.536 113.406 43.472C124.098 41.888 125.826 38 125.826 32.888V25.436H121.902ZM129.858 25.436V39.944H133.962V25.436H129.858ZM120.282 46.028H135.834V47.504H120.282V46.028ZM120.282 49.808H135.834V51.284H120.282V49.808ZM120.282 42.284H135.834V43.724H120.282V42.284ZM116.106 39.836V53.732H140.226V39.836H116.106ZM130.65 55.1C134.538 56.396 138.606 58.088 140.946 59.312L144.078 56.72C141.45 55.532 137.022 53.912 133.062 52.688L130.65 55.1ZM121.974 53.192C119.526 54.488 115.242 55.568 111.426 56.216C112.362 56.936 113.838 58.484 114.558 59.312C118.23 58.376 122.874 56.72 125.826 54.956L121.974 53.192ZM148.902 36.308V39.584H160.242V36.308H148.902ZM148.398 41.492V44.804H160.242V41.492H148.398ZM147.138 30.944V34.436H160.962V30.944H147.138ZM161.898 32.024V36.056H180.078V32.024H161.898ZM161.394 53.84V57.908H180.762V53.84H161.394ZM162.51 42.248V46.244H179.25V42.248H162.51ZM150.846 46.676V49.844H156.246V53.948H150.846V57.152H160.242V46.676H150.846ZM148.974 46.676V58.772H152.862V46.676H148.974ZM168.594 33.824V55.82H172.914V33.824H168.594ZM151.386 27.02C152.358 28.424 153.366 30.332 153.726 31.556L157.218 29.792C156.75 28.568 155.67 26.732 154.626 25.436L151.386 27.02ZM166.542 27.056C167.874 28.82 169.386 31.196 169.962 32.744L173.526 30.656C172.842 29.144 171.258 26.84 169.854 25.22L166.542 27.056ZM186.45 27.452V59.312H190.698V31.7H211.65V27.452H186.45ZM209.346 27.452V54.452C209.346 54.884 209.238 55.064 208.806 55.064C208.446 55.064 207.294 55.064 206.25 54.992C206.826 56.108 207.402 58.052 207.51 59.204C209.598 59.204 211.074 59.096 212.19 58.376C213.342 57.62 213.63 56.432 213.63 54.524V27.452H209.346ZM182.994 40.448V44.66H216.834V40.448H182.994ZM194.082 28.856V58.7H198.078V28.856H194.082ZM201.606 28.856V58.7H205.674V28.856H201.606ZM218.634 43.868L219.714 48.008C223.134 47.108 227.49 45.92 231.594 44.768L231.09 40.88C226.59 41.996 221.838 43.184 218.634 43.868ZM219.174 32.24V36.236H231.162V32.24H219.174ZM223.53 25.436V54.704C223.53 55.208 223.35 55.388 222.846 55.388C222.378 55.388 220.902 55.388 219.498 55.352C220.038 56.432 220.578 58.16 220.686 59.24C223.206 59.24 224.934 59.132 226.122 58.484C227.31 57.836 227.706 56.756 227.706 54.74V25.436H223.53ZM231.99 33.5V59.168H236.094V37.604H247.758V58.952H252.078V33.5H231.99ZM234.582 42.788V46.82H248.946V42.788H234.582ZM234.69 52.436V56.576H249.09V52.436H234.69ZM239.802 25.508V54.956H243.87V25.508H239.802ZM257.19 56H261.942V44.876C261.942 42.356 261.546 38.648 261.258 36.128H261.402L263.562 42.392L267.666 53.624H270.726L274.83 42.392L277.026 36.128H277.206C276.918 38.648 276.486 42.356 276.486 44.876V56H281.346V29.36H275.442L271.014 41.852C270.474 43.508 270.006 45.236 269.394 46.964H269.25C268.674 45.236 268.206 43.508 267.594 41.852L263.058 29.36H257.19V56ZM292.381 56.504C294.685 56.504 296.701 55.388 298.465 53.876H298.609L299.005 56H303.325V44.264C303.325 38.396 300.697 35.372 295.585 35.372C292.381 35.372 289.537 36.56 287.161 38L289.069 41.528C290.905 40.412 292.741 39.62 294.613 39.62C297.097 39.62 297.925 41.096 298.033 43.076C289.933 43.976 286.441 46.244 286.441 50.528C286.441 53.984 288.781 56.504 292.381 56.504ZM294.109 52.364C292.561 52.364 291.481 51.68 291.481 50.132C291.481 48.296 293.101 46.964 298.033 46.352V50.42C296.737 51.68 295.621 52.364 294.109 52.364ZM308.719 56H314.011V44.012C315.127 41.096 317.035 40.016 318.583 40.016C319.447 40.016 319.987 40.16 320.707 40.34L321.607 35.804C320.995 35.516 320.347 35.372 319.267 35.372C317.179 35.372 314.983 36.776 313.543 39.44H313.435L313.003 35.876H308.719V56ZM329.702 56.504C334.922 56.504 337.694 53.696 337.694 50.132C337.694 46.424 334.778 45.056 332.114 44.048C329.954 43.292 328.118 42.716 328.118 41.276C328.118 40.088 328.946 39.296 330.782 39.296C332.258 39.296 333.698 40.016 335.102 41.024L337.514 37.856C335.858 36.56 333.554 35.372 330.638 35.372C326.03 35.372 323.15 37.928 323.15 41.492C323.15 44.912 325.994 46.424 328.55 47.432C330.638 48.224 332.762 48.944 332.762 50.42C332.762 51.68 331.826 52.58 329.81 52.58C327.938 52.58 326.246 51.752 324.41 50.348L322.034 53.696C324.014 55.352 327.002 56.504 329.702 56.504ZM341.766 56H347.058V42.14C348.534 40.7 349.578 39.908 351.234 39.908C353.178 39.908 354.078 40.952 354.078 44.12V56H359.37V43.436C359.37 38.396 357.462 35.372 353.142 35.372C350.406 35.372 348.39 36.812 346.806 38.324L347.058 34.544V27.308H341.766V56ZM369.725 56.504C372.029 56.504 374.045 55.388 375.809 53.876H375.953L376.349 56H380.669V44.264C380.669 38.396 378.041 35.372 372.929 35.372C369.725 35.372 366.881 36.56 364.505 38L366.413 41.528C368.249 40.412 370.085 39.62 371.957 39.62C374.441 39.62 375.269 41.096 375.377 43.076C367.277 43.976 363.785 46.244 363.785 50.528C363.785 53.984 366.125 56.504 369.725 56.504ZM371.453 52.364C369.905 52.364 368.825 51.68 368.825 50.132C368.825 48.296 370.445 46.964 375.377 46.352V50.42C374.081 51.68 372.965 52.364 371.453 52.364ZM391.031 56.504C392.291 56.504 393.119 56.288 393.731 56.072L393.083 52.148C392.723 52.22 392.579 52.22 392.399 52.22C391.895 52.22 391.355 51.824 391.355 50.564V27.308H386.063V50.348C386.063 54.092 387.323 56.504 391.031 56.504ZM402.386 56.504C403.646 56.504 404.474 56.288 405.086 56.072L404.438 52.148C404.078 52.22 403.934 52.22 403.754 52.22C403.25 52.22 402.71 51.824 402.71 50.564V27.308H397.418V50.348C397.418 54.092 398.678 56.504 402.386 56.504ZM436.226 35.192V38.792H447.962V35.192H436.226ZM424.598 34.004V38.18H428.162V34.004H424.598ZM424.598 41.384V45.596H428.162V41.384H424.598ZM415.238 54.632V58.16H449.042V54.632H415.238ZM419.45 47.828V56.504H423.446V50.96H426.83V56.504H430.43V50.96H433.85V56.504H437.45V50.96H440.87V56.504H445.082V47.828H419.45ZM436.082 32.312C435.254 35.516 433.634 38.576 431.582 40.592C432.338 41.348 433.598 43.112 434.03 43.904C436.658 41.42 438.71 37.352 439.934 33.212L436.082 32.312ZM419.522 36.704V38.972H428.486V40.448H419.522V42.68H431.906V36.704H419.522ZM432.878 32.852H417.578V46.712H433.022V44.156H421.07V35.408H432.878V32.852ZM415.778 27.272V30.656H431.114V27.272H415.778ZM422.654 25.436V32.204H426.866V25.436H422.654ZM437.486 25.436V32.204H441.698V25.436H437.486ZM432.698 27.236V30.656H448.286V27.236H432.698ZM435.65 42.428V46.064H447.062V42.428H435.65ZM457.538 39.44V43.616H484.07V39.44H457.538ZM454.262 26.876V31.052H482.414V26.876H454.262ZM472.226 28.604V53.984C472.226 54.596 471.974 54.776 471.29 54.812C470.606 54.848 468.41 54.812 466.286 54.74C466.97 55.964 467.69 58.016 467.906 59.312C471.038 59.312 473.234 59.168 474.746 58.412C476.294 57.692 476.798 56.468 476.798 54.02V28.604H472.226ZM469.742 40.988C465.962 46.172 458.546 51.248 451.454 53.696C452.462 54.632 453.83 56.396 454.514 57.512C461.75 54.524 469.058 48.98 473.522 42.68L469.742 40.988ZM457.61 29.648C456.89 34.184 455.63 40.016 454.622 43.616H459.266C460.202 40.196 461.426 34.616 462.29 30.116L457.61 29.648ZM497.678 29.18V32.708H510.17V29.18H497.678ZM501.962 25.58V37.352H505.742V25.58H501.962ZM502.466 36.092V44.768H501.998V59.24H505.706V44.768H505.238V36.092H502.466ZM500.846 38H506.966V43.076H500.846V38ZM498.038 34.94V46.1H509.846V34.94H498.038ZM502.142 44.588C500.81 48.008 498.038 51.968 495.266 54.092C495.878 55.136 496.742 56.756 497.102 57.908C500.27 55.244 503.078 50.168 504.734 45.74L502.142 44.588ZM505.418 46.028L503.222 47.792C504.59 49.232 507.254 52.4 508.37 54.056L510.926 50.96C510.098 50.132 506.534 46.82 505.418 46.028ZM511.25 29.072V49.124H514.526V29.072H511.25ZM516.038 26.012V54.632C516.038 55.172 515.858 55.316 515.354 55.352C514.778 55.352 513.122 55.352 511.322 55.316C511.898 56.36 512.582 58.196 512.726 59.276C515.21 59.276 517.01 59.096 518.198 58.448C519.386 57.764 519.782 56.684 519.782 54.632V26.012H516.038ZM490.262 28.568V32.528H493.646V45.848H490.262V49.808H496.85V28.568H490.262ZM488.39 28.568V53.012H491.63V28.568H488.39ZM526.514 28.568V32.708H532.094V45.992H526.514V50.168H535.802V28.568H526.514ZM524.426 28.568V53.084H528.134V28.568H524.426ZM545.018 26.624V30.98H550.454V26.624H545.018ZM539.186 27.38C539.15 36.416 538.754 49.592 533.966 56.216C534.974 56.9 536.666 58.484 537.386 59.348C542.966 51.896 543.65 37.532 543.902 27.524L539.186 27.38ZM546.638 26.624V28.856H547.358C547.826 40.664 548.798 52.184 552.902 59.42C553.982 58.484 555.998 57.152 557.258 56.504C553.154 50.204 552.038 38.396 551.642 26.624H546.638Z" fill="white"/>
<defs>
<linearGradient id="paint0_linear_4377_22449" x1="316" y1="0" x2="316" y2="81" gradientUnits="userSpaceOnUse">
<stop stop-color="#3D7DD2"/>
<stop offset="1" stop-color="#1B4384"/>
</linearGradient>
</defs>
</svg>
