<svg width="71" height="71" viewBox="0 0 71 71" fill="none" xmlns="http://www.w3.org/2000/svg">
<rect x="0.834961" y="0.982178" width="70" height="70" rx="35" fill="#006CAC"/>
<path d="M23.219 26.9269C25.2006 26.9269 26.8071 25.3723 26.8071 23.4545C26.8071 21.5368 25.2006 19.9822 23.219 19.9822C21.2373 19.9822 19.6309 21.5368 19.6309 23.4545C19.6309 25.3723 21.2373 26.9269 23.219 26.9269Z" fill="white"/>
<path d="M26.5756 51.9822H19.6309V28.8331H26.5756V51.9822ZM52.0396 51.9822H45.0949V39.616C45.0949 36.3936 43.9467 34.7894 41.6711 34.7894C39.8678 34.7894 38.7242 35.6876 38.1501 37.4863V51.9822H31.2054C31.2054 51.9822 31.298 31.148 31.2054 28.8331H36.6871L37.1108 33.463H37.2543C38.6779 31.148 40.9535 29.5785 44.074 29.5785C46.4468 29.5785 48.3658 30.2383 49.8312 31.8958C51.3058 33.5555 52.0396 35.7825 52.0396 38.9099V51.9822Z" fill="white"/>
</svg>
