<svg width="26" height="25" viewBox="0 0 26 25" fill="none" xmlns="http://www.w3.org/2000/svg">
<rect x="5.30273" y="3" width="14" height="20.4" fill="white"/>
<path d="M21.3965 1.5625H4.20898C3.58738 1.5625 2.99124 1.80943 2.5517 2.24897C2.11216 2.68851 1.86523 3.28465 1.86523 3.90625L1.86523 21.0938C1.86523 21.7154 2.11216 22.3115 2.5517 22.751C2.99124 23.1906 3.58738 23.4375 4.20898 23.4375H10.9106V16.0005H7.83447V12.5H10.9106V9.83203C10.9106 6.79736 12.7173 5.12109 15.4844 5.12109C16.8096 5.12109 18.1953 5.35742 18.1953 5.35742V8.33594H16.6685C15.1641 8.33594 14.6948 9.26953 14.6948 10.2271V12.5H18.0532L17.5161 16.0005H14.6948V23.4375H21.3965C22.0181 23.4375 22.6142 23.1906 23.0538 22.751C23.4933 22.3115 23.7402 21.7154 23.7402 21.0938V3.90625C23.7402 3.28465 23.4933 2.68851 23.0538 2.24897C22.6142 1.80943 22.0181 1.5625 21.3965 1.5625Z" fill="#3351A0"/>
</svg>
