<svg width="20" height="20" viewBox="0 0 20 20" fill="none" xmlns="http://www.w3.org/2000/svg">
<path d="M10.5587 17.2833L10.0003 17.7917L8.79199 16.6917C4.50033 12.8 1.66699 10.225 1.66699 7.08333C1.66699 4.50833 3.68366 2.5 6.25033 2.5C7.70033 2.5 9.09199 3.175 10.0003 4.23333C10.9087 3.175 12.3003 2.5 13.7503 2.5C16.317 2.5 18.3337 4.50833 18.3337 7.08333C18.3337 8.275 17.917 9.38333 17.1837 10.5083C16.667 10.2583 16.092 10.0917 15.492 10.0333C16.2503 9 16.667 8.04167 16.667 7.08333C16.667 5.41667 15.417 4.16667 13.7503 4.16667C12.467 4.16667 11.217 5 10.7753 6.13333H9.22533C8.78366 5 7.53366 4.16667 6.25033 4.16667C4.58366 4.16667 3.33366 5.41667 3.33366 7.08333C3.33366 9.49167 5.95033 11.8667 9.90866 15.4583L10.0003 15.5417L10.0337 15.5083C10.1003 16.1417 10.2837 16.7417 10.5587 17.2833V17.2833ZM14.167 11.6667V14.1667H11.667V15.8333H14.167V18.3333H15.8337V15.8333H18.3337V14.1667H15.8337V11.6667H14.167Z" fill="white"/>
</svg>
