<svg width="184" height="243" viewBox="0 0 184 243" fill="none" xmlns="http://www.w3.org/2000/svg">
<path d="M152 72.4768C152 105.614 125.137 132.477 92 132.477C58.8629 132.477 32 105.614 32 72.4768C32 39.3397 58.8629 12.4768 92 12.4768C125.137 12.4768 152 39.3397 152 72.4768Z" stroke="#6A6A6A" stroke-width="5"/>
<path d="M138.38 110.54C129.574 121.271 117.32 128.616 103.705 131.324C90.0907 134.032 75.9584 131.936 63.7162 125.392C51.474 118.848 41.8794 108.262 36.5672 95.4378C31.2551 82.6131 30.5541 68.3433 34.5836 55.0598C38.6131 41.7762 47.1239 30.3007 58.6658 22.5887C70.2076 14.8767 84.0665 11.4052 97.8809 12.7658" stroke="#B6B3B3" stroke-width="5" stroke-linecap="round"/>
<g opacity="0.7">
<path d="M92 110.977C70.825 110.977 53.5 93.6518 53.5 72.4768C53.5 51.3018 70.825 33.9768 92 33.9768C100.663 33.9768 108.913 36.8643 115.65 42.0893C116.888 43.0518 117.025 44.7018 116.062 45.9393C115.1 47.1768 113.45 47.3143 112.213 46.3518C106.438 41.9518 99.425 39.4768 92 39.4768C73.85 39.4768 59 54.3268 59 72.4768C59 90.6268 73.85 105.477 92 105.477C99.425 105.477 106.437 103.002 112.35 98.4643C113.587 97.5018 115.237 97.7768 116.2 98.8768C117.162 99.9768 116.887 101.764 115.787 102.727C108.912 108.089 100.663 110.977 92 110.977V110.977ZM111.25 75.2268H92C90.4875 75.2268 89.25 73.9893 89.25 72.4768V47.7268C89.25 46.2143 90.4875 44.9768 92 44.9768C93.5125 44.9768 94.75 46.2143 94.75 47.7268V69.7268H111.25C112.763 69.7268 114 70.9643 114 72.4768C114 73.9893 112.763 75.2268 111.25 75.2268ZM133.25 75.2268H127.75C126.237 75.2268 125 73.9893 125 72.4768C125 70.9643 126.237 69.7268 127.75 69.7268H133.25C134.763 69.7268 136 70.9643 136 72.4768C136 73.9893 134.763 75.2268 133.25 75.2268ZM133.25 58.7268H123.625C122.112 58.7268 120.875 57.4893 120.875 55.9768C120.875 54.4643 122.112 53.2268 123.625 53.2268H133.25C134.763 53.2268 136 54.4643 136 55.9768C136 57.4893 134.763 58.7268 133.25 58.7268ZM133.25 91.7268H123.625C122.112 91.7268 120.875 90.4893 120.875 88.9768C120.875 87.4643 122.112 86.2268 123.625 86.2268H133.25C134.763 86.2268 136 87.4643 136 88.9768C136 90.4893 134.763 91.7268 133.25 91.7268Z" fill="white"/>
</g>
<path opacity="0.7" d="M25.5449 174.22H16.292V169.362H25.5449C27.1562 169.362 28.4583 169.101 29.4512 168.58C30.444 168.059 31.1683 167.343 31.624 166.432C32.096 165.504 32.332 164.446 32.332 163.258C32.332 162.135 32.096 161.085 31.624 160.109C31.1683 159.116 30.444 158.318 29.4512 157.716C28.4583 157.114 27.1562 156.813 25.5449 156.813H18.1719V187.477H12.0439V151.93H25.5449C28.2956 151.93 30.6312 152.418 32.5518 153.395C34.4886 154.355 35.9616 155.69 36.9707 157.399C37.9798 159.091 38.4844 161.028 38.4844 163.209C38.4844 165.504 37.9798 167.474 36.9707 169.117C35.9616 170.761 34.4886 172.023 32.5518 172.902C30.6312 173.781 28.2956 174.22 25.5449 174.22ZM57.9912 182.179V169.581C57.9912 168.637 57.8203 167.823 57.4785 167.14C57.1367 166.456 56.6159 165.927 55.916 165.553C55.2324 165.179 54.3698 164.991 53.3281 164.991C52.3678 164.991 51.5378 165.154 50.8379 165.48C50.138 165.805 49.5928 166.245 49.2021 166.798C48.8115 167.351 48.6162 167.978 48.6162 168.678H42.7568C42.7568 167.636 43.0091 166.627 43.5137 165.651C44.0182 164.674 44.7507 163.803 45.7109 163.038C46.6712 162.273 47.8187 161.671 49.1533 161.232C50.488 160.792 51.9854 160.573 53.6455 160.573C55.6312 160.573 57.389 160.906 58.9189 161.573C60.4652 162.241 61.6777 163.25 62.5566 164.601C63.4518 165.935 63.8994 167.612 63.8994 169.63V181.373C63.8994 182.578 63.9808 183.66 64.1436 184.62C64.3226 185.564 64.5749 186.386 64.9004 187.086V187.477H58.8701C58.5934 186.842 58.3737 186.036 58.2109 185.06C58.0645 184.067 57.9912 183.107 57.9912 182.179ZM58.8457 171.412L58.8945 175.05H54.6709C53.5804 175.05 52.6201 175.156 51.79 175.367C50.96 175.563 50.2682 175.856 49.7148 176.246C49.1615 176.637 48.7464 177.109 48.4697 177.662C48.193 178.216 48.0547 178.842 48.0547 179.542C48.0547 180.242 48.2174 180.885 48.543 181.471C48.8685 182.041 49.3405 182.488 49.959 182.814C50.5938 183.139 51.3587 183.302 52.2539 183.302C53.4583 183.302 54.5081 183.058 55.4033 182.57C56.3148 182.065 57.0309 181.455 57.5518 180.739C58.0726 180.006 58.3493 179.314 58.3818 178.663L60.2861 181.276C60.0908 181.943 59.7572 182.659 59.2852 183.424C58.8132 184.189 58.1947 184.921 57.4297 185.621C56.681 186.305 55.7777 186.866 54.7197 187.306C53.6781 187.745 52.4736 187.965 51.1064 187.965C49.3812 187.965 47.8431 187.623 46.4922 186.94C45.1413 186.24 44.0833 185.304 43.3184 184.132C42.5534 182.944 42.1709 181.601 42.1709 180.104C42.1709 178.704 42.4313 177.467 42.9521 176.393C43.4893 175.302 44.2705 174.391 45.2959 173.658C46.3376 172.926 47.6071 172.373 49.1045 171.998C50.6019 171.608 52.3109 171.412 54.2314 171.412H58.8457ZM85.9453 181.251V161.061H91.8535V187.477H86.2871L85.9453 181.251ZM86.7754 175.758L88.7529 175.709C88.7529 177.483 88.5576 179.119 88.167 180.616C87.7764 182.098 87.1742 183.392 86.3604 184.498C85.5465 185.589 84.5049 186.443 83.2354 187.062C81.9658 187.664 80.444 187.965 78.6699 187.965C77.3841 187.965 76.2041 187.778 75.1299 187.404C74.0557 187.029 73.1279 186.451 72.3467 185.67C71.5817 184.889 70.9876 183.872 70.5645 182.618C70.1413 181.365 69.9297 179.868 69.9297 178.126V161.061H75.8135V178.175C75.8135 179.135 75.9274 179.941 76.1553 180.592C76.3831 181.227 76.6924 181.74 77.083 182.13C77.4736 182.521 77.9294 182.797 78.4502 182.96C78.971 183.123 79.5244 183.204 80.1104 183.204C81.7868 183.204 83.1051 182.879 84.0654 182.228C85.042 181.56 85.7337 180.665 86.1406 179.542C86.5638 178.419 86.7754 177.158 86.7754 175.758ZM112.703 180.323C112.703 179.738 112.557 179.209 112.264 178.737C111.971 178.248 111.409 177.809 110.579 177.418C109.765 177.028 108.561 176.67 106.966 176.344C105.566 176.035 104.28 175.669 103.108 175.245C101.953 174.806 100.96 174.277 100.13 173.658C99.2998 173.04 98.6569 172.308 98.2012 171.461C97.7454 170.615 97.5176 169.638 97.5176 168.531C97.5176 167.457 97.7536 166.44 98.2256 165.48C98.6976 164.519 99.373 163.673 100.252 162.941C101.131 162.208 102.197 161.63 103.45 161.207C104.72 160.784 106.136 160.573 107.698 160.573C109.912 160.573 111.808 160.947 113.387 161.696C114.982 162.428 116.202 163.429 117.049 164.698C117.895 165.952 118.318 167.368 118.318 168.947H112.435C112.435 168.247 112.256 167.596 111.897 166.993C111.556 166.375 111.035 165.878 110.335 165.504C109.635 165.114 108.756 164.918 107.698 164.918C106.689 164.918 105.851 165.081 105.184 165.406C104.533 165.716 104.044 166.123 103.719 166.627C103.41 167.132 103.255 167.685 103.255 168.287C103.255 168.727 103.336 169.126 103.499 169.484C103.678 169.825 103.971 170.143 104.378 170.436C104.785 170.712 105.338 170.973 106.038 171.217C106.754 171.461 107.649 171.697 108.724 171.925C110.742 172.348 112.475 172.893 113.924 173.561C115.389 174.212 116.512 175.058 117.293 176.1C118.074 177.125 118.465 178.427 118.465 180.006C118.465 181.178 118.213 182.252 117.708 183.229C117.22 184.189 116.504 185.027 115.56 185.743C114.616 186.443 113.484 186.989 112.166 187.379C110.864 187.77 109.399 187.965 107.771 187.965C105.379 187.965 103.353 187.542 101.692 186.696C100.032 185.833 98.7708 184.734 97.9082 183.4C97.0618 182.049 96.6387 180.649 96.6387 179.2H102.327C102.392 180.291 102.693 181.162 103.23 181.813C103.784 182.448 104.467 182.911 105.281 183.204C106.111 183.481 106.966 183.619 107.845 183.619C108.903 183.619 109.79 183.481 110.506 183.204C111.222 182.911 111.767 182.521 112.142 182.032C112.516 181.528 112.703 180.958 112.703 180.323ZM135.262 187.965C133.309 187.965 131.543 187.648 129.964 187.013C128.401 186.362 127.067 185.459 125.96 184.303C124.869 183.147 124.031 181.788 123.445 180.226C122.859 178.663 122.566 176.979 122.566 175.172V174.196C122.566 172.128 122.868 170.257 123.47 168.58C124.072 166.904 124.91 165.472 125.984 164.283C127.059 163.079 128.328 162.159 129.793 161.525C131.258 160.89 132.845 160.573 134.554 160.573C136.442 160.573 138.094 160.89 139.51 161.525C140.926 162.159 142.098 163.055 143.025 164.21C143.969 165.35 144.669 166.709 145.125 168.287C145.597 169.866 145.833 171.608 145.833 173.512V176.027H125.423V171.803H140.022V171.339C139.99 170.281 139.778 169.288 139.388 168.361C139.013 167.433 138.436 166.684 137.654 166.115C136.873 165.545 135.831 165.26 134.529 165.26C133.553 165.26 132.682 165.472 131.917 165.895C131.168 166.302 130.542 166.896 130.037 167.677C129.533 168.458 129.142 169.402 128.865 170.509C128.605 171.6 128.475 172.828 128.475 174.196V175.172C128.475 176.328 128.629 177.402 128.938 178.395C129.264 179.371 129.736 180.226 130.354 180.958C130.973 181.691 131.722 182.268 132.601 182.692C133.479 183.099 134.48 183.302 135.604 183.302C137.02 183.302 138.281 183.017 139.388 182.448C140.494 181.878 141.455 181.072 142.269 180.031L145.369 183.033C144.799 183.864 144.059 184.661 143.147 185.426C142.236 186.175 141.121 186.785 139.803 187.257C138.501 187.729 136.987 187.965 135.262 187.965ZM166.536 182.008V149.977H172.444V187.477H167.098L166.536 182.008ZM149.349 174.562V174.049C149.349 172.047 149.585 170.224 150.057 168.58C150.529 166.92 151.212 165.496 152.107 164.308C153.003 163.103 154.093 162.184 155.379 161.549C156.665 160.898 158.113 160.573 159.725 160.573C161.32 160.573 162.719 160.882 163.924 161.5C165.128 162.119 166.154 163.006 167 164.161C167.846 165.301 168.522 166.668 169.026 168.263C169.531 169.842 169.889 171.6 170.101 173.536V175.172C169.889 177.06 169.531 178.785 169.026 180.348C168.522 181.91 167.846 183.261 167 184.401C166.154 185.54 165.12 186.419 163.899 187.037C162.695 187.656 161.287 187.965 159.676 187.965C158.081 187.965 156.64 187.631 155.354 186.964C154.085 186.297 153.003 185.361 152.107 184.156C151.212 182.952 150.529 181.536 150.057 179.908C149.585 178.265 149.349 176.482 149.349 174.562ZM155.232 174.049V174.562C155.232 175.766 155.338 176.889 155.55 177.931C155.778 178.973 156.128 179.892 156.6 180.69C157.072 181.471 157.682 182.089 158.431 182.545C159.196 182.985 160.107 183.204 161.165 183.204C162.5 183.204 163.598 182.911 164.461 182.325C165.324 181.74 165.999 180.95 166.487 179.957C166.992 178.948 167.334 177.825 167.513 176.588V172.169C167.415 171.209 167.212 170.314 166.902 169.484C166.609 168.654 166.211 167.929 165.706 167.311C165.201 166.676 164.575 166.188 163.826 165.846C163.094 165.488 162.223 165.309 161.214 165.309C160.14 165.309 159.228 165.537 158.479 165.992C157.731 166.448 157.112 167.075 156.624 167.872C156.152 168.67 155.802 169.598 155.574 170.656C155.346 171.713 155.232 172.845 155.232 174.049Z" fill="white"/>
<path opacity="0.7" d="M64.52 208.997V210.857H75.53V208.997H64.52ZM48.8 204.137V205.637H62.3V204.137H48.8ZM48.47 214.517V215.987H62V214.517H48.47ZM69.71 209.777V217.907H71.75V209.777H69.71ZM72.92 202.547C70.88 203.327 67.19 204.077 64.1 204.497C64.37 204.947 64.61 205.667 64.73 206.117C68 205.727 71.93 205.007 74.57 204.077L72.92 202.547ZM52.7 218.657V229.907H54.92V220.457H69.02V229.817H71.33V218.657H52.7ZM53.87 222.917V224.537H70.19V222.917H53.87ZM53.87 227.057V228.827H70.1V227.057H53.87ZM51.44 210.617H59.72V212.087H51.44V210.617ZM51.44 208.007H59.72V209.447H51.44V208.007ZM49.67 206.807V213.287H61.52V206.807H49.67ZM54.59 202.277V217.997H56.57V202.277H54.59ZM63.53 203.747V209.027C63.53 211.487 63.11 214.427 60.41 216.707C60.89 216.977 61.55 217.727 61.82 218.237C64.97 215.597 65.54 211.877 65.54 209.117V204.797C65.93 204.737 66.11 204.587 66.14 204.377L63.53 203.747ZM86.42 205.217V207.167H105.65V205.217H86.42ZM94.79 202.397V206.117H97.04V202.397H94.79ZM90.89 210.437H101.06V213.227H90.89V210.437ZM88.73 208.817V214.847H103.34V208.817H88.73ZM85.91 216.587V221.777H87.95V218.387H103.85V221.717H105.92V216.587H85.91ZM89.33 220.427V222.287H102.74V220.427H89.33ZM94.79 220.847V227.417C94.79 227.777 94.67 227.897 94.19 227.897C93.74 227.927 92.12 227.927 90.38 227.867C90.65 228.497 90.98 229.307 91.07 229.937C93.32 229.937 94.85 229.937 95.81 229.607C96.77 229.277 97.01 228.707 97.01 227.477V220.847H94.79ZM84.92 202.397C83.24 206.957 80.42 211.457 77.45 214.367C77.87 214.877 78.5 216.077 78.74 216.587C81.98 213.227 85.07 208.157 87.05 203.057L84.92 202.397ZM81.8 210.137V229.847H83.96V208.037L83.9 208.007L81.8 210.137ZM109.88 207.647V221.927H112.13V209.867H131.72V221.777H134.06V207.647H109.88ZM111.08 217.847V220.037H133.07V217.847H111.08ZM120.74 202.277V229.847H123.08V202.277H120.74Z" fill="white"/>
</svg>
