<?xml version="1.0" encoding="utf-8"?>
<!-- Generator: Adobe Illustrator 26.1.0, SVG Export Plug-In . SVG Version: 6.00 Build 0)  -->
<svg version="1.1" xmlns="http://www.w3.org/2000/svg" xmlns:xlink="http://www.w3.org/1999/xlink" x="0px" y="0px"
	 viewBox="0 0 2000 2000" style="enable-background:new 0 0 2000 2000;" xml:space="preserve">
<style type="text/css">
	.st0{fill:#C64716;}
	.st1{clip-path:url(#SVGID_00000145737374956556803820000018410884493724557203_);}
	.st2{fill:url(#SVGID_00000126312671078862304260000015310611144163737788_);}
	.st3{fill:url(#SVGID_00000010298550140030219580000000639604593156029363_);}
	.st4{fill:url(#SVGID_00000096049513646184274130000012174485113701537184_);}
	.st5{fill:url(#SVGID_00000015348120088623522620000011120621699090316210_);}
	.st6{fill:url(#SVGID_00000114753379690515473440000008278541819992222608_);}
	.st7{fill:#DD5019;}
	.st8{fill:#F4C89D;}
	.st9{fill:#DD916F;}
	.st10{fill:#777777;}
	.st11{fill:#ADADAD;}
	.st12{fill:#FFFFFF;}
	.st13{fill:#534740;}
	.st14{fill:#534741;}
	.st15{fill:none;stroke:#494949;stroke-width:5.28;stroke-miterlimit:10;}
	.st16{fill:#FCD5B6;}
	.st17{fill:#333333;}
	.st18{fill:#1A1A1A;}
	.st19{fill:#F2E5D1;}
	.st20{fill:#2B2B2B;}
</style>
<g id="底色">
</g>
<g id="填色">
</g>
<g id="線稿及物件">
</g>
<g id="圖層_4">
</g>
<g id="圖層_5">
</g>
<g id="圖層_7">
	<rect class="st0" width="2000" height="2000"/>
	<g>
		<defs>
			<rect id="SVGID_1_" x="6.5" y="6.5" width="1987.1" height="1987.1"/>
		</defs>
		<clipPath id="SVGID_00000028297565504066222830000013051603547008002487_">
			<use xlink:href="#SVGID_1_"  style="overflow:visible;"/>
		</clipPath>
		<g style="clip-path:url(#SVGID_00000028297565504066222830000013051603547008002487_);">
			
				<radialGradient id="SVGID_00000065037297769334354450000012164656772098429336_" cx="1000.3176" cy="993.9814" r="1191.9274" gradientUnits="userSpaceOnUse">
				<stop  offset="0" style="stop-color:#FBCC48"/>
				<stop  offset="1" style="stop-color:#D14B17"/>
			</radialGradient>
			<circle style="fill:url(#SVGID_00000065037297769334354450000012164656772098429336_);" cx="1000.3" cy="994" r="1191.9"/>
			
				<radialGradient id="SVGID_00000098926814216604297350000011114561387549320324_" cx="1000.3176" cy="993.9814" r="978.5863" gradientUnits="userSpaceOnUse">
				<stop  offset="0" style="stop-color:#FBCC48"/>
				<stop  offset="1" style="stop-color:#D14B17"/>
			</radialGradient>
			<circle style="fill:url(#SVGID_00000098926814216604297350000011114561387549320324_);" cx="1000.3" cy="994" r="978.6"/>
			
				<radialGradient id="SVGID_00000023982866152705444370000001657201546495066253_" cx="1000.3176" cy="993.9814" r="784.4592" gradientUnits="userSpaceOnUse">
				<stop  offset="0" style="stop-color:#FBCC48"/>
				<stop  offset="1" style="stop-color:#D14B17"/>
			</radialGradient>
			<circle style="fill:url(#SVGID_00000023982866152705444370000001657201546495066253_);" cx="1000.3" cy="994" r="784.5"/>
			
				<radialGradient id="SVGID_00000159441541102592785800000014248162864211328952_" cx="1000.3176" cy="993.9814" r="588.3444" gradientUnits="userSpaceOnUse">
				<stop  offset="0" style="stop-color:#FBCC48"/>
				<stop  offset="1" style="stop-color:#D14B17"/>
			</radialGradient>
			<circle style="fill:url(#SVGID_00000159441541102592785800000014248162864211328952_);" cx="1000.3" cy="994" r="588.3"/>
			
				<radialGradient id="SVGID_00000165222250077272732030000000972939914958606771_" cx="1000.3176" cy="993.9814" r="392.8921" gradientUnits="userSpaceOnUse">
				<stop  offset="0" style="stop-color:#FBCC48"/>
				<stop  offset="1" style="stop-color:#D14B17"/>
			</radialGradient>
			<circle style="fill:url(#SVGID_00000165222250077272732030000000972939914958606771_);" cx="1000.3" cy="994" r="392.9"/>
			<circle class="st7" cx="1000.3" cy="994" r="215.3"/>
		</g>
	</g>
</g>
<g id="圖層_6">
	<g>
		
			<ellipse transform="matrix(0.9666 -0.2561 0.2561 0.9666 -324.5554 360.4497)" class="st8" cx="1221.5" cy="1426.2" rx="41.2" ry="22.9"/>
		<path class="st8" d="M1641.8,1342.3C1641.7,1342.3,1641.7,1342.3,1641.8,1342.3c-11.5,0.1-24.7,2-40.1,6.2c0,0-4.7,3.1-11.4,8.3
			c-0.1,0-0.1,0.1-0.2,0.2c-8.3,6.4-19.8,16-29.7,26.6c-2.9,3.1-5.7,6.3-8.1,9.5l0,0c-1,1.3-2,2.6-3,4l-1.6,2.5
			c-2.4,3.7-4.4,7.4-5.8,11l-9.1-9.5l-2.5-205.9l-23-2.5l8.9-15l4.2-7c0,0-1.4,0-3.5-0.2c-5.4-0.5-15.2-1.6-18.4-4.9l5.2-15.6l0.3-1
			l3.6-10.8l-73.2-19.7c0,0-72.3-25.5-147.5-23h-0.3c-7.1,0.2-14.2,0.7-21.4,1.5c-61.9,6.9-109.6,31-129.4,42.5
			c-1.1,0.7-2.2,1.3-3.2,1.9c-4.5,2.7-6.9,4.4-6.9,4.4l8.2,14.8l1.1,2l-1.5,2l-7.8,10.5l4.3,14.3l-22.6,53l-6,14.2l-1,2.3l-8.9,20.9
			l23.1,127.1c0,0-50.5,115.3-41.3,156.5c9.1,41.2,14.7,123,80.5,162.1c0,0,53.7,14.3,111.3,13.7c19.3-0.1,39.1-2,57.4-6.6l11.3-6.3
			c2.1-0.1,4.3-0.2,6.4-0.3c33.5-1.9,67.4-5.8,100.1-13.3c0.2,0,0.5-0.1,0.7-0.1c1.1-1.2,2.6-2.1,4.5-2.3c0.1,0,0.2,0,0.4,0
			c0.1,0,0.3,0,0.5-0.1c0,0,0.1,0,0.2,0c2.7-0.5,5.3-1.1,7.9-1.8c26.3-7,49.9-19.2,74-32.4c46.1-25.3,89.7-55.3,131.7-86.9
			c-3.2-3.6-6-6.2-8.4-7.4l-13.9-63.7c-22.8,4.7-46.7,2.3-68.8-9.6c-7.8-4.2-0.8-16.1,7-11.8c31,16.7,66.1,11.4,95-6.2c0,0,0,0,0,0
			c20.6-17.1,43-42.5,42.8-72.5C1713.6,1417.9,1717.5,1341.4,1641.8,1342.3z M1176.1,1703c3.8,1.9,7.7,3.6,11.7,5.2l-9,4.6
			c0.1-0.7,0.2-1.4,0.4-2.1C1179.7,1707.7,1178.6,1704.6,1176.1,1703z"/>
		
			<ellipse transform="matrix(0.9854 -0.17 0.17 0.9854 -224.4268 231.9781)" class="st9" cx="1242.1" cy="1426.2" rx="38.9" ry="22.9"/>
		<path class="st10" d="M1727.1,1107.9c-0.1,28.8-3.8,124.4-45.8,220l-6.9,6.9c0,0-6.3-5.2-17.2-8.1c0,0,0,0-0.1,0
			c-12.1-3.3-29.8-3.8-51.3,8.1c-21.9,12.2-36.6,30.1-45.6,44.2c-3.5,5.4-6.1,10.3-7.9,14l0,0c-0.9,1.8-1.6,3.4-2.1,4.6
			c-1,2.1-1.4,3.4-1.4,3.4l-1.1-1.6l-8.1-12.2c-3.8-72.2-1.3-166.5-0.3-196.4c0.2-6.1,0.3-9.5,0.3-9.5l-3.5-0.6l-6.5-1.1l-8.8-1.5
			l-4.7-0.8l-4-0.7c1.3-1.3,3-3.8,4.7-6.5c1.3-2,2.6-4.3,3.8-6.4c1.1-2,2.1-3.9,3-5.5c1.2-2.4,2.1-4.1,2.2-4.4
			c-1.6,0.7-3.2,1.1-4.9,1.2c-3.5,0.2-7.1-0.7-10.2-1.9c-3.3-1.3-5.9-2.8-7.1-3.5c-0.4-0.3-0.6-0.4-0.6-0.4c0.3-0.2,0.6-0.4,1-0.6
			c4.2-2.7,6.3-8.6,7.2-13.6c1-4.7,1-8.7,1-8.7c-22.9-4.6-36.6-9.1-36.6-9.1c-86.1-34.4-157-39.3-210.4-33.2
			c-74.2,8.4-114.4,37.8-114.4,37.8l-22.9,13.7l4.6,5.5l6.9,8.3l-5.5,10.9l-1.4,2.7l1,1.3l5.9,8.3l-31.5,70.1l-6.4,14l-1,2.3
			c0,0-0.1-0.1-0.2-0.4c-0.8-1.2-3.6-5.7-7.2-10.3c-2.3-3-5.1-6.1-7.8-8.5c-2.6-2.2-5.3-3.7-7.6-3.7l6.9-10.3l2.2-3.4l-24.3-13.9
			l-7.7-4.4l12.5-13.4l0.3-0.3c0,0-7.1-9.4-18.3-14.9c-2.2-1.1-4.7-2.1-7.2-2.8c-1.9-0.5-3.9-0.9-6-1.1c-2.8-0.3-5.8-0.1-8.8,0.5
			c0,0,32-123.5,137.2-196.7c89.5-62.3,165.7-91.4,183.7-90.3c0,0,0,0,0.1,0c3.1,0.2,4.4,1.4,3.8,3.4c-1.4,4.3-1.9,7.7-2,10.4
			c-0.1,6.2,2.1,8.8,2.1,8.8s2.1-0.7,5.5-1.9c3.5-1.1,8.4-2.7,14-4.3c13.3-4,30.6-8.6,42.4-9.2c8.4-0.5,14,0.9,13.4,5.9
			c-0.3,2.6,1.1,4.4,3.7,5.9c1.1,0.6,2.5,1.1,4.1,1.6c19.8,5.7,69.4-1.5,58.5,5.8l-5.6,8.4l-3.6,5.3c0,0,3.6,0.3,9.1,0.6
			c2.1,0.1,4.4,0.2,6.9,0.4c2.8,0.1,5.9,0.3,9.1,0.4c18.9,0.9,42.5,1.3,48-1.3c0,0,0,0,0.1,0c0,0,0,0,0,0c-0.2,0.8-2.3,8.7-4.9,13.9
			c-1.3,2.5-2.7,4.4-4.2,4.4c-1.1,0,1.8,1.7,7.4,4.4c3.1,1.5,7,3.2,11.6,5.1c0.4,0.1,0.7,0.3,1.1,0.4c19.2,7.9,47.9,17.6,66.9,17.6
			l-13.7,13.7c0,0,3.2,0.9,8.2,2.2c2.8,0.8,6.1,1.7,9.8,2.8c1.6,0.5,3.1,0.9,4.8,1.4c19.5,5.8,44,13.7,41.3,16.5
			c-0.6,0.6-1.2,1.9-1.7,3.8c-3.5,11.6-4.9,43.9,9.1,46.4c0.6,0.1,1.2,0.2,1.8,0.2c0,0,0,1.3,0.2,3.6c0.6,7.7,3.6,26,17.1,33.9
			c3.9,2.3,8.8,3.7,14.7,3.7C1727,1099.2,1727.1,1102.3,1727.1,1107.9z"/>
		<g>
			<path class="st11" d="M1388.4,1076.8c43.3,1.7,86.6,4.4,129.4,11.2c12.7,2.4,25.8,4.4,37.4,10.5c1.8,1,3.6,2.2,5.2,4.1l3.2,3.7
				c-2.5,1.1-26.5,11.3-29.6,12.7c0,0-0.1-7.5-0.1-7.5c14.3,5.2,28.3,10.6,42.2,16.7c10.6,4.9,21.3,9.4,30.8,16.8
				c4.6,3.6,8,10.2,2.5,15c0,0-0.6,0.5-0.6,0.5l-0.3,0.2l-0.1,0.1c-6.6,4.5-13.2,9.2-19.3,14.1c-4.1,3.5-8.7,6.9-11.3,11.3
				c0,0,0,0.1,0,0.1c0,0,0.1-0.2,0.1-0.2c0.1-0.7-0.1-1.5-0.5-2.2c-0.6-1.1-1.5-1.2-0.1-0.6c14.2,7.2,28.7,15.2,42.5,23.1
				c-3.5,7-6.9,14.3-10.2,21.4c-7.5,16.4-14.7,33-21.1,49.8c-6.6,17.4-13,35.2-15.7,53.7c-0.6,5.1-0.9,10.4,0.1,15.5
				c0,0-1.2,0.4-1.2,0.4c-4.1-11.8-2.3-24.7-0.5-36.8c6.7-36.2,20-70.6,34.9-104.1c0,0,2.6,8.1,2.6,8.1c-6.6-3.5-13.2-7.2-19.8-10.8
				c-3.3-1.8-11.5-6.4-14.7-8.1c-1.6-0.9-2.4-1.2-4.2-2.3c-3.6-2.1-5-6.9-3.6-10.6c3.6-10.6,26.8-24,36.3-30.5c0,0,0.1-0.1,0.1-0.1
				c-0.1,0,0,0.1-0.1,0.1c-0.5,0.6-0.8,1.7-0.6,2.4c-2-2.8-6.5-5.6-10.2-7.9c-22.2-12.8-46.6-22.2-70.4-31.5
				c6.3-2.5,28.2-11.1,34.9-13.7c0,0-1.4,5.7-1.4,5.7c-1.7-2-5-3.7-7.6-4.8c-9.7-4.1-20.2-6.3-30.5-8.5c-28.1-5.6-56.8-9-85.4-12
				c-14.3-1.4-28.7-2.8-43-3.9C1388.4,1078,1388.4,1076.8,1388.4,1076.8L1388.4,1076.8z"/>
		</g>
		<g>
			<path class="st11" d="M1439.4,1059.2c16.6-3.8,33.4-6.5,50.4-7.8c8.6-0.6,17.2-1.5,25.8-0.4c8.6,1.2,17.4,3.2,24.7,8.2
				c0,0-0.3,0.7-0.3,0.7c-12.7-1.7-24.8-1.3-37.4-2.2c-8.4-0.6-16.8-0.6-25.1-0.3c-12.7,0.4-25.3,1.2-37.9,2.5
				C1439.5,1059.9,1439.4,1059.2,1439.4,1059.2L1439.4,1059.2z"/>
		</g>
		<g>
			<path class="st11" d="M1457.2,1035.7c6-5.7,12.3-11,19.1-15.8c3.4-2.4,6.6-5.3,10.7-6.7c4.1-1.4,8.8-2.5,13.1-0.9
				c0,0,0,0.7,0,0.7c-3.6,2.2-6.5,4.5-10,6.7c-3.3,2.2-7.2,3.3-10.8,5.1c-1.8,0.9-3.6,1.8-5.4,2.8c-5.5,2.8-10.8,5.7-16.2,8.7
				C1457.6,1036.2,1457.2,1035.7,1457.2,1035.7L1457.2,1035.7z"/>
		</g>
		<g>
			<path class="st11" d="M1150.7,1090.3c15.3-5.2,41.1-13.4,57-10.7c0,0-1.7,3.7-1.7,3.7c-8.7-5.7-17.8-11.1-27-15.9
				c-6.9-3.5-13.9-6.7-21.3-8.7c-5-1.7-22.2-1.1-27.6-1.4c13.8-4.7,30.9-11.1,45.2-13.3c11.6-2,23.6-3.5,35.3-1.5
				c2.9,0.5,5.9,1.4,8.5,2.9l-0.3,0.7c-5.6-1.3-11.3-0.9-16.9-0.2c-16.9,2.2-33.6,7.2-50,11.6c0,0-1-7.1-1-7.1
				c8.6,0.7,16.1,4.5,23.6,8.2c7.1,3.7,14,7.8,20.7,12.2c7,4.5,14.9,10.3,21.6,15.3c0,0-10.1-2.5-10.1-2.5c-4.2-1.1-9-1-13.7-0.7
				c-9.5,0.6-18.9,2.5-28.2,4.6c-4.7,1.1-9.3,2.2-13.9,3.5C1150.9,1091,1150.7,1090.3,1150.7,1090.3L1150.7,1090.3z"/>
		</g>
		<g>
			<path class="st11" d="M1201,1002.8c8,1.3,15.8,3.9,23,7.7c3.7,2,7.7,3.9,10.3,7.5c2.6,3.5,4.5,8.1,3.5,12.5c0,0-0.7,0.2-0.7,0.2
				c-4.2-4.8-8-7.3-12.1-11.5c-6.8-6.9-15.6-11.4-24.2-15.7C1200.9,1003.5,1201,1002.8,1201,1002.8L1201,1002.8z"/>
		</g>
		<path class="st12" d="M1133,1347c0,0-9,13.6-3.7,28.1c5.3,14.5,14,25.1,25.7,24.3c11.7-0.7,39.1-5.3,43.7-14.4s-4.6-50.3-4.6-50.3
			S1177.1,1327.3,1133,1347z"/>
		<path class="st12" d="M1383,1327.6c0,0-28.7,24-5.9,49.9c22.8,25.9,40.9,17.2,59.3,14.7c18.4-2.5,45.9-11.7,32.1-48.3
			c0,0-29-21.9-51.1-20.1S1383,1327.6,1383,1327.6z"/>
		<g>
			<path class="st13" d="M1740,1423.9c-10.6,36.2-39,67.9-73.3,84.3c7,17.4,12.2,36.3,12.9,54.9c2.1,2,4.2,4,6.3,6.1
				c3.2,3.2,6.3,6.6,9.2,10.1c-3.7,2.9-7.4,5.8-11.2,8.6c-5.2,4-10.4,8-15.7,11.9c-24.1,18.1-48.6,35.5-73.8,52.1
				c-35.9,23.5-73.3,45.9-113.3,61.8c-10.7,4.3-22.2,8.9-33.8,10.2c-0.8,1-2,1.8-3.7,2.2c-0.7,0.2-1.4,0.3-2.1,0.5
				c-14.1,3.4-28.6,5.4-43,7.4c-26.9,3.8-54.1,6.3-81.2,6.8c-45.7,0.9-96.7-2.5-139.7-21.6c0.5-2.8,1-5.6,1.5-8.4
				c0.5-3-0.5-6.1-3.1-7.7c22.9,11.3,48.4,17.2,73.6,20.6c29.8,3.9,60.2,4.2,90.2,2.5c33.5-1.9,67.4-5.8,100.1-13.3
				c0.2,0,0.5-0.1,0.7-0.1c1.1-1.2,2.6-2.1,4.5-2.3c0.1,0,0.2,0,0.4,0c0.1,0,0.3,0,0.5-0.1c0,0,0.1,0,0.2,0c2.7-0.5,5.3-1.1,7.9-1.8
				c26.3-7,49.9-19.2,74-32.4c46.1-25.3,89.7-55.3,131.7-86.9c4.9-3.8,9.9-7.5,14.8-11.3c-2.3-2.2-4.6-4.4-6.7-6.8
				c-3.8-4.4-2.3-13.1-3.2-18.6c-1.1-7.3-2.9-14.5-5-21.7c-1.6-5.6-3.5-11.3-5.6-16.7c-0.1-0.2-0.1-0.4-0.2-0.6
				c-5.4,2-10.9,3.5-16.5,4.6c-22.8,4.7-46.7,2.3-68.8-9.6c-7.8-4.2-0.8-16.1,7-11.8c31,16.7,66.1,11.4,95-6.2c0,0,0,0,0,0
				c2.9-1.8,5.8-3.7,8.6-5.7c24.3-17.6,45.2-45.1,49.9-75.3c1.9-12.3,0.5-25.2-5.8-36c-8.3-14.4-23.6-23.1-38.9-28.3
				c-14-4.8-28.6-6-42.8-2.7c0,0,0,0-0.1,0c-11.4,0.1-24.7,2-40,6.2c0,0-4.7,3.1-11.4,8.3c3.9-3.8,8-7.2,12.3-10.4
				c13.8-10.5,29.9-17.5,47.2-19.3c2.4-0.3,4.8-0.4,7.3-0.4c0,0,0,0,0.1,0c11,2.9,17.2,8.1,17.2,8.1l5.4-5.4
				c3.2,0.7,6.2,1.6,9.3,2.7c-0.3,6.5,8.7,11.2,12.1,5c3.1,1.5,6.2,3.1,9.1,4.8c14,8.3,25.2,20.8,30.2,36.4
				C1745.3,1392.9,1744.3,1409.2,1740,1423.9z"/>
			<path class="st14" d="M1179.1,1710.7c-0.5,2.8-1,5.6-1.5,8.4c-4.3-1.9-8.6-4-12.8-6.3c-7.5-4-14.6-8.6-21.4-13.8
				c-54.5-41.9-61.5-113.8-52.3-177.2c4.1-28.3,11.4-56.1,20.4-83.3c2.9-8.8,6-17.6,9.1-26.3c1-2.7,2-5.4,2.8-8.1
				c0.3-0.8,0.5-1.7,0.7-2.5c0,0,0-0.1,0-0.1v-0.1c0,0,0,0,0-0.1s0,0,0-0.1c0.1-0.8,0.1-1.6,0.1-2.5c0.4-10.6-1.1-21.3-2.5-31.8
				c-1.8-13.7-4-27.4-6.4-41.1c-3-17.7-6.2-35.3-9.7-52.8c-0.5-2.8,0.5-5.1,2.1-6.6c3.5-3.2,9.9-2.9,11.1,2.9c0,0.1,0,0.3,0.1,0.4
				c0.2,1.2,0.5,2.3,0.7,3.5c4.4,22.5,8.5,45.1,12.1,67.7c0,0.1,0,0.2,0,0.3c0.1,0.5,0.2,1.1,0.2,1.6c0.2,1.2,0.4,2.5,0.6,3.8v0
				c0,0.2,0,0.3,0.1,0.5c1.7,11.3,3.3,22.6,4.4,34c0.2,1.9,0.4,3.9,0.5,5.9v0c0.2,1.4,0.3,2.8,0.4,4.3c0.3,4.9,0.2,9.8-0.9,14.5
				c-1.3,5.5-3.7,10.8-5.6,16.1c-3.5,9.7-6.8,19.5-9.9,29.4c-8.6,27.5-15.6,55.8-18.8,84.5c-3.4,31.5-2.8,64.1,7.6,94.3
				c9.9,28.8,29.4,52.5,55.7,67.7c2.9,1.7,5.9,3.2,8.9,4.8c0.2,0.1,0.4,0.2,0.6,0.3c0.1,0,0.1,0,0.2,0.1
				C1178.6,1704.6,1179.7,1707.7,1179.1,1710.7z"/>
		</g>
		<g>
			<path class="st14" d="M1748.3,1104.2c-0.1-3.8-3-6.8-6.9-6.9c-18.4-0.4-25.1-19.9-25.2-34.3c0-3.8-3.2-6.7-6.9-6.9
				c-1.1,0-1.4-0.1-2.3-1.2c-0.8-1.1-1.7-3-2.2-4.7c-1.6-5.1-1.9-10.4-1.8-15.7c0-4.6,0.4-9.3,1.4-13.9c0.2-1,0.5-1.9,0.7-2.8
				c0.1-0.4,0.2-0.5,0.2-0.7c0.1-0.3,0.2-0.5,0.2-0.5c0.7-1.2,1.4-2.1,1.6-3.6c1.1-8.5-11.3-11.8-17.2-14.1
				c-10.1-3.8-20.4-6.9-30.7-9.9c-3.3-1-6.5-1.9-9.8-2.8c1.8-1.8,3.6-3.6,5.4-5.4c4.2-4.3,1.1-11.7-4.8-11.7
				c-17.5-0.2-35.1-6.2-51.5-12.1c-7.1-2.6-14.2-5.4-21.1-8.4c-1.3-0.6-2.5-1.2-3.8-1.8c0.3-0.6,0.5-1.2,0.8-1.8
				c1.8-4.2,3.3-8.6,4.4-12.9c1.6-6.2-4.8-10.2-10.1-7.8c2-0.9-0.4,0-1.1,0.1c-1.6,0.3-1.5,0.3-2.7,0.4c-2.4,0.2-4.8,0.4-7.2,0.4
				c0,0,0,0-0.1,0c-0.9,0-1.7,0-2.6,0.1c-8,0.2-16.1,0-24.1-0.3c-6.5-0.2-13.1-0.5-19.6-0.9c0.6-0.9,1.2-1.8,1.8-2.7c0,0,0,0,0,0
				c0.2-0.2,0.5-0.4,0.7-0.7c5.1-5.1,1.9-12.1-4.4-13.8c-5.7-1.5-12.3-0.8-18.1-0.8c-7.9,0.1-15.8,0.3-23.6,0
				c-3.3-0.1-7.3-0.4-10.1-0.7c-1.6-0.2-3.2-0.5-4.7-0.9c-0.7-0.2-1.4-0.4-2.1-0.6c-0.1,0-0.8-0.3-1.3-0.4c0,0,0,0,0,0
				c-0.2,0-0.4-0.2-0.6-0.3c0.4-2.7-1.5-6.3-3-8c-4.1-4.5-10.8-5-16.5-4.8c-5.2,0.2-10.3,0.9-15.4,1.9c-3.2,0.6-6.5,1.4-9.7,2.1
				c-11.1,2.6-22.1,5.8-33,9.5c0-0.8,0.1-1.6,0.3-2.4c0.5-2.9,1.7-5.7,1.8-8.6c0.1-4.3-2.8-7.7-6.7-8.9c-5.7-1.8-12.4-0.5-18.5,1.2
				c0,0-0.1,0-0.1,0c-2.3,0.6-4.4,1.3-6.4,1.9c-37,10.8-72.4,29.6-105.6,48.9c-43.5,25.2-85.9,53.2-119.3,91.2
				c-24.9,28.3-45.4,60.5-61.2,94.6c-7.5,16.1-14.7,32.8-19.5,50c-0.4,1.2-0.7,2.4-1,3.7c-1.4,5.4,3.4,9.3,8.5,8.4
				c8.6-1.5,16.9,1.9,23.7,7c0.1,0.1,0.1,0.1,0.2,0.2c1.8,1.3,3.6,2.9,5.2,4.5c-2.8,3-5.6,5.9-8.3,8.9c-1.1,1.2-1.8,2.7-1.9,4.2
				c-0.3,2.5,0.8,5.1,3.2,6.5c6.3,3.6,12.5,7.2,18.8,10.7c2.3,1.3,4.6,2.7,6.9,3.9c-1.7,2.7-3.5,5.3-5.3,8c-0.5,0.7-0.8,1.4-0.9,2.1
				c-0.9,4,2.7,7.9,6.9,8.2c0.3,0,0.6,0.1,1,0.3c2.6,1,5.9,5.1,8.2,8.1c0.1,0.1,0.2,0.2,0.2,0.4c0.5,0.6,0.9,1.1,1.2,1.5
				c2,2.5,3.8,5.2,5.5,7.9c0.3,0.4,0.5,0.9,0.8,1.3c2.1,3.4,7.4,4.5,10.3,2c0.6-0.5,1.1-1.2,1.5-2c12.6-28,25.2-56.1,37.9-84.2
				c1.2-2.7,2.6-5.3,1.4-8.3c-1.1-2.7-3.2-5.3-5.1-7.7c1.6-3.2,3.2-6.3,4.8-9.4c1.5-3,1-5.9-1.1-8.3c-2-2.4-4-4.8-5.9-7.2
				c19.2-11.6,38.1-23.1,58.8-30.6c24.2-8.8,49.4-14.1,75-16.6h0.3c36.2-3.4,73-0.9,108.5,6c25.6,5,50.7,12.1,75.2,21
				c7.5,2.7,14.9,6,22.6,8.3c5.9,1.7,11.9,3.2,18,4.7c2.7,0.6,5.5,1.2,8.2,1.8c-0.5,4.6-1.9,9.4-5.4,11.4c-1.9,1.1-3,2.9-3.2,4.8
				c-0.4,2.6,0.8,5.4,3.2,7c2.1,1.4,4.3,2.6,6.6,3.6c2.7,1.2,5.5,2.1,8.3,2.6c-2.1,3.8-4.4,7.5-7.2,10.5c-0.4,0.4-0.6,0.8-0.9,1.3
				c-2.1,3.7-0.8,9.4,3.9,10.2c4.8,0.8,9.7,1.6,14.5,2.4c2.6,0.5,5.2,0.9,7.7,1.3c-1.7,46.3-2.2,92.6-1.7,138.9
				c0.3,20.4,0.8,40.8,1.9,61.2c0.1,2.1,0.9,3.6,2.1,4.7c0.2,0.3,0.5,0.5,0.8,0.6c4.1,2.8,11.1,1,10.7-5.3c-0.1-3-0.3-5.9-0.4-8.9
				c-0.1-1.5-0.2-3-0.2-4.5c-2.5-58.7-1.6-117.7,0.1-176.4c0.2-5.4,0.3-10.7,0.5-16.1c0.1-2.7-2.2-6.2-5-6.6
				c-5.8-1-11.5-1.9-17.3-2.9c2.9-4.7,5.3-9.7,7.6-14.5c3.3-6.5-3.2-12-9.4-9.4c-2.4,1.1-5.4,0.5-8.3-0.5c3.6-6.2,4.8-14.1,4.9-20.9
				c0-2.8-2.1-6-5-6.6c-15.8-3.2-31-7.1-46-12.8c-22.7-8.6-46-15.8-69.7-21.2c-37.8-8.6-76.8-12.6-115.6-10.2
				c-10.6,0.7-21.3,1.8-31.9,3.4c-33.3,5-66.2,14.9-95.2,31.7c-10.5,6-20.7,12.7-31.1,18.9c-1.8,1.1-2.9,2.8-3.2,4.6
				c-0.4,2.1,0.3,4.4,1.8,6.2c2.7,3.2,5.4,6.5,8.1,9.8c-1.6,3.1-3.1,6.2-4.7,9.3c-1.1,2.1-1.4,4.9,0,6.9c1.6,2.3,3.3,4.7,4.9,7
				c-10.7,23.8-21.4,47.6-32.1,71.4c-1.8-2.5-3.8-5-6-7.1c-0.2-0.2-0.4-0.4-0.5-0.5c-1.6-1.5-3.2-2.9-5-4c1.6-2.4,3.2-4.8,4.8-7.2
				c2.1-3.1,0.6-7.6-2.4-9.4c-8.2-4.7-16.4-9.3-24.6-14c2.2-2.4,4.5-4.8,6.7-7.2c1.9-2,3-5.9,1.1-8.3c-9.1-11.8-22.4-20.6-37-21.9
				c3.3-10.4,7.4-20.7,11.7-30.6c13.4-31.2,30.7-61.2,51.7-87.9c12.9-16.5,27.3-31.8,43.1-45.6c19.5-17,41.3-31.1,63.3-44.7
				c35.1-21.8,72-42.3,111-56.4c6.1-2.2,12.2-4.3,18.5-5.9c0.3-0.1,0.6-0.1,0.9-0.2c3.4-0.8,5.3-1.2,7.4-1.5
				c-0.5,2.8-0.8,5.7-0.7,8.6c0.2,4.2,1.3,8.4,4.1,11.7c1.4,1.8,4.6,2.5,6.6,1.8c9.7-3.4,19.6-6.4,29.5-9.1c7.7-2.1,15.6-4,23.5-5.3
				c2.9-0.5,5.9-0.8,8.9-0.9h0.8c0.9,0,1.9,0,2.8,0.1c-0.1,0,0.5,0,1.1,0c0,0.5,0.1,1,0.2,1.5c0.4,2.2,1.2,4.3,2.8,6.1
				c3.8,4.3,9.7,5.8,15.1,6.6c11.5,1.8,23.3,1.6,35,1.4c2.8,0,5.6-0.1,8.4-0.1h1.1c-1.3,2-2.6,4-4,6c-0.2,0.3-0.4,0.6-0.6,1
				c-3.1,4.6,1.1,10,5.9,10.3c11.4,0.8,22.9,1.4,34.4,1.7c6.5,0.2,13,0.4,19.4,0.3c1.8,0,3.6,0,5.4-0.1c1.3,0,2.7-0.1,4.1-0.2
				c-0.1,0.3-0.2,0.6-0.4,0.9c-0.1,0.1-1.1,2-1.4,2.6c-2.4,1.2-4.2,3.2-4.5,5.7c-0.1,0.8,0,1.6,0.2,2.6c1.6,6.1,12.1,9.1,17.1,11.3
				c16.6,7.2,34.7,14.6,53.1,18.4c2.7,0.6,5.5,1.1,8.3,1.5c-1.1,1.1-2.1,2.1-3.2,3.2c-0.6,0.6-1.1,1.3-1.4,2.1
				c-1.6,3.6,0.3,8.3,4.4,9.4c16.6,4.4,33.2,9.1,49.3,14.9c0.1,0,0.2,0.1,0.4,0.1c3.1,1.1,5.4,2,7.9,3.2c-2.9,8.8-3.2,19.3-2.3,28.3
				c0.5,4.9,1.5,10.3,3.6,15c0.6,1.3,1.2,2.6,2,3.8c1.9,3,4.4,5.4,7.6,6.9c0.9,9.8,4,19.4,9.5,27c3.8,5.4,8.7,9.7,14.8,12.4
				c2.4,1.1,4.9,1.9,7.6,2.5c0.2,12.7-0.5,25.4-1.5,38c-2.7,36-8.6,71.8-17.8,106.6c-6.7,25.4-15.1,50.4-25.7,74.5
				c-0.4,0.9-0.6,1.8-0.6,2.6c-0.3,6.5,8.7,11.2,12.1,5c0.1-0.2,0.3-0.5,0.4-0.7c29.6-67.8,45.2-142.4,46.7-216.4
				C1748.4,1114.7,1748.5,1109.4,1748.3,1104.2z M1362.4,897.2C1362.4,897.2,1362.4,897.2,1362.4,897.2c0.5,0.6,0.2,0.3-0.1,0
				C1362.3,897.2,1362.3,897.2,1362.4,897.2z M1372,909c0-0.1,0-0.2,0-0.3c0,0,0,0,0,0.1V909z M1448.3,903L1448.3,903
				C1448.1,902.9,1448.8,902.8,1448.3,903z M1435.7,904.6C1436.5,904.5,1436.1,905,1435.7,904.6
				C1435.7,904.5,1435.7,904.5,1435.7,904.6C1435.9,904.5,1436,904.5,1435.7,904.6z M1506.5,920.5c0,0,0.1,0.1,0.1,0.1
				c0,0-0.1-0.1-0.2-0.2C1506.4,920.4,1506.4,920.4,1506.5,920.5z"/>
		</g>
		<g>
			<path class="st14" d="M1604.5,1369.7c15.4-4.2,28.6-6.1,40-6.2c-2.2,0.5-4.5,1.1-6.7,1.9c-13.9,4.6-26.1,13.4-36.5,23.7
				c-11.9,11.9-22.5,26.3-29.6,41.7c-3.7,8.1-15.5,1.1-11.8-6.9c7.7-16.7,19.3-32.7,33-45.7c0.1,0,0.1-0.1,0.2-0.2
				C1599.8,1372.8,1604.5,1369.7,1604.5,1369.7z"/>
			<path class="st14" d="M1659.9,1347.8c7.6-0.1,15.3,0.8,22.7,2.7l-5.4,5.4C1677.1,1355.9,1670.9,1350.7,1659.9,1347.8z"/>
			<path class="st14" d="M1704,1358.2c-3.4,6.2-12.4,1.6-12.1-5C1696,1354.7,1700.1,1356.3,1704,1358.2z"/>
		</g>
		<g>
			<path class="st9" d="M1609,1470.3c0.3-0.8,0.6-1.5,0.8-2.3c0.3-0.9,0.7-1.8,1-2.6c0.2-0.5,0.4-1,0.6-1.4c0.7-1.7-0.5,1,0.3-0.8
				c2.9-6.8,6.1-13.4,9.8-19.8c8.5-15,19-30.2,34.6-37.5c3.1-1.4,8-2.7,11.6-2.8c4.7-0.1,8.9,0.7,13.5,2.7c3.4,1.5,7.4,1,9.4-2.5
				c1.7-2.9,0.9-7.9-2.5-9.4c-42-18.6-72.3,26.5-87,59.5c-1.9,4.3-3.8,8.7-5.4,13.2C1592.8,1475,1606.1,1478.6,1609,1470.3
				L1609,1470.3z"/>
		</g>
		<g>
			<path class="st9" d="M1648.4,1494.8c6.9-7.7,13-16.5,17.8-25.7c7.4-14.3,12.7-33,0.8-46.5c-8.5-9.7-22.4-12.4-34.6-13.6
				c-3.7-0.4-6.9,3.4-6.9,6.9c0,4,3.2,6.5,6.9,6.9c5.4,0.5,10.8,1.6,15.9,3.5c0.9,0.3,2.8,1.2,4.3,2.2c0.8,0.5,1.6,1,2.3,1.6
				c-1.1-0.8,0.9,0.8,1.2,1.2c0.3,0.3,2.1,2.4,1,1.1c0.4,0.6,0.8,1.1,1.1,1.7c0.2,0.3,1.2,2.3,0.8,1.4c-0.3-0.7,0.5,1.5,0.7,2
				c0.2,0.6,0.3,1.3,0.4,1.9c0.3,1.2,0-0.1,0-0.3c0,0.4,0.1,0.8,0.1,1.3c0.1,1.7,0,3.3-0.1,4.9c-0.1,1.7,0.2-1.1,0,0
				c-0.1,0.4-0.1,0.7-0.2,1.1c-0.2,0.8-0.3,1.6-0.5,2.4c-0.4,1.8-1,3.6-1.6,5.3c-0.3,0.7-0.5,1.4-0.8,2.1c-0.7,1.8,0.1-0.2-0.5,1.3
				c-0.8,1.6-1.5,3.3-2.4,4.9c-2.9,5.7-6.4,11-10.2,16.2c-0.4,0.6-0.8,1.1-1.2,1.7c-1.1,1.5,0.9-1.1-0.4,0.5c-0.7,0.8-1.3,1.6-2,2.5
				c-0.6,0.7-1.2,1.4-1.8,2.1C1632.8,1491.6,1642.5,1501.4,1648.4,1494.8L1648.4,1494.8z"/>
		</g>
		<path class="st14" d="M1501.3,1353.1c-14.8-3.7-7.4-7.4-40.8-26c-55.6-29.7-96.4,7.4-96.4,7.4s-1.1,3.3,10.6-0.2s45.4-22.4,84.2,0
			C1497.6,1356.8,1501.3,1353.1,1501.3,1353.1z"/>
		
			<ellipse transform="matrix(0.9854 -0.17 0.17 0.9854 -208.687 264.072)" class="st14" cx="1437.4" cy="1350.4" rx="24.1" ry="29.7"/>
		
			<ellipse transform="matrix(0.9854 -0.17 0.17 0.9854 -212.9951 222.9171)" class="st14" cx="1194.9" cy="1355" rx="24.1" ry="29.7"/>
		<g>
			<g>
				<path class="st14" d="M1183.9,1367.8c8.8,0,8.8-13.7,0-13.7C1175,1354.1,1175,1367.8,1183.9,1367.8L1183.9,1367.8z"/>
			</g>
		</g>
		<g>
			<path class="st14" d="M1380.8,1328.8c-19.7,18.6-7.6,51.5,14.4,62.4c13,6.4,28.1,6.3,42,3.6c10.5-2,22.4-5.5,30.9-12.3
				c12.9-10.3,17.5-32.1,6.7-45.2c-2.8-3.4-7.6,1.5-4.9,4.9c8.2,10,3.1,27.7-6.4,35.2c-6.9,5.5-16.8,8.3-25.2,10.2
				c-11.5,2.6-24,3.3-35.4-0.5c-13.1-4.5-24.2-17.5-25.3-31.5c-0.6-7.8,2.3-16.5,8-21.9C1388.8,1330.6,1384,1325.8,1380.8,1328.8
				L1380.8,1328.8z"/>
		</g>
		<g>
			<path class="st9" d="M1181.1,1528.5c11.5,0.3,23.1-1,34.4-2.6c26.4-3.7,52.4-10.8,76.9-21.4c17.9-7.8,34.9-17.5,50.5-29.1
				c-1.2,0-2.3,0-3.5,0c9.8,4.4,23.8,7.8,32.4-0.5c3.2-3.1-1.7-7.9-4.9-4.9c-6,5.9-17.5,2.5-24.1-0.5c-1-0.5-2.4-0.8-3.5,0
				c-42.2,31.4-94.6,49-147,51.9c-3.8,0.2-7.6,0.4-11.4,0.3C1176.7,1521.6,1176.7,1528.4,1181.1,1528.5L1181.1,1528.5z"/>
		</g>
		<path class="st14" d="M1119.3,1342.1c0,0,18.9,1.1,36.9-8.6c18-9.7,54-18.8,68,6.3c0,0-24.7-17.4-48.8-5.3
			C1151.4,1346.6,1119.3,1342.1,1119.3,1342.1z"/>
		<g>
			<path class="st14" d="M1132,1348c-2.8,11.2-2.9,25.1,3.1,35.3c5,8.5,14,12.6,23.6,13.2c13.5,0.9,27.4-1.4,39.8-6.9
				c5.8-2.6,11.9-5.9,16.5-10.5c3.1-3.1-1.7-8-4.9-4.9c-10.4,10.5-28.1,14.8-42.5,15.4c-9.2,0.4-19.7-0.1-25.5-8.3
				c-4-5.6-4.9-12.8-4.8-19.4c0.1-4.2,0.4-8.1,1.4-12.1C1139.7,1345.5,1133.1,1343.7,1132,1348L1132,1348z"/>
		</g>
		<g>
			<path class="st9" d="M1358.9,1413.6c27.7-12.5,62.9-19.2,93.4-13.4c4.3,0.8,6.2-5.8,1.8-6.6c-32.5-6.2-68.7,0.5-98.7,14.1
				C1351.4,1409.5,1354.9,1415.4,1358.9,1413.6L1358.9,1413.6z"/>
		</g>
		<g>
			<path class="st9" d="M1377.1,1258c-10.9,16.9-14.5,39.3-10.9,58.8c0.4,2,3.3,3.3,5,2.1c23.2-16.9,55.7-20.2,80.3-4.8
				c3.8,2.4,7.2-3.6,3.5-5.9c-26.5-16.6-62.2-13.4-87.2,4.8c1.7,0.7,3.4,1.4,5,2.1c-3.3-17.8,0.3-38.2,10.2-53.5
				C1385.4,1257.7,1379.5,1254.3,1377.1,1258L1377.1,1258z"/>
		</g>
		<g>
			<path class="st9" d="M1146.6,1288.3c-3.3,6.5-6.1,13.4-8.4,20.3c-4,12-7,24.9-4.9,37.6c0.3,2.1,3.3,3.2,5,2.1
				c10.6-7,23.7-11.4,36.3-12.3c4.4-0.3,4.4-7.2,0-6.9c-13.8,1-28.1,5.6-39.7,13.2c1.7,0.7,3.4,1.4,5,2.1
				c-1.8-11.5,1.5-23.7,5.2-34.6c2.1-6.1,4.5-12.2,7.5-18C1154.5,1287.9,1148.6,1284.4,1146.6,1288.3L1146.6,1288.3z"/>
		</g>
		<g>
			<path class="st10" d="M1423.4,1230.1c3.4,2.7,6.7,5.7,9.4,9.1c0.1,0.2,0.4,0.5-0.3-0.3c0.1,0.1,0.1,0.2,0.2,0.2
				c0.1,0.2,0.2,0.3,0.3,0.5c0.2,0.3,0.4,0.6,0.6,0.9c0.2,0.3,0.3,0.6,0.5,0.9c0.1,0.1,0.1,0.3,0.2,0.4c0.3,0.6-0.3-0.9-0.1-0.2
				c0.3,0.9,0.8,1.6,1.6,2.1c0.7,0.4,1.8,0.6,2.6,0.3c1.6-0.5,3.1-2.4,2.4-4.2c-1.1-3.1-3.3-5.7-5.5-8c-1.8-1.9-3.8-3.8-5.9-5.5
				c-0.4-0.4-0.9-0.7-1.3-1.1c-0.7-0.6-1.4-1-2.4-1c-0.8,0-1.8,0.4-2.4,1C1422.2,1226.5,1421.9,1228.9,1423.4,1230.1L1423.4,1230.1z
				"/>
		</g>
		<g>
			<path class="st10" d="M1442.7,1231.8c0.1,0.1,0.2,0.3,0.4,0.4c0.1,0.1,0.1,0.2,0.2,0.3c0.3,0.4-0.7-0.9-0.2-0.3
				c0.2,0.2,0.3,0.5,0.5,0.7c1,1.4,2,2.8,2.9,4.2c1.1,1.7,2.2,3.5,3.1,5.3c0.2,0.4,0.4,0.9,0.6,1.3c0.1,0.2,0.4,1.1,0,0.1
				c0.1,0.2,0.2,0.5,0.3,0.7c0.3,0.8,0.6,1.6,0.7,2.5c0.3,1.8,2.6,2.9,4.2,2.4c1.9-0.6,2.7-2.3,2.4-4.2c-0.4-2.1-1.3-4.1-2.2-6
				c-1-1.9-2.1-3.7-3.2-5.5c-1.5-2.3-3.1-4.5-4.9-6.7c-1.1-1.4-3.7-1.3-4.9,0C1441.3,1228.4,1441.5,1230.3,1442.7,1231.8
				L1442.7,1231.8z"/>
		</g>
		<g>
			<path class="st10" d="M1456.2,1237.7c0.5,0.5,0.9,1,1.3,1.5c0.5,0.6,1,1.2,1.4,1.8c0.1,0.1,0.2,0.3,0.3,0.4c0.5,0.7-0.4-0.5,0,0
				c0.3,0.4,0.6,0.8,0.9,1.1c1.2,1.6,2.3,3.2,3.3,4.9c0.4,0.8,0.8,1.6,1.2,2.4c-0.5-1-0.1-0.3,0,0c0.1,0.2,0.1,0.4,0.2,0.6
				c0.1,0.4,0.2,0.8,0.3,1.1c0.4,1.8,2.5,2.9,4.2,2.4c1.9-0.6,2.8-2.3,2.4-4.2c-0.4-2-1.3-3.8-2.3-5.6c-1-1.8-2.1-3.5-3.3-5.1
				c-1.6-2.1-3.2-4.2-5-6.2c-1.2-1.3-3.6-1.3-4.9,0C1454.9,1234.2,1454.9,1236.2,1456.2,1237.7L1456.2,1237.7z"/>
		</g>
		<g>
			<path class="st10" d="M1474.2,1244.8c0.4,0.4,0.7,0.8,1.1,1.3c0.4,0.5,0.8,1,1.2,1.4c0.1,0.1,0.2,0.2,0.2,0.3
				c0.5,0.6-0.5-0.6-0.1-0.1c0.2,0.3,0.5,0.6,0.7,0.9c1,1.3,1.9,2.6,2.7,4c0.4,0.6,0.7,1.3,1,2c-0.6-1.2,0,0,0.1,0.3
				c0.1,0.3,0.2,0.6,0.2,0.9c0.4,1.8,2.5,2.9,4.2,2.4c1.9-0.6,2.8-2.3,2.4-4.2c-0.3-1.7-1.1-3.2-1.9-4.7c-0.8-1.4-1.8-2.8-2.7-4.2
				c-1.3-1.8-2.7-3.5-4.2-5.2c-1.2-1.3-3.6-1.3-4.9,0C1472.9,1241.4,1472.9,1243.4,1474.2,1244.8L1474.2,1244.8z"/>
		</g>
		<g>
			<path class="st10" d="M1170.3,1256.4c-3.2,3.5-6.2,7.4-8.4,11.6c-0.8,1.5-1.6,3.1-1.9,4.8c-0.3,1.8,0.5,3.8,2.4,4.2
				c1.7,0.4,3.9-0.5,4.2-2.4c0.1-0.8,0.4-1.5,0.7-2.2c-0.5,1.2,0.1-0.2,0.3-0.5c0.2-0.4,0.4-0.8,0.7-1.2c0.9-1.6,2-3.2,3.1-4.7
				c0.3-0.4,0.6-0.7,0.8-1.1c0.4-0.5-0.6,0.7,0,0c0.1-0.2,0.3-0.3,0.4-0.5c0.4-0.5,0.9-1.1,1.3-1.6c0.4-0.5,0.9-1.1,1.3-1.6
				c1.2-1.3,1.4-3.6,0-4.9C1173.9,1255.2,1171.6,1254.9,1170.3,1256.4L1170.3,1256.4z"/>
		</g>
		<g>
			<path class="st10" d="M1150.7,1267.9c-1.3,2.1-2.5,4.2-3.5,6.4c-1.9,3.8-3.8,7.9-3.9,12.2c-0.1,1.8,1.6,3.5,3.4,3.4
				c1.9-0.1,3.4-1.5,3.4-3.4c0-0.2,0-0.4,0-0.6c0.1-0.8-0.1,0.4,0,0.2c0.1-0.4,0.2-0.8,0.3-1.2c0.2-0.9,0.5-1.8,0.8-2.7
				c0.2-0.5,0.3-0.9,0.5-1.3c0.1-0.2,0.4-0.7,0,0c0.1-0.2,0.2-0.5,0.3-0.8c0.4-0.9,0.8-1.7,1.2-2.6c1-2,2.1-4.1,3.4-6
				c1-1.5,0.4-3.8-1.2-4.7C1153.7,1265.8,1151.7,1266.3,1150.7,1267.9L1150.7,1267.9z"/>
		</g>
		<g>
			<path class="st10" d="M1137.9,1277.2c-1.1,1.7-2,3.4-2.9,5.2c-1.6,3.2-3.2,6.7-3.3,10.3c-0.1,1.8,1.6,3.5,3.4,3.4
				c1.9-0.1,3.4-1.5,3.4-3.4c0-0.2,0-0.3,0-0.5c0-0.8-0.1,0.6,0,0.3c0.1-0.3,0.1-0.7,0.2-1c0.2-0.8,0.4-1.5,0.7-2.2
				c0.1-0.4,0.3-0.7,0.4-1.1c0.1-0.2,0.4-0.8-0.1,0.2c0.1-0.2,0.2-0.4,0.3-0.6c0.3-0.7,0.7-1.4,1-2.1c0.8-1.7,1.7-3.3,2.7-4.9
				c1-1.5,0.4-3.8-1.2-4.7C1140.9,1275.1,1138.9,1275.6,1137.9,1277.2L1137.9,1277.2z"/>
		</g>
		<g>
			<path class="st10" d="M1368.2,1247.9c0,0,5.1-19.2,23.4-23.2c18.2-3.9,27.7,11.4,27.7,11.4S1390.6,1224.7,1368.2,1247.9z"/>
			<g>
				<path class="st10" d="M1371.5,1248.8c0.6-2.2,1.1-3.3,2.1-5.2c2-4,4.7-7.6,8.1-10.4c8.4-7,20.8-7.6,29.4-0.8
					c1.5,1.2,2.8,2.6,4.1,4c0.2,0.2,0.8,1,0.3,0.3c0.1,0.2,0.3,0.5,0.4,0.6c0.1,0.1,0.3,0.4,0.4,0.5c1.3-1.7,2.6-3.4,3.9-5
					c-5.7-2.3-12.4-3-18.6-3c-13.7,0.2-26.3,5.8-35.8,15.6c-3.1,3.2,1.8,8,4.9,4.9c8.6-8.7,19.8-13.7,32.1-13.6
					c5.2,0,10.7,0.8,15.7,2.7c2.8,1.1,5.4-2.7,3.9-5c-4.5-7.2-12.7-12.4-21.1-13.5c-13.4-1.8-25.7,5.8-32.3,17.1
					c-1.6,2.8-3.1,5.8-3.9,8.9C1363.7,1251.3,1370.3,1253.1,1371.5,1248.8z"/>
			</g>
		</g>
		<g>
			<path class="st10" d="M1227.1,1255.7c0,0-4.7-18.1-21.8-21.8c-17.1-3.7-26,10.6-26,10.6S1206.1,1233.8,1227.1,1255.7z"/>
			<g>
				<path class="st10" d="M1230.4,1254.8c-1.9-7.3-6.7-14.2-12.7-18.8c-10.1-7.7-24.3-8.3-34.5-0.5c-2.6,2-5.2,4.4-6.9,7.3
					c-1.5,2.4,1,6.2,3.9,5c4.7-1.8,9.7-2.5,14.6-2.5c11.5,0,21.9,4.6,29.9,12.8c3.1,3.2,7.9-1.7,4.9-4.9c-9-9.2-20.8-14.6-33.7-14.8
					c-5.8-0.1-12.1,0.6-17.5,2.7c1.3,1.7,2.6,3.4,3.9,5c0.1-0.1,0.1-0.3,0.2-0.3c0.1-0.1,0.2-0.3,0.3-0.4c0.5-0.5-0.1,0.1,0-0.1
					c1-1.2,2-2.3,3.2-3.3c3.1-2.8,7.1-4.7,11.2-5.3c10.3-1.3,19.3,5,24,13.7c1.3,2.4,1.9,3.5,2.6,6.1
					C1224.9,1260.9,1231.5,1259.1,1230.4,1254.8z"/>
			</g>
		</g>
	</g>
	<g>
		<path class="st12" d="M640.7,491.2c19,17.2,44,32.6,69.8,41.5c-9.3,7.5-22.2,22.6-28.3,32.9c-19.3-8.9-38.7-22.2-56.2-37.6v26.5
			h-65.1v23.3h116.7v35.1H405.1v-35.1h112.4v-23.3h-63.4v-22.2c-17.5,14.7-36.9,27.6-56.9,36.5c-6.1-10-18.3-25.1-27.2-32.6
			c26.1-9.7,52.6-26.1,72.3-45.1h-69.1v-34.7h68.4V349.9h-49.4v-34.4h49.4v-26.8h42.6v26.8h112v-26.8h43.7v26.8h49v34.4h-49v106.7
			h66.2v34.7H640.7z M618.1,521c-9.7-9.3-18.3-19.3-25.8-29.7H491.4c-7.2,10.4-16.1,20.4-25.4,29.7h51.5v-22.2h43.3V521H618.1z
			 M484.2,349.9v15.7h112v-15.7H484.2z M484.2,410.7h112V395h-112V410.7z M484.2,456.5h112v-16.1h-112V456.5z"/>
		<path class="st12" d="M1045.5,483.4h-35.1v94.5c0,21.1-4.3,31.5-20,37.9c-15,6.1-35.4,6.1-62.6,6.1c-1.8-11.1-7.5-25.4-12.9-36.2
			H801.7v12.2h-42.2v-97h170.4v81.6c12.5,0.4,24,0.4,28.3,0c5.7,0,7.5-1.1,7.5-5.7v-93.4H721.6v-36.5h239.1V337.3H729.8v-35.8h308.9
			v35.8h-33.6v109.5h40.4V483.4z M931.7,352v78.8H762.4V352H931.7z M893,379.6h-94.1v23.3H893V379.6z M887.3,532.1h-85.6v22.6h85.6
			V532.1z"/>
	</g>
	<g>
		<path class="st15" d="M553.1,558.5v14.7h114.2v42.2H391.7v-42.2h108.5v-14.7h-58v-21.5c-16.8,14-35.4,25.8-55.1,34
			c-7.2-11.8-22.2-30.1-32.9-39.7c23.6-8.2,46.9-21.1,65.5-36.5h-62.3v-42.2h66.9V349.9h-46.5v-41.5h46.5v-22.9h52.3v22.9h102.7
			v-22.6h53.3v22.6h46.5v41.5h-46.5v102.7h64.8v42.2H639c18.3,14,40.1,25.8,61.9,33.6c-11.1,9.3-26.5,27.9-34,40.1
			c-18.6-8.6-37.2-20.8-53.7-35.4v25.4H553.1z M500.1,518.1v-18.3h53v18.3h44.4c-7.2-7.5-14-15.4-20-23.3h-95.2
			c-6.1,8.2-12.5,15.7-19.7,23.3H500.1z M476.5,349.9v10.7h102.7v-10.7H476.5z M476.5,406.8h102.7V396H476.5V406.8z M476.5,452.6
			h102.7v-10.4H476.5V452.6z"/>
		<path class="st15" d="M1035.6,489.8h-31.1v82.7c0,24.7-5,37.2-22.9,44.7c-17.5,7.2-39.4,7.5-66.6,7.5c-1.8-10-6.1-22.6-10.7-33.6
			H792.9v10h-51.5v-99.9h179v75.5c9.7,0,18.3,0,21.5,0c5.7,0,7.9-1.1,7.9-5.7v-81.3H706.7v-44.4H944V339.8H714.5v-43.3h314.3v43.3
			h-30.4v105.6h37.2V489.8z M920.7,350.2v82.7H744.2v-82.7H920.7z M873.8,383.1h-85.2v16.5h85.2V383.1z M868.5,538.9h-75.5v14.7
			h75.5V538.9z"/>
	</g>
	<g>
		<path class="st12" d="M1223.2,538.1v282.8h-35.4v-61.6c-29,5.4-58,10.7-82.7,15.4l-7.9-39.7c7.2-1.1,15.7-2.1,25.1-3.6V538.1H1104
			v-37.9h138.2v37.9H1223.2z M1187.8,538.1h-31.1v37.6h31.1V538.1z M1156.6,648.3h31.1v-37.9h-31.1V648.3z M1187.8,721.4v-38.3
			h-31.1v43.3L1187.8,721.4z M1226.8,794.7c9.3-20.4,17.2-52.6,20.4-78.4l29.4,10c-4.3,25.4-10.4,59.8-19.3,82L1226.8,794.7z
			 M1405.8,801.9c-2.1-9.7-5.7-22.6-10-35.4c-3.2,37.2-12.5,47.6-37.6,47.6h-38.3c-33.3,0-41.2-9.7-41.2-39.4v-57.6h35.1v57.3
			c0,9.3,1.8,10,11.5,10h29c8.6,0,10.4-4.3,11.5-31.1l-18.3,9.7c-6.4-14.3-20.8-38.7-31.5-56.2l24.3-11.5h-91.6V519.5h51.9
			c3.9-11.8,8.2-25.4,10-35.8l43.3,6.8c-5,10.4-10.4,20-15,29h81.3v175.8h-75.5c10.7,17.2,25.1,39.4,31.9,53l-9.3,4.3
			c7.2,4.7,19.7,9.3,28.3,11.5c-3.9-13.6-8.6-27.2-12.5-39.4l28.6-10.7c8.9,25.1,19.7,55.8,25.1,76.6L1405.8,801.9z M1283.4,553.1
			v49.4c8.2-4.7,15.7-10,21.8-15.8c-5.4-6.1-11.5-11.8-17.2-16.5l20.8-14c4.7,3.9,9.3,8.2,14.3,12.5c3.9-4.7,7.2-9.7,9.7-14.3
			l25.4,4.3c-5,9.3-11.1,17.9-18.3,26.5c2.9,3.2,5.7,6.1,8.6,9.3c4.7-5.7,8.6-11.5,11.8-17.2l23.3,4.3v-28.6H1283.4z M1283.4,660.9
			h100.2v-20l-21.8,15.8c-4.3-7.5-10.4-15.4-17.2-24.3c-11.1,10-24.3,19.3-39.7,28.3c-3.2-5.7-10.4-15-15.4-18.3
			c15.4-8.2,29.4-18.3,40.8-28.6c-2.9-3.2-5.7-6.4-8.6-9.7c-7.5,6.4-16.1,12.5-25.1,18.6c-2.5-4.7-8.2-11.8-13.2-16.1V660.9z
			 M1383.6,585.7c-5.7,9.3-12.2,18.3-19.3,26.8c7.5,9.7,14.3,18.6,19.3,26.8V585.7z"/>
		<path class="st12" d="M1693.6,549.9c-10.7,10.4-24,19.7-38.3,27.9c36.2,10,78.4,15.8,123.5,17.9c-8.2,8.9-18.3,26.1-23.3,36.5
			c-55.5-4.7-105.2-15-146.8-32.9c-43.7,16.1-94.1,26.5-142.1,33.3c-5-9.3-16.8-27.2-24.7-35.4c43-3.6,86.6-10.4,124.6-20.8
			c-12.2-8.2-22.9-17.5-32.6-27.6l34.4-14.3c10.7,10.4,24.3,19.3,40.8,26.8c18.6-7.9,34.4-17.5,45.8-28.6L1693.6,549.9z
			 M1581.9,502.3c-26.8,25.4-70.5,49-106.7,63c-6.4-7.5-20.8-24-29-31.1c35.8-10.7,75.2-28.3,97.7-47.2L1581.9,502.3z M1452,637.6
			h165v32.9h-18.6v150.3h-41.5v-27.2c-37.9,3.6-75.2,6.8-105.2,9.3l-3.6-32.6c7.9-0.4,16.8-0.7,26.1-1.4v-98.4H1452V637.6z
			 M1556.8,670.5h-43.3v14h43.3V670.5z M1513.5,724.6h43.3V711h-43.3V724.6z M1556.8,763.6v-13.2h-43.3v16.1L1556.8,763.6z
			 M1765.5,651.9c-11.5,18.3-25.1,39-36.5,55.5c25.8,18.3,34,35.1,34,50.5c0,17.9-5.7,29.4-19.3,37.6c-6.1,3.9-13.6,6.4-21.1,7.2
			c-9.3,1.1-21.5,1.4-32.6,0.7c-0.7-10.7-5.4-26.1-11.8-35.4c9.7,1.1,17.2,1.1,23.6,0.7c4.3,0,8.6-0.4,11.8-1.8
			c4.7-2.5,7.2-6.4,7.2-13.2c-0.4-10.4-9.3-24.7-35.1-40.8c7.9-13.2,16.1-29,22.9-43h-37.9v151.1h-41.5V637.6h98.8l6.8-1.8
			L1765.5,651.9z M1737.2,565.6c-22.2-16.8-69.8-41.2-106.7-55.1l29.7-24.7c35.4,12.5,83.4,34.7,109.2,51.9L1737.2,565.6z"/>
	</g>
	<g>
		<path class="st16" d="M941.4,1239.4c1,21.7-65.5,166.7-87.4,193c-21.9,26.3-57.5,92.7-63,100.1c-2.8,3.7-29,6.7-54.7,8.9
			c-26.1,2.1-51.6,3.4-51.6,3.4s0,0.3-0.1,0.9c-3.4-0.1-6.5-0.4-9.4-0.9c-27.5-4.4-155.7-147.4-193-189.7v-0.2l-9.2-10.2
			c-0.5-0.6-0.9-1-1-1.2l0,0l-47.7-53.1c-5.6,37.8-167.9-18-170.2-66.2c-2.3-117.6,106.4-105.5,149.4-39.5
			c-41.3-82.7,31.4-318.8,91.1-353.5c59.6-34.7,72.1,25.1,72.1,25.1l12-15.2c0,0-9.9-54.5-1.3-75.8c8.6-21.3,41,6.4,54.2,0
			c13.3-6.5,85.9,70.9,90.9,90.7c5,19.8,57.3,56.7,57.3,56.7l107.2,70.8c0,0,4.1,46.1,15.6,79.6c11.4,33.6,13.7,113.3,13.7,113.3
			C941.1,1209.1,940.3,1217.8,941.4,1239.4z"/>
		<path class="st17" d="M412.2,1163.7c0,0-3.4-38.7,19.2-68.2s58.6-85.7,60.6-95.9c2-10.1,19.8-109.1,19.8-109.1l84.3-39.7
			c0,0,73.5-61.8,140.8-3.5c31,26.8,37.3,44.3,69.1,70.1c20.1,16.2,40.2,29.3,61.6,43.5c26.5,17.6,50.3,52.2,56.9,82.4
			c3.5,16,3.3,34,3.8,50.4c0.4,13.8,1.3,31.4,5,44.6c6-5-0.8-13.4,4.5-19.3c6.7-7.4,13.5-14.8,20.3-22.2
			c12.1-13,25.8-22.2,28.2-40.6c2.1-16.7,8.8-38.1,5.2-54.2c-4.8-21.8-20.6-46.3-33.4-64.4c-17.4-24.7-42-39.1-61.3-61.6
			c-16.3-19-24.6-44.9-36-67c-11.6-22.6-24.4-45.8-43.8-62.8c-22.2-19.5-42.5-43.3-68-58.7c-43-26.1-95-22.2-141.2-7
			c-17.6,5.8-32.3,18.5-44.2,32.4c-7.1,8.4-28.4,31.5-23.6,43.7c0,0-8.5-21.3-23-21.3c-14.6,0-90.8,46.5-98.9,71.8
			c-8.1,25.4-139.9,172.7-139.6,218.1c0.3,45.4,29.5,109.1,29.5,109.1S370.6,1110.7,412.2,1163.7z"/>
		<path class="st18" d="M509.4,890.1l77.1-41.7c0,0-29.7-62.7-72-5.3C492,870.8,509.4,890.1,509.4,890.1z"/>
		<path class="st12" d="M592.1,1163.4c0,0-35.5-26.9-24.4-47c11.1-20.1,14.6-35.5,42.6-42.7c28-7.2,53.5,0.4,73,26.3
			c19.5,26,31.8,46.2-1.6,63.3C681.6,1163.4,635.1,1156.2,592.1,1163.4z"/>
		<path class="st12" d="M841.9,1162.3c0,0-32.4-36.4-7.8-64.8c24.7-28.4,70.9-13.1,75-8.4s23.5,36.8-6,62.9
			C903.2,1152,884.5,1141.5,841.9,1162.3z"/>
		
			<ellipse transform="matrix(0.5543 -0.8323 0.8323 0.5543 -574.7156 717.9453)" class="st19" cx="383" cy="895.6" rx="39.7" ry="14.9"/>
		
			<ellipse transform="matrix(0.5543 -0.8323 0.8323 0.5543 -576.108 740.1111)" class="st19" cx="403" cy="907.9" rx="23.9" ry="13.6"/>
		
			<ellipse transform="matrix(0.5543 -0.8323 0.8323 0.5543 -570.2229 800.6713)" class="st19" cx="462.4" cy="932.7" rx="23.9" ry="13.6"/>
		
			<ellipse transform="matrix(0.8285 -0.56 0.56 0.8285 -351.2278 592.8955)" class="st19" cx="792.3" cy="869.8" rx="10.9" ry="23.9"/>
		
			<ellipse transform="matrix(0.8285 -0.56 0.56 0.8285 -336.5903 604.8848)" class="st19" cx="819.2" cy="851.9" rx="7.4" ry="16.4"/>
		<ellipse transform="matrix(0.8285 -0.56 0.56 0.8285 -330.906 607.4703)" class="st19" cx="826.2" cy="843.9" rx="4" ry="16.4"/>
		<g>
			<path class="st14" d="M897.5,985.2c5.5,11,9.6,22.5,13.6,35c9.2,28.5,15.2,58.2,16.7,88.2c1.1,21.4,0,42.8-3.7,63.9
				c-0.6,3.6,0.5,6.2,3.4,8.4c-2.2-1.6-0.4-0.3,0.5,0.4c1.6,1.4,3.2,2.8,4.7,4.3c4.6,4.4,8.9,9.2,12.5,14.5
				c4.5,6.6,8.1,13.6,10,21.4c2.4,9.6,1.2,19-1,28.5c-5.3,22.9-15.7,44.2-26.3,65.1c-10.8,21.5-21.1,43.2-31.5,64.9
				c-11.5,24-23.4,47.8-36,71.3c-8.6,16.1-16.2,33.1-26.6,48.1c-9.5,13.7-22.6,22.8-38.8,26.8c-24.3,6-50.5,10.2-75.5,10.8
				c-5.5,0.1-11,0.2-16.5-0.4c2.6,0.2,0.4,0-0.7-0.4c-2.3-0.7,1,0.7-1.1-0.5c-1.2-0.7-2.4-1.3-3.6-2c-6.3-3.7-10.8-7.3-15.7-11.4
				c-16.6-13.5-32.1-28.4-47.4-43.4c-38.7-37.9-75.9-77.4-112.7-117.2c-14.8-16-29.5-32.1-44.2-48.3c-7.6-8.4-14.9-17.3-22.9-25.4
				c-0.4-0.4-0.7-0.8-1-1.1c-6.4-7.2-16.9,3.4-10.5,10.5c19.6,22.1,39.5,43.9,59.5,65.6c38,41.2,76.3,82.2,116.2,121.6
				c16.2,16,32.7,31.9,50.3,46.5c9.4,7.8,21.2,19.1,34,20.3c26.1,2.6,53.3-2.8,78.9-7.6c19.7-3.7,38-8.5,52.8-22.8
				c12.6-12.2,20.5-28.2,28.4-43.6c11.8-22.8,24-45.3,35.3-68.3c11.6-23.5,22.3-47.3,34.1-70.7c10.8-21.5,22.2-43,30.3-65.8
				c6.9-19.6,12.1-41,4.8-61.3c-5.2-14.3-14.4-27-25.4-37.4c-2.3-2.2-4.7-4.2-7.2-6.1c1.1,2.8,2.3,5.6,3.4,8.4
				c10.9-61.6,1.8-126.7-21.9-184.4c-2-4.8-3.9-9.6-6.3-14.2C906.1,969.1,893.2,976.6,897.5,985.2L897.5,985.2z"/>
		</g>
		<g>
			<path class="st9" d="M793.6,1086.5c-1.1,12.5-0.4,25.3,1.2,37.7c3,24.5,10,49.3,24.7,69.4c9.4,12.9,21.6,23.2,36,30.1
				c4.3,2,8.1-4.4,3.8-6.4c-44.3-21.1-58.5-72.9-58.6-118.4c0-4.1,0-8.3,0.4-12.4C801.5,1081.8,794.1,1081.8,793.6,1086.5
				L793.6,1086.5z"/>
		</g>
		<ellipse transform="matrix(0.866 -0.5 0.5 0.866 -512.4238 579.4663)" class="st9" cx="825.1" cy="1245.9" rx="46.2" ry="16.2"/>
		<g>
			<path class="st14" d="M583.1,1168.7c39.4-4.7,80.4-5.8,119.5-0.1c4.7,0.7,6.7-6.5,2-7.2c-40.1-5.8-81.4-5-121.5-0.1
				C578.4,1161.8,578.4,1169.2,583.1,1168.7L583.1,1168.7z"/>
		</g>
		<g>
			<path class="st14" d="M834.3,1168.9c11.6-6.7,24.7-11.5,37.8-14.4c9.1-2,19.8-3.9,29-1.6c1.8,0.5,4.2,1.5,5.2,2.2
				c0.2,0.2,1.3,1.3,0.9,0.9c-0.4-0.5,0,0,0.1,0.2c2.2,4.2,8.6,0.5,6.4-3.8c-1.6-3-5.3-4.9-8.3-6c-9.4-3.4-20.5-1.9-30.1-0.2
				c-15.5,2.7-31.2,8.4-44.8,16.2C826.5,1164.8,830.2,1171.3,834.3,1168.9L834.3,1168.9z"/>
		</g>
		<path class="st14" d="M571,1021.8c0,0,41.6-32.3,78.5-18.5c0,0-4.6-13.9-9.2-18.5c-4.6-4.6-27.7-4.6-37-4.6
			C594.1,980.3,571,1021.8,571,1021.8z"/>
		<g>
			<path class="st14" d="M654.5,990.1c1.3,2,2.5,4,3.6,6.1c0.5,0.9,1,1.8,1.4,2.7c0.2,0.5,0.5,0.9,0.7,1.4c0.1,0.2,0.2,0.4,0.3,0.6
				c0.3,0.6-0.3-0.8,0.1,0.1c0.4,0.9,0.7,1.9,1,2.8c0.1,0.4,0.2,0.8,0.3,1.2c0,0.2,0.1,0.4,0.1,0.6c0.2,1-0.1-0.7,0-0.1
				c0.2,1.9,1.6,3.8,3.7,3.7c1.8-0.1,3.9-1.6,3.7-3.7c-0.5-4.6-2.5-8.8-4.6-12.8c-1.2-2.2-2.5-4.4-3.8-6.5c-1.1-1.6-3.3-2.5-5.1-1.3
				C654.2,986.1,653.4,988.4,654.5,990.1L654.5,990.1z"/>
		</g>
		<g>
			<path class="st14" d="M646.6,988.9c1.2,2.1,2.2,4.3,3.2,6.5c0.1,0.2,0.2,0.5,0.3,0.7c0.3,0.7-0.3-0.8,0-0.1
				c0.2,0.5,0.4,1,0.6,1.5c0.4,1,0.7,2,1,2.9c0.3,0.9,0.5,1.9,0.7,2.9c0,0.2,0.1,0.4,0.1,0.6c0.2,1-0.1-0.7,0,0
				c0,0.4,0.1,0.9,0.1,1.3c0,1.9,1.7,3.8,3.7,3.7c2-0.1,3.7-1.6,3.7-3.7c0-4.6-1.9-9.1-3.7-13.2c-1-2.3-2.1-4.7-3.4-6.9
				c-0.9-1.7-3.4-2.4-5.1-1.3C646.2,985,645.6,987.1,646.6,988.9L646.6,988.9z"/>
		</g>
		<g>
			<path class="st14" d="M669.2,996.4c1.2,2,2.3,4,3.4,6.1c0.4,0.9,0.9,1.7,1.3,2.6c0.1,0.3,0.2,0.5,0.3,0.8c-0.2-0.4-0.3-0.7,0-0.1
				c0.2,0.5,0.4,0.9,0.5,1.4c0.3,0.9,0.6,1.7,0.8,2.6c0.1,0.4,0.2,0.8,0.3,1.2c0.1,0.6-0.1-1.1,0-0.2c0,0.2,0,0.4,0,0.6
				c0.1,1.9,1.7,3.8,3.7,3.7c2-0.1,3.8-1.6,3.7-3.7c-0.1-4.4-2.1-8.6-4-12.4c-1.1-2.2-2.3-4.4-3.6-6.4c-1-1.6-3.4-2.4-5.1-1.3
				C668.9,992.4,668.1,994.7,669.2,996.4L669.2,996.4z"/>
		</g>
		<g>
			<path class="st14" d="M682.1,1001.2c1,1.6,1.9,3.3,2.8,5c0.4,0.7,0.7,1.4,1,2.1c0.1,0.2,0.2,0.4,0.3,0.6
				c-0.1-0.3-0.4-0.9-0.1-0.3c0.2,0.4,0.3,0.7,0.4,1.1c0.3,0.7,0.5,1.4,0.7,2.2c0.1,0.3,0.1,0.7,0.2,1c0.1,0.6-0.1-1.1,0-0.3
				c0,0.2,0,0.3,0,0.5c0.1,1.9,1.7,3.8,3.7,3.7c2-0.1,3.8-1.6,3.7-3.7c-0.1-3.7-1.8-7.2-3.4-10.5c-0.9-1.8-1.9-3.6-2.9-5.3
				c-1-1.6-3.4-2.4-5.1-1.3C681.8,997.2,681,999.5,682.1,1001.2L682.1,1001.2z"/>
		</g>
		<path class="st14" d="M909.2,1034.9c0,0-35.5-25.9-65.2-12.4c0,0,3.2-12.1,6.7-16.2c3.6-4.2,22.5-5.2,30.1-5.6
			S909.2,1034.9,909.2,1034.9z"/>
		<g>
			<path class="st14" d="M827.3,1009.1c-1.3,2.4-2.4,5-3.4,7.5c-1.6,3.9-3.1,8.2-3.1,12.5c0,1.9,1.7,3.8,3.7,3.7
				c2-0.1,3.7-1.6,3.7-3.7c0-0.4,0-0.9,0.1-1.3c0.1-0.7,0-0.2,0,0.2c0.1-0.3,0.1-0.6,0.1-0.8c0.2-1,0.4-1.9,0.7-2.8
				c0.6-2,1.3-3.9,2-5.8c0.1-0.2,0.2-0.5,0.3-0.7c-0.2,0.4-0.3,0.7,0,0.1c0.2-0.4,0.4-0.9,0.6-1.3c0.3-0.7,0.6-1.3,0.9-2
				c0.3-0.6,0.6-1.3,0.9-1.9c0.9-1.7,0.5-4.1-1.3-5.1C830.7,1006.9,828.3,1007.3,827.3,1009.1L827.3,1009.1z"/>
		</g>
		<g>
			<path class="st14" d="M835,1007.1c-1.1,2.6-2.1,5.2-2.9,7.9c-0.6,2-1.2,4.1-1.6,6.2c-0.4,2.2-0.8,4.4-0.5,6.6
				c0.2,1.9,1.6,3.8,3.7,3.7c1.8-0.1,3.9-1.6,3.7-3.7c-0.1-0.9-0.1-1.8,0-2.7c0-0.3,0-0.5,0.1-0.8c0.1-0.7-0.1,0.9,0,0.1
				c0.1-0.5,0.2-1.1,0.3-1.6c0.4-2,0.9-4,1.6-5.9c0.5-1.6,1.1-3.2,1.7-4.8c0.2-0.5,0.4-1,0.6-1.5c0.2-0.5,0.5-1.3-0.1,0.2
				c0.4-1,0.7-1.8,0.4-2.9c-0.2-0.9-0.9-1.8-1.7-2.2C838.5,1005,835.8,1005.2,835,1007.1L835,1007.1z"/>
		</g>
		<g>
			<path class="st14" d="M813.4,1017c-1.2,2.4-2.2,4.9-3.2,7.5c-1.4,3.7-2.9,8-2.6,12c0.1,1.9,1.6,3.8,3.7,3.7
				c1.9-0.1,3.9-1.6,3.7-3.7c-0.1-0.8,0-1.6,0.1-2.5c-0.1,1.4,0.1-0.2,0.1-0.6c0.1-0.4,0.2-0.8,0.3-1.2c0.5-1.9,1.1-3.9,1.8-5.7
				c0.3-0.8,0.6-1.7,1-2.5c0.1-0.2,0.1-0.3,0.2-0.5c-0.5,1.2-0.2,0.4,0,0.1c0.1-0.3,0.3-0.6,0.4-0.9c0.3-0.6,0.6-1.3,0.9-1.9
				c0.9-1.7,0.5-4.1-1.3-5.1C816.8,1014.8,814.3,1015.1,813.4,1017L813.4,1017z"/>
		</g>
		<g>
			<path class="st14" d="M801,1023.2c-1,2-1.9,4.1-2.7,6.3c-0.6,1.6-1.1,3.1-1.5,4.8c-0.4,1.7-0.7,3.5-0.6,5.2
				c0.1,1.9,1.6,3.8,3.7,3.7c1.9-0.1,3.9-1.6,3.7-3.7c0-0.7,0-1.4,0.1-2c-0.1,1.5,0,0.1,0.1-0.3c0.1-0.3,0.1-0.7,0.2-1
				c0.4-1.6,0.9-3.1,1.5-4.7c0.3-0.7,0.5-1.4,0.8-2.1c0.1-0.1,0.1-0.3,0.2-0.4c-0.5,1.3-0.2,0.5-0.1,0.2c0.1-0.2,0.2-0.5,0.3-0.7
				c0.2-0.5,0.5-1,0.7-1.5c0.9-1.7,0.5-4.1-1.3-5.1C804.5,1020.9,801.9,1021.3,801,1023.2L801,1023.2z"/>
		</g>
		<g>
			<path class="st9" d="M827,1321.5c4.8,2,14.1,3.7,16.7,8.8c2.9,5.6-3.6,11.3-7.3,14.4c-4.7,3.9-18.9,11.5-11.6,19.1
				c2.3,2.4,5.6,3.1,7.7,6c2.2,3.1,2.8,7,2.4,10.6c-1.3,14.6-13.9,27.2-24,36.6c-3.5,3.2,1.7,8.5,5.3,5.3
				c13.1-12.1,34.4-35.1,23.6-54.8c-1.5-2.8-3.7-5.1-6.3-6.9c-0.6-0.4-3.3-1.7-3.2-1.6c0.4,0.6-0.4,0.8,0.4,0.1
				c0.7-0.7,1.3-1.4,2.1-2c7-6.1,16.7-10.9,18.8-20.8c2.9-14-12.5-17.8-22.4-21.9C824.6,1312.5,822.6,1319.7,827,1321.5L827,1321.5z
				"/>
		</g>
		<g>
			<path class="st14" d="M610.5,835c-5.4-16.6-10.1-39.3-2.9-54.8c5.7-12.4,20-13.3,33.1-10c18.6,4.6,34.1,17.5,47.3,30.7
				c29.9,29.9,51.4,67.3,81.8,96.7c14.9,14.3,33.6,24,50.5,35.7c20.7,14.3,40.9,29.1,61.8,43.1c10,6.7,20.1,13.2,30.7,18.8
				c4.2,2.2,8.6,4.3,13,6c4.3,1.6,8.9,2.4,13,4.5c7.9,4.1,12.8,12,15.3,20.3c1.6,5.4,2.3,8.5,2.4,13.4c0.2,9.6,15,9.6,14.9,0
				c-0.2-13.3-5-27.5-13.8-37.6c-7.2-8.2-16-10.8-25.8-14.2c-8.6-3-16.6-7.9-24.3-12.6c-22.2-13.5-43.2-29-64.4-44
				c-10.8-7.6-21.7-15.2-32.8-22.4c-8.2-5.3-16.9-10-24.3-16.4c-15.9-13.7-28.7-30.8-41.5-47.2c-14.3-18.3-28.4-36.9-44.8-53.5
				c-14.6-14.8-31.7-28.7-51.9-34.8c-15.8-4.7-36.3-5.2-48,8.5c-16.4,19.2-10.8,51.8-3.6,73.8C599.1,848,613.5,844.2,610.5,835
				L610.5,835z"/>
		</g>
		<g>
			<path class="st14" d="M559.2,754.9c17.7-41.4,56.5-79.9,102.5-85.9c48.1-6.3,95.3,21.3,131.9,49.6c34.8,26.9,63.1,61.1,84.2,99.4
				c8,14.6,15,29.7,21.6,45c3.6,8.2,6.6,18.1,12.8,24.8c6.5,7,17-3.5,10.5-10.5c-1.4-1.6,0.8,1.3-0.2-0.2c-0.3-0.5-0.7-1.1-1-1.6
				c-1-1.6-1.8-3.4-2.7-5.1c-2.1-4.4-4-8.9-6-13.4c-5.9-13.6-11.9-27-18.8-40.1c-20.7-39.3-48.6-74.9-82.9-103.2
				c-38.2-31.5-87.3-61.7-138.6-60.3c-35.5,0.9-67.6,18.1-91.8,43.5c-13.8,14.6-26.5,32-34.5,50.5
				C542.6,756.1,555.4,763.7,559.2,754.9L559.2,754.9z"/>
		</g>
		<g>
			<path class="st14" d="M769,749.9c41.7,41.9,83.8,83.5,127.3,123.5c10.3,9.5,20.7,19,31.7,27.8c5.8,4.7,11.8,8.9,17.2,14.1
				c7.9,7.6,14.9,16.1,21.4,25c12.2,16.7,23.8,34.9,31.4,54.1c1.2,3.1,2.3,6.3,3.2,9.5c0.1,0.5,0.2,1,0.3,1.5
				c0.4,2.3-0.4-1.4,0.1,0.6c0.1,0.3,0,0.8,0,1.1c0,1.5,0.3-1.9-0.1,0.5c-1.3,7.6-1.2,15.3-1.4,23c-0.2,11.4-0.7,23-4.2,34
				c-3.8,12-12.6,18.2-21.7,26.2c-15.1,13.4-29.8,27.5-44.1,41.8c-6.8,6.8,3.7,17.3,10.5,10.5c12.7-12.7,25.6-25.1,38.8-37.1
				c8.4-7.6,18.7-14.4,24.8-24.1c5.9-9.3,8.2-20.4,9.5-31.2c1.2-10,1.1-20.1,1.4-30.1c0.2-6.4,1.9-11.2,0.9-17.8
				c-2.8-17-13.3-33.8-22.1-48.2c-12-19.7-26-39.5-43.6-54.6c-5.9-5.1-9.7-7.5-14.9-11.8c-5.4-4.5-10.6-9.1-15.9-13.7
				c-28.6-25.6-56.2-52.4-83.6-79.3c-18.9-18.5-37.8-37.1-56.4-55.9C772.8,732.6,762.2,743.1,769,749.9L769,749.9z"/>
		</g>
		<g>
			<path class="st14" d="M592,848.9c-1.5-10.5-7.7-21.1-16.2-27.3c-15.8-11.6-37.2-6.9-52,4c-13,9.6-28.5,26.7-26.5,44.3
				c0.4,3.1,1.5,5.5,2.9,8.2c0.6,1.3-0.4-1.8,0,0.1c0.2,0.8,0.4,1.5,0.5,2.3c0.4,2,0-0.8,0.2,1.5c0.1,0.9,0.1,1.8,0.2,2.7
				c0.1,2.7,0.1,5.4,0.1,8.2c-0.8,32.8-8.5,66.2-18.5,97.3c-5.7,17.6-12.5,35-21.7,51.1c-4.2,7.3-8.8,14.5-14.2,20.9
				c-7.8,9.3-15.7,18.1-21.5,28.9c-15.2,28.7-17.5,66.2-3.8,96.1c4,8.7,16.6,1.1,12.8-7.5c-11.9-27.2-40.4-48.1-69.3-52.6
				c-16.4-2.6-32.8-0.8-48.7,3.5c2.8,1.1,5.6,2.3,8.4,3.4c-5.1-10.5-9.7-21.2-14-32c-7.6-18.9-15.2-38.8-18.3-59
				c-0.5-3.5-0.8-7.1-0.8-10.7c0-1,0.4-4.5,0.2-3.2c0.2-0.9,0.4-1.8,0.6-2.7c1.3-4.9,2.8-8.1,4.5-11.9c6.5-14.3,14.2-28,22-41.5
				c22.1-38,46.4-74.8,72.2-110.4c23.4-32.2,47.9-65.2,77.8-91.8c10.5-9.3,22-18,34.5-24.5c7.3-3.8,15.4-7.3,23.4-6.4
				c-1.4-0.2,1.9,0.5,2.5,0.6c0.1,0,1.8,0.7,0.7,0.2c-1-0.4,0.9,0.5,1,0.6c2.2,1.1,0-0.4,1.2,0.8c0.5,0.5,2.6,3,1.1,1
				c0.8,1.1,1.3,2.2,2,3.3c-0.4-0.7-0.5-1.6-0.1,0c2.4,9.2,16.8,5.3,14.3-4c-1.7-6.4-6.9-12-12.8-14.9c-16.2-7.8-35.8,2.1-49.5,10.7
				c-37.5,23.6-65.9,59.6-92.5,94.4c-28.8,37.8-55.5,77.4-80,118.1c-9.4,15.6-18.6,31.4-26.6,47.7c-4.9,10-10.6,20.6-11.4,31.9
				c-0.7,10.4,1.7,21.2,4.3,31.2c3.2,12.5,7.5,24.7,12.1,36.7c5.6,14.6,11.7,29.1,18.6,43.2c1.4,2.9,5.4,4.2,8.4,3.4
				c27.3-7.5,56.5-5.4,78.7,13.5c9.5,8,17.4,17.3,22.5,28.7c4.3-2.5,8.6-5,12.8-7.5c-0.7-1.5,0.8,2.1,0,0c-0.6-1.6-1.2-3.1-1.7-4.7
				c-1.7-5.3-3-10.7-3.9-16.1c-2.8-16.8-1.1-34.3,4.9-50.2c7.3-19.3,22.5-32.3,33.7-49.1c9.6-14.4,16.9-30.3,23.1-46.4
				c12.2-31.6,20-65,24.1-98.6c1.3-10.8,2.5-22,1.4-32.9c-0.4-3.9-1-7.4-2.7-11c-1.8-3.8-0.8-7.9,1.4-12.4
				c7.6-15.7,27.4-32.9,46.1-27.9c10,2.7,15.8,12.8,17.2,22.4C579,862.3,593.4,858.3,592,848.9L592,848.9z"/>
		</g>
		<g>
			<path class="st14" d="M308.5,1140.2c-11.8,7.5-22.3,17.9-30.3,29.3c-14.8,21.1-16.6,47.2-1.8,68.9c11.6,17,29.1,29.5,46.8,39.5
				c20.2,11.4,41.8,21.6,64,28.4c18.3,5.7,45.5,11.8,60.8-4.1c7-7.4,9.4-18.3,7.7-28.2c-1.6-9.4-16-5.4-14.3,4
				c0.1,0.5-0.1-2.7-0.1-0.2c0,1.4,0.1,2.7,0,4.1c0,1.1-0.5,3,0,0.8c-0.2,1-0.4,1.9-0.6,2.9c-0.3,1-0.6,1.9-0.9,2.8
				c0.9-2.3-0.7,1.1-1.1,1.8c-1.2,2.2,0.5,0-1.2,1.5c-0.5,0.4-0.9,0.9-1.4,1.3c-1.4,1.3,0.6-0.3-0.7,0.5c-3.4,2.1-3.2,2.1-7.2,3
				c-8,1.9-19.5,0.1-28.8-2.2c-18.4-4.7-35.9-12.5-52.8-20.9c-18.6-9.3-37.4-19.7-51.5-35.2c-15.5-17-18.6-37.7-6.7-57.1
				c4.8-7.8,11-14.6,18.2-20.8c1.4-1.2,2.8-2.4,4.2-3.5c1.5-1.2-0.5,0.3,0.7-0.5c0.5-0.4,1-0.8,1.5-1.1c1-0.7,2-1.4,3-2.1
				C324,1147.9,316.6,1135,308.5,1140.2L308.5,1140.2z"/>
		</g>
		<g>
			<path class="st9" d="M328.6,1220.5c-0.1-1.8-0.1-3.7-0.1-5.5c0-2,0.1-3.9,0.3-5.9c0.1-1,0.2-2.1,0.3-3.1c0.1-0.7,0.1-1.3,0.2-2
				c0.2-1.6-0.2,1.1,0.1-0.7c0.4-2.6,0.9-5.1,1.6-7.7c0.3-1.2,0.6-2.3,1-3.5c0.5-1.5,0.9-2.5,1.1-2.9c0.9-1.9,2.6-4.9,3.3-5.8
				c-0.1,0.1,1.6-1.7,2.1-2.2c1-0.9,0.3-0.3,0-0.1c0.7-0.5,1.5-1,2.3-1.4c1-0.6,3.4-1.2,4.4-1.3c3.5-0.2,6,0.3,9.6,1.4
				c7.7,2.5,15,7.2,21,12.5c11.8,10.4,20.3,23.8,26.8,38c3.4,7.4,6.7,16,8.6,24.4c2.2,9.3,16.5,5.4,14.3-4
				c-5.9-25.3-19.8-51.7-39.3-68.9c-12.1-10.7-31.2-22.6-48.1-17.1c-12.8,4.1-19.3,16.6-22.1,28.9c-2,8.6-2.9,17.9-2.4,26.8
				C314.3,1230,329.1,1230.1,328.6,1220.5L328.6,1220.5z"/>
		</g>
		<g>
			<path class="st9" d="M370.2,1255.5c-0.7-2.1-1.2-4.2-1.7-6.3c-0.5-2.3-1-4.5-1.5-6.8c-0.2-1.3-0.5-2.5-0.6-3.8
				c-0.1-0.5-0.4-3.2-0.1-0.7c-0.1-0.8-0.2-1.5-0.3-2.3c-0.3-3-0.5-6.1-0.6-9.1c0-1.5,0-2.9,0.1-4.4c0-0.8,0.1-1.6,0.2-2.4
				c0-0.3,0.1-0.6,0.1-1c0.1-1.7-0.3,1.7,0,0.1c0.6-2.9,1.3-5.6,2.3-8.4c-0.7,2.1,0,0.1,0.3-0.4c0.3-0.6,0.6-1.1,1-1.7
				c0.3-0.5,1.9-2.3,0.3-0.6c0.5-0.5,0.9-1.1,1.4-1.6c0.5-0.5,1.1-1,1.6-1.4c-1.7,1.5,0.5-0.2,1.1-0.6c0.6-0.3,2.8-1.2,0.7-0.4
				c0.8-0.3,1.5-0.6,2.3-0.8c0.9-0.3,1.9-0.4,2.8-0.6c1.1-0.2-1.9,0.1-0.1,0c0.6,0,1.2-0.1,1.7-0.1c1,0,2.1,0,3.1,0
				c0.5,0,1.1,0.1,1.6,0.1c0.3,0,2.7,0.3,1.1,0.1c4,0.5,8-1,9.1-5.2c1-3.5-1.2-8.6-5.2-9.1c-8.8-1.2-18.2-1.2-25.9,3.9
				c-6.4,4.2-10.5,10.8-12.6,18.1c-3.6,13-1.8,27.3,1,40.3c0.7,3.1,1.4,6.2,2.4,9.2C358.7,1268.6,373.1,1264.7,370.2,1255.5
				L370.2,1255.5z"/>
		</g>
		<ellipse class="st14" cx="619.8" cy="1121.6" rx="33.2" ry="37.7"/>
		<ellipse class="st14" cx="861.6" cy="1123.7" rx="26.3" ry="29.8"/>
		<g>
			<path class="st14" d="M588.8,1153c-5.4-4.6-9.9-10.4-13.2-16.5c-6.9-12.8-5.3-26.4,4.9-37c13.9-14.4,35.2-22.5,55.1-22.2
				c18.9,0.3,35.7,8.8,46.8,24.1c8.5,11.6,21.5,36.1,5.9,47.3c-5.8,4.1-0.2,13.8,5.6,9.6c17.7-12.7,13.5-34.4,4.8-51.4
				c-9.7-19-26.5-34.5-47.7-39c-23.4-4.9-48.2,1.1-67.6,14.7c-16.2,11.3-27.7,28.7-21.9,49c3.2,11.1,10.5,21.8,19.3,29.3
				C586.3,1165.5,594.2,1157.7,588.8,1153L588.8,1153z"/>
		</g>
		<g>
			<path class="st14" d="M839.8,1149.6c1.6,2,0.1,0.2-0.3-0.5c-1-1.5-1.9-3-2.8-4.5c-2.5-4.5-4.2-9-5.3-14.2
				c-3.1-15.5,5.4-28.8,18-37.2c12.8-8.5,28.2-10.5,42.9-5.9c4.6,1.4,8.8,3.5,12.8,6.1c1.3,0.9-0.2-0.4,0.9,0.7
				c0.4,0.4,0.8,0.8,1.2,1.3c0.4,0.5,0.9,1,1.3,1.5c0.9,1.1-0.7-1,0.2,0.3c0.4,0.5,0.7,1,1.1,1.6c2.6,4.1,3.7,8.3,3.6,13.4
				c-0.2,9.3-4.4,18-9.1,25.8c-3.7,6.2,5.9,11.8,9.6,5.6c8.4-14.1,14.6-31.4,7.2-47.2c-4.2-9-11.8-14.3-20.8-18
				c-16.1-6.6-34.4-6.3-50.1,1.4c-17.3,8.5-31.5,25.4-30.6,45.5c0.5,11.5,5.1,23.1,12.2,32.1c1.9,2.4,5.9,1.9,7.9,0
				C842.2,1155.2,841.7,1151.9,839.8,1149.6L839.8,1149.6z"/>
		</g>
		<g>
			<g>
				<g>
					<path class="st14" d="M799,1121.1c-6.5-2.6-13.2-4.7-19.9-6.7c-16-4.8-32.4-8.4-48.9-10.7c-20.8-2.9-42-3.8-62.9-1.2
						c-10.8,1.4-21.5,3.7-31.8,7.2c-1.2,0.4-2.4,0.9-3.6,1.3c-1.1,0.4-2.9,0.8-3.6,1.7c-0.3,0.3-0.4,0.7-0.5,1.1
						c-0.5,1.3-0.9,2.6-1.3,3.9c-3.8,12.1-6.1,25.5-3.4,38c1.5,7.2,5.1,14,10.8,18.7c3.5,2.8,7.5,4.7,11.6,6.4
						c4.9,2.1,9.9,3.8,15,5.2c19.4,5.5,39.8,7.9,59.9,8.2c13,0.2,26.2-0.9,38.9-3.2c14.2-2.5,30.7-7.3,39.4-19.8
						c5.1-7.5,5-16.5,6.2-25.1c0.4-3,0.8-6.1,1.9-8.9c0.2-0.4,0.7-1.3,0.9-1.5c0.3-0.3,0.5-0.4,1-0.5c0.2,0,0.3-0.1,0.5-0.1
						c0.5-0.1-0.3,0,0.1,0c0.4,0,0.8,0,1.1-0.1c0.9,0,1.8,0,2.8,0c4.1,0,8.1-0.6,12.2-0.9c4.3-0.3,10.1-1,13.9,1.6
						c2.1,1.4,2.6,3.6,3.3,5.8c2.3,7.1,3.9,14.5,6.2,21.6c2.1,6.4,4.6,14.2,10.2,18.4c1.8,1.4,4,2.1,6,3.1c2.9,1.3,5.7,2.6,8.6,3.8
						c7.9,3.4,15.9,6.5,24.2,8.9c18.5,5.5,39.8,8.8,58.1,1.1c9.3-3.9,18.7-7.7,28-11.7c3.5-1.5,8.2-3,10.7-6.1
						c2.1-2.4,1.4-5.6,1.4-8.6c0-6.9,0.2-13.9,0.1-20.8c-0.1-7.3-0.2-14.8-1.9-21.9c-0.5-2.2-1.2-4.7-2.8-6.3
						c-1.6-1.6-3.8-2.8-5.7-3.9c-7.4-4.2-15.6-7.3-23.8-9.6c-11.4-3.3-23.3-5-35.2-4.9c-12.2,0.1-24.4,2.2-36.3,4.8
						c-10.3,2.2-20.5,5-30.6,8.2c-3.4,1.1-6.7,2.2-10.1,3.3c-1.5,0.5-3.6,0.9-5,1.8c0,0-0.3,0.1-0.3,0.1c0.2-0.4,1.4,0.4,0.7-0.1
						c-0.7-0.4-1.8-0.6-2.5-0.9c-3.6-1.1-7.3-2-11-2.7c-11.2-2-22.9-1.9-33.7,1.8c-2.4,0.8-1.4,4.6,1,3.8c14.9-5,30.3-2.9,45,1.7
						c2,0.6,4.5-0.9,6.4-1.6c6-2.1,12-4,18.1-5.8c17.8-5.2,36.4-9.7,54.9-10.5c17.8-0.7,36.1,2.9,52.5,10.1c4,1.8,9.3,4.1,12.3,6.8
						c0.9,0.8,1.4,2.1,1.8,3.6c0.7,2.3,1,4.7,1.3,7.1c1.3,11.6,0.8,23.4,0.7,35.1c0,1.5,0,3,0.1,4.5c0,0.4,0,0.9,0,1.3
						c0.1-0.7-0.4,0.9-0.1,0.3c-0.1,0.2-0.2,0.4-0.3,0.5c-0.3,0.4,0.3-0.2-0.2,0.2c-0.1,0.1-0.3,0.3-0.4,0.4
						c-0.5,0.5-0.1,0.1-0.5,0.4c-1.3,0.9-2.7,1.6-4.1,2.3c-5.3,2.5-10.9,4.7-16.4,6.9c-8.2,3.4-16.4,7.7-25.2,9.6
						c-15.5,3.3-31.9,0.2-46.8-4.3c-11.5-3.5-22.5-8.2-33.5-13.2c-1.7-0.7-3.2-1.4-4.5-2.7c-1.8-1.8-3.1-4.1-4.2-6.4
						c-2.8-5.7-4.6-12-6.2-18.1c-1.4-5-2.5-10.3-4.4-15.1c-0.8-2.1-2-3.9-3.9-5.3c-2.9-2.1-6.7-2.5-10.2-2.6
						c-6.6-0.1-13.1,1.1-19.7,1c-2.8,0-5.6,0.2-7.4,2.7c-2.6,3.6-2.9,9.2-3.4,13.4c-0.9,7-0.9,14.4-4.6,20.6
						c-6,10.1-18.3,14.9-29.2,17.6c-10.5,2.7-21.2,3.7-32,4.5c-13.1,1.1-26.5,0.3-39.5-1.2c-16.8-1.9-34-5.1-49.6-11.9
						c-6.1-2.6-11.6-5.9-15.1-11.6c-3-4.8-4.5-10.5-4.9-16.2c-0.8-10,1.1-20.2,4-29.8c0.5-1.7,1.1-3.3,1.7-4.9
						c-0.5,0.5-0.9,0.9-1.4,1.4c28-11.2,58.9-12.6,88.6-9.6c22.6,2.3,45,7.3,66.6,14.2c4.2,1.4,8.4,2.7,12.5,4.4
						C800.3,1125.8,801.3,1122,799,1121.1z"/>
				</g>
			</g>
			<polygon class="st14" points="618.6,1112.2 577.4,1110.6 400.9,1141.4 400.2,1160 574.4,1136.5 606.8,1139.8 			"/>
		</g>
	</g>
	<g>
		<g>
			<path class="st15" d="M1218,542.4v281.4h-43V765c-27.9,5-55.8,10.4-79.5,14.7l-9.7-48c7.2-1.1,15.4-2.1,24.3-3.2V542.4h-16.1
				v-46.2h140.3v46.2H1218z M1175,542.4h-22.9v30.8h22.9V542.4z M1152.1,645.5h22.9V615h-22.9V645.5z M1175,718.9v-31.5h-22.9v34.7
				L1175,718.9z M1395.2,808.3c-1.4-7.9-3.6-17.5-6.1-27.6c-5,29-16.1,37.6-39.7,37.6h-31.9c-36.2,0-44.4-11.5-44.4-45.5v-39
				c-3.9,26.1-9.3,59.1-17.5,80.5l-36.2-16.1c8.9-21.5,16.1-54.4,19.3-81.3l34.4,11.5v-10.4h41.5l-5.7-10l22.2-10h-90.9V515.9h54.8
				c3.6-11.8,7.2-25.4,8.6-35.8l52.6,7.5c-5,10-10,19.7-14.7,28.3h75.2v182.2h-71.2c10,16.1,22.6,36.5,29,49l-16.1,7.9
				c7.5,4.3,18.3,8.2,26.8,10.7c-3.6-13.6-7.2-27.2-10.4-39.4l34.7-12.5c7.5,26.1,17.2,58.7,22.2,80.5L1395.2,808.3z M1281.7,556.7
				v14.7l22.6-14.7H1281.7z M1281.7,595.4c5-2.9,9.7-6.1,14.3-8.9c-5-5-9.7-10-14.3-14.3V595.4z M1314.3,606.8
				c-6.4,5-14,9.7-21.8,14.3c-2.1-4.3-6.4-9.7-10.7-14.7v29.7c14.7-6.8,27.2-14.7,37.9-22.9L1314.3,606.8z M1281.7,656.9h16.1
				c-3.6-6.4-10.7-15-16.1-19.7V656.9z M1350,656.9c-3.6-6.8-8.6-14.3-14-22.2c-10.4,7.9-21.8,15.4-34.7,22.2H1350z M1307.1,556.7
				c3.6,2.9,6.8,6.1,10.4,9.3c2.5-3.2,4.7-6.1,6.4-9.3H1307.1z M1344.7,782.9c6.8,0,8.2-3.9,9.3-25.8l-14.7,7.5
				c-4.7-11.5-14.7-29-23.6-44.7v52.6c0,9.7,1.4,10.4,8.9,10.4H1344.7z M1372.2,556.7h-43.7l25.4,4.3c-4.7,8.9-10.4,17.2-17.2,24.7
				l5,5.7c2.5-3.6,5-6.8,7.2-10.4l23.3,4.3V556.7z M1372.2,656.9v-15.8l-21.5,15.8H1372.2z M1372.2,596.4
				c-3.9,5.7-8.2,11.1-12.9,16.1c5,6.4,9.3,12.5,12.9,17.9V596.4z"/>
			<path class="st15" d="M1690.8,553.5c-9.3,8.2-19.7,16.1-31.1,22.9c33.6,7.2,72.7,11.5,114.5,12.9c-10,11.1-22.6,31.5-28.6,44.7
				c-55.8-4.3-104.5-14-145.7-30.8c-43.3,15-92.7,24-139.2,30.4c-6.1-11.5-20.4-32.9-29.7-43c40.4-2.9,80.9-8.2,117.1-16.5
				c-9.3-6.8-18.3-14.3-26.1-22.6l41.9-17.2c10,8.9,22.6,16.8,37.2,23.3c17.2-6.8,31.9-15,42.6-24.7L1690.8,553.5z M1578.4,502.6
				c-27.6,26.1-71.9,49.8-108.8,63.7c-7.9-9.7-25.1-29.4-35.4-37.9c36.5-9.7,75.9-26.5,97.7-44.7L1578.4,502.6z M1442.4,636.5h166.1
				v39.7h-16.8v147.5h-50.5v-22.6c-35.1,3.2-70.5,5.7-98.8,7.9l-4.3-38.3l24.3-1.1v-93.4h-20V636.5z M1541.2,676.3h-30.8v9.3h30.8
				V676.3z M1510.4,725.7h30.8v-8.6h-30.8V725.7z M1541.2,765v-8.9h-30.8v10.7L1541.2,765z M1725.2,567.8
				c-22.9-16.8-71.6-41.2-108.5-55.1l36.2-30.1c35.1,12.2,84.8,34,111.3,51.5L1725.2,567.8z M1759.5,653.7
				c-10,17.5-21.8,37.6-32.2,53.7c22.9,18.3,29.7,35.4,29.7,50.1c0,19.7-5.7,31.9-20,40.8c-6.4,4.3-14.3,6.8-22.2,7.9
				c-8.9,1.1-20.8,1.4-31.9,1.1c-0.7-13.2-6.1-31.5-13.6-43c7.9,0.7,13.6,0.7,19.3,0.7c3.9,0,7.9-0.4,10.7-1.8
				c3.9-1.8,5.7-5.4,5.7-11.1c0-8.9-7.2-23.3-29.7-38.3c5.7-11.8,11.8-25.8,17.5-38.7h-24.3v148.6h-50.5V636.5h95.6l8.6-1.8
				L1759.5,653.7z"/>
		</g>
	</g>
	<g>
		<path class="st12" d="M998.2,1633.6h-70c-6.9-14.7-5-31.2,7.9-48.3c-31.9,6.7-40.3,34.2-42.5,48.3H588.5
			c-13.9,0-25.2,11.3-25.2,25.2v112.4c0,13.9,11.3,25.2,25.2,25.2h409.7c13.9,0,25.2-11.3,25.2-25.2v-112.4
			C1023.3,1644.9,1012.1,1633.6,998.2,1633.6z"/>
		<g>
			<path class="st20" d="M712.7,1729.4c-4.1-4.5-11.8-11.1-19.1-17.2c-3,5.3-6.5,9.9-10.3,13.7c-2.1-1.7-6.9-4.8-9.9-6.2
				c12.1,16.6,31.6,31.3,51.5,38.7c-3.2,2.5-7.2,7.7-9.3,11.1c-17.2-7.7-33.7-21.1-46.2-36.9v42.2h-13v-41.8
				c-12.6,15.5-29,28.6-45.8,36.3c-2-3.1-5.8-8.1-8.8-10.5c21.4-8.5,42.7-26.1,54.5-44.7v-31.6h-49.5v-11.9h49.5v-17.5h13v17.5h51.1
				v11.9h-51.1v30.9c1.2,2,2.4,3.8,3.7,5.7c9.2-8,15.3-20.4,18.2-34.4l11.9,2.1c-1.2,5.2-2.7,10.2-4.6,14.9
				c8.1,6.2,17.8,13.9,22.9,19.1L712.7,1729.4z M641.1,1687c-1.3,5.3-2.9,10.2-4.9,15c5.3,4.5,10.9,9.7,14.1,13.1l-8.4,8.8
				c-2.4-3-6.5-7.2-10.9-11.3c-4.4,7.8-9.8,14.5-16,19.6c-2-2.3-6.9-6.4-9.5-8.1c11.8-8.8,19.9-22.8,23.7-39.4L641.1,1687z"/>
			<path class="st20" d="M748.3,1703.6v71.2h-12.2v-116.5h49.2v45.2H748.3z M748.3,1667.6v8.9h25.5v-8.9H748.3z M773.7,1694.6v-9.7
				h-25.5v9.7H773.7z M808.9,1743.9v28.5h-11v-28.5h-16c-1.1,8.9-5.3,22.4-17.4,30.5c-1.7-2.3-5.4-5.6-8-7.3
				c9.8-6,13.5-15.9,14.6-23.2H756v-10.2h15.5v-12.6h-13.1v-9.8h64.3v9.8h-13.8v12.6h16.4v10.2H808.9z M797.9,1733.7v-12.6h-15.8
				v12.6H797.9z M845.7,1759.7c0,6.8-1.3,10.3-5.7,12.5c-4.2,2-10.9,2.4-20.8,2.3c-0.4-3.3-2.1-8.9-4-12.2
				c6.8,0.1,13.5,0.1,15.7,0.1c2-0.1,2.7-0.8,2.7-2.8v-55.7h-38.1v-45.5h50.3V1759.7z M807.3,1667.6v8.9h26.3v-8.9H807.3z
				 M833.5,1694.9v-9.9h-26.3v9.9H833.5z"/>
			<path class="st20" d="M881.4,1675.2h19.9v9.8h-44.2v-9.8h23.7c-2.1-4.9-7.2-12.5-11.1-17.8l9.3-5.3c4.2,5.3,9.3,12.5,11.7,17
				L881.4,1675.2z M898.1,1767.2h-26.8v6h-9.4v-44.8h36.2V1767.2z M897.2,1702.6H862v-9.7h35.1V1702.6z M862,1710.4h35.1v9.5H862
				V1710.4z M871.3,1738.2v19h17.2v-19H871.3z M978.6,1753.4h-7.2v9.5c0,5.4-1.2,8.4-5.2,10.1c-4,1.7-10.2,1.7-19.8,1.7
				c-0.4-2.8-1.9-7.2-3.3-9.9c6.1,0.3,12.5,0.3,14.1,0.1c1.9,0,2.4-0.5,2.4-2.1v-9.4h-39.3v21.6H909v-21.6h-7.4v-9h7.4v-33.6h25.2
				v-6.2h-32.6v-9.2H920v-7.6h-12.2v-8.6H920v-6.8h-15.7v-9H920v-10.2h11.1v10.2h17.2v-10.2h11.5v10.2h15.7v9h-15.7v6.8h13.4v8.6
				h-13.4v7.6h18.4v9.2h-32.9v6.2h26v33.6h7.2V1753.4z M920.4,1719.9v8h13.8v-8H920.4z M920.4,1744.3h13.8v-8.4h-13.8V1744.3z
				 M931.2,1679.2h17.2v-6.8h-17.2V1679.2z M931.2,1695.4h17.2v-7.6h-17.2V1695.4z M945.5,1719.9v8h14.2v-8H945.5z M959.7,1744.3
				v-8.4h-14.2v8.4H959.7z"/>
		</g>
	</g>
</g>
</svg>
