<?xml version="1.0" encoding="utf-8"?>
<!-- Generator: Adobe Illustrator 26.1.0, SVG Export Plug-In . SVG Version: 6.00 Build 0)  -->
<svg version="1.1" xmlns="http://www.w3.org/2000/svg" xmlns:xlink="http://www.w3.org/1999/xlink" x="0px" y="0px"
	 viewBox="0 0 2000 2000" style="enable-background:new 0 0 2000 2000;" xml:space="preserve">
<style type="text/css">
	.st0{fill:#1F1F1F;}
	.st1{fill:#4F7FB8;}
	.st2{fill:#4F7FB8;stroke:#1F1F1F;stroke-width:6.6672;stroke-miterlimit:10;}
	.st3{fill:none;stroke:#1F1F1F;stroke-width:5.0004;stroke-miterlimit:10;}
	.st4{fill:none;stroke:#1F1F1F;stroke-width:3.3336;stroke-miterlimit:10;}
	.st5{fill:#4F7FB8;stroke:#1F1F1F;stroke-width:3.3336;stroke-miterlimit:10;}
	.st6{fill:#4F7FB8;stroke:#1F1F1F;stroke-width:5.0004;stroke-miterlimit:10;}
	.st7{fill:#1F1F1F;stroke:#1F1F1F;stroke-width:3.3336;stroke-miterlimit:10;}
	.st8{fill:none;}
</style>
<g id="Artboard_1">
	<g>
		<g>
			<rect class="st0" width="2000" height="2000"/>
		</g>
	</g>
	<g>
		<g>
			<g>
				<g>
					<path class="st1" d="M441.1,1639.3l11.3,39.3c1.3,4.6,5.5,7.8,10.3,7.8h4.3c4.6,0,8.6-3.2,9.6-7.7l8.8-39.3L441.1,1639.3z"/>
					<path class="st1" d="M1551.6,1639.3l11.3,39.3c1.3,4.6,5.5,7.8,10.3,7.8h4.3c4.6,0,8.6-3.2,9.6-7.7l8.8-39.3L1551.6,1639.3z"/>
				</g>
				<g>
					<path class="st2" d="M1084,1641.1c0,0,508.5-2,575.5-2c66.9,0,78.9-54,78.9-54c16-59.9,19-252.8,19-252.8s1.9-49,0-115.9
						c0,0-3-192.8-19-252.8c0,0-11-51-78.9-54c-73.3-3.2-575.5-8-575.5-8s-77.1-0.5-131,0c0,0-502.2,4.8-575.5,8
						c-67.9,3-78.9,54-78.9,54c-16,59.9-19,252.8-19,252.8c-1.9,66.9,0,115.9,0,115.9s3,192.8,19,252.8c0,0,12,54,78.9,54
						c66.9,0,575.5,2,575.5,2S1050.1,1641.7,1084,1641.1z"/>
					<g>
						<g>
							<path class="st3" d="M1274.7,956.5c0,0-757.3-3.8-861.3,5.2c0,0-44,1-53,44c-9,43-22,321.7,7,517.5c0,0,6,40,55,41
								c49,1,743.9,0,743.9,0"/>
							<g>
								<path class="st4" d="M1143.8,1526.6l-692.4-4.1c0,0-40,1-44-35c-17-205.5,0-451.9,0-451.9c4-36,44-35,44-35l751-4.4
									l-28.6,532L1143.8,1526.6"/>
								
									<ellipse transform="matrix(0.7071 -0.7071 0.7071 0.7071 -677.9299 926.7275)" class="st0" cx="779.7" cy="1281.7" rx="234.8" ry="234.8"/>
								<g>
									<path class="st5" d="M1181.1,1026.1H414.6c-3,0-5.5-2.5-5.5-5.5v-1.6c0-3,2.5-5.5,5.5-5.5h766.5c3,0,5.5,2.5,5.5,5.5v1.6
										C1186.5,1023.6,1184.1,1026.1,1181.1,1026.1z"/>
									<path class="st5" d="M1172.1,1062.7H408.3c-3,0-5.5-2.5-5.5-5.5v-1.6c0-3,2.5-5.5,5.5-5.5h763.8c3,0,5.5,2.5,5.5,5.5v1.6
										C1177.6,1060.2,1175.1,1062.7,1172.1,1062.7z"/>
									<path class="st5" d="M1172.1,1100.2H404.6c-3,0-5.5-2.5-5.5-5.5v-1.6c0-3,2.5-5.5,5.5-5.5h767.5c3,0,5.5,2.5,5.5,5.5v1.6
										C1177.6,1097.7,1175.1,1100.2,1172.1,1100.2z"/>
									<path class="st5" d="M1169.1,1137.9H403.3c-3,0-5.5-2.5-5.5-5.5v-1.6c0-3,2.5-5.5,5.5-5.5h765.8c3,0,5.5,2.5,5.5,5.5v1.6
										C1174.6,1135.4,1172.1,1137.9,1169.1,1137.9z"/>
									<path class="st5" d="M1166.1,1175.4H402.3c-3,0-5.5-2.5-5.5-5.5v-1.6c0-3,2.5-5.5,5.5-5.5h763.8c3,0,5.5,2.5,5.5,5.5v1.6
										C1171.6,1172.9,1169.1,1175.4,1166.1,1175.4z"/>
									<path class="st5" d="M1181.1,1501.5h-765c-3,0-5.5,2.5-5.5,5.5v1.6c0,3,2.5,5.5,5.5,5.5h765c3,0,5.5-2.5,5.5-5.5v-1.6
										C1186.5,1504,1184.1,1501.5,1181.1,1501.5z"/>
									<path class="st5" d="M1172.1,1464.9H408.3c-3,0-5.5,2.5-5.5,5.5v1.6c0,3,2.5,5.5,5.5,5.5h763.8c3,0,5.5-2.5,5.5-5.5v-1.6
										C1177.6,1467.4,1175.1,1464.9,1172.1,1464.9z"/>
									<path class="st5" d="M1169.1,1427.4H405.3c-3,0-5.5,2.5-5.5,5.5v1.6c0,3,2.5,5.5,5.5,5.5h763.8c3,0,5.5-2.5,5.5-5.5v-1.6
										C1174.6,1429.9,1172.1,1427.4,1169.1,1427.4z"/>
									<path class="st5" d="M1169.1,1389.7H403.6c-3,0-5.5,2.5-5.5,5.5v1.6c0,3,2.5,5.5,5.5,5.5h765.5c3,0,5.5-2.5,5.5-5.5v-1.6
										C1174.6,1392.2,1172.1,1389.7,1169.1,1389.7z"/>
									<path class="st5" d="M1166.1,1352.3H402.3c-3,0-5.5,2.5-5.5,5.5v1.6c0,3,2.5,5.5,5.5,5.5h763.8c3,0,5.5-2.5,5.5-5.5v-1.6
										C1171.6,1354.7,1169.1,1352.3,1166.1,1352.3z"/>
									<path class="st5" d="M1166.1,1213.1H401.3c-3,0-5.5-2.5-5.5-5.5v-1.6c0-3,2.5-5.5,5.5-5.5h764.8c3,0,5.5,2.5,5.5,5.5v1.6
										C1171.6,1210.6,1169.1,1213.1,1166.1,1213.1z"/>
									<path class="st5" d="M1166.1,1250.6H401c-3,0-5.5-2.5-5.5-5.5v-1.6c0-3,2.5-5.5,5.5-5.5h765.1c3,0,5.5,2.5,5.5,5.5v1.6
										C1171.6,1248.1,1169.1,1250.6,1166.1,1250.6z"/>
									<path class="st5" d="M1166.1,1288.3H401.2c-3,0-5.5-2.5-5.5-5.5v-1.6c0-3,2.5-5.5,5.5-5.5h764.9c3,0,5.5,2.5,5.5,5.5v1.6
										C1171.6,1285.8,1169.1,1288.3,1166.1,1288.3z"/>
									<path class="st5" d="M1166.1,1327.7H402.3c-3,0-5.5-2.5-5.5-5.5v-1.6c0-3,2.5-5.5,5.5-5.5h763.8c3,0,5.5,2.5,5.5,5.5v1.6
										C1171.6,1325.2,1169.1,1327.7,1166.1,1327.7z"/>
								</g>
							</g>
						</g>
						<g>
							<g>
								<circle class="st6" cx="1395.1" cy="1262" r="328.2"/>
								<circle class="st3" cx="1395.1" cy="1262" r="292.1"/>
								
									<ellipse transform="matrix(0.7071 -0.7071 0.7071 0.7071 -483.7335 1356.1044)" class="st7" cx="1395.1" cy="1262" rx="279" ry="279"/>
							</g>
							<g>
								<path class="st5" d="M1125,1332c31.1,120.2,140.2,209,270.1,209c129.7,0,238.7-88.5,270-208.4l-124.6-37.5
									c-15.1,66.4-74.4,116-145.4,116c-71.2,0-130.7-49.9-145.6-116.6L1125,1332z"/>
								<g>
									<g>
										<path id="SVGID_x5F_1_x5F_" class="st8" d="M1192.5,1262c0-111.9,90.7-202.6,202.6-202.6c111.9,0,202.6,90.7,202.6,202.6"
											/>
										<text>										<textPath  xlink:href="#SVGID_x5F_1_x5F_" startOffset="0%">
<tspan  class="st1" style="font-family:'Norwester-Regular'; font-size:56.9494px; letter-spacing:-24;">55  60  70  80 100  120  140 160</tspan>										</textPath>
</text>
										<g>
											<path class="st1" d="M1445.5,1072.9c0-2.7-2.2-4.9-4.9-4.9c-2.7,0-4.9,2.2-4.9,4.9c0,2.7,2.2,4.9,4.9,4.9
												C1443.3,1077.8,1445.5,1075.6,1445.5,1072.9z"/>
											<path class="st1" d="M1515.1,1106.2c0-2.7-2.2-4.9-4.9-4.9c-2.7,0-4.9,2.2-4.9,4.9c0,2.7,2.2,4.9,4.9,4.9
												C1512.9,1111.1,1515.1,1108.9,1515.1,1106.2z"/>
											<path class="st1" d="M1562.6,1159.1c0-2.7-2.2-4.9-4.9-4.9c-2.7,0-4.9,2.2-4.9,4.9c0,2.7,2.2,4.9,4.9,4.9
												C1560.4,1164,1562.6,1161.8,1562.6,1159.1z"/>
											<path class="st1" d="M1588.5,1233.6c0-2.7-2.2-4.9-4.9-4.9c-2.7,0-4.9,2.2-4.9,4.9c0,2.7,2.2,4.9,4.9,4.9
												C1586.3,1238.5,1588.5,1236.3,1588.5,1233.6z"/>
											<path class="st1" d="M1349.1,1073.9c0-2.7-2.2-4.9-4.9-4.9c-2.7,0-4.9,2.2-4.9,4.9c0,2.7,2.2,4.9,4.9,4.9
												C1346.9,1078.8,1349.1,1076.6,1349.1,1073.9z"/>
											<path class="st1" d="M1289.3,1101.8c0-2.7-2.2-4.9-4.9-4.9c-2.7,0-4.9,2.2-4.9,4.9s2.2,4.9,4.9,4.9
												C1287.1,1106.7,1289.3,1104.5,1289.3,1101.8z"/>
											<path class="st1" d="M1231.5,1168.4c0-2.7-2.2-4.9-4.9-4.9c-2.7,0-4.9,2.2-4.9,4.9c0,2.7,2.2,4.9,4.9,4.9
												C1229.3,1173.3,1231.5,1171.1,1231.5,1168.4z"/>
											<path class="st1" d="M1212.4,1226.2c0-2.7-2.2-4.9-4.9-4.9s-4.9,2.2-4.9,4.9c0,2.7,2.2,4.9,4.9,4.9
												S1212.4,1228.9,1212.4,1226.2z"/>
											<path class="st1" d="M1208,1253.6c0-1.9-1.5-3.4-3.4-3.4s-3.4,1.5-3.4,3.4c0,1.9,1.5,3.4,3.4,3.4
												S1208,1255.5,1208,1253.6z"/>
											<path class="st1" d="M1399,1066.6c0-1.9-1.5-3.4-3.4-3.4c-1.9,0-3.4,1.5-3.4,3.4c0,1.9,1.5,3.4,3.4,3.4
												C1397.5,1070,1399,1068.5,1399,1066.6z"/>
											<path class="st1" d="M1317.2,1084.7c0-1.9-1.5-3.4-3.4-3.4c-1.9,0-3.4,1.5-3.4,3.4s1.5,3.4,3.4,3.4
												C1315.7,1088.1,1317.2,1086.6,1317.2,1084.7z"/>
											<circle class="st1" cx="1255.5" cy="1127.3" r="2.6"/>
											<path class="st1" d="M1481.8,1086.7c0-1.9-1.5-3.4-3.4-3.4c-1.9,0-3.4,1.5-3.4,3.4c0,1.9,1.5,3.4,3.4,3.4
												C1480.2,1090.1,1481.8,1088.5,1481.8,1086.7z"/>
											<path class="st1" d="M1537.1,1127.3c0-1.9-1.5-3.4-3.4-3.4s-3.4,1.5-3.4,3.4c0,1.9,1.5,3.4,3.4,3.4
												S1537.1,1129.2,1537.1,1127.3z"/>
											<path class="st1" d="M1576.8,1191.4c0-1.9-1.5-3.4-3.4-3.4s-3.4,1.5-3.4,3.4c0,1.9,1.5,3.4,3.4,3.4
												S1576.8,1193.3,1576.8,1191.4z"/>
											<path class="st1" d="M1589,1258c0-1.9-1.5-3.4-3.4-3.4c-1.9,0-3.4,1.5-3.4,3.4s1.5,3.4,3.4,3.4
												C1587.5,1261.5,1589,1259.9,1589,1258z"/>
										</g>
									</g>
									<g>
										<path class="st1" d="M1284.7,1173.4L1284.7,1173.4c-1.6,1.9-7.2,3.9-9.6,1.8l-68.3-63c-2.4-2.1-3.1-5.3-1.4-7.2l0,0
											c1.6-1.9,4.9-1.7,7.3,0.4l72.7,58.8C1287.9,1166.2,1286.4,1171.5,1284.7,1173.4z"/>
										<g>
											
												<ellipse transform="matrix(0.7071 -0.7071 0.7071 0.7071 -483.7335 1356.1044)" class="st5" cx="1395.1" cy="1262" rx="149.1" ry="149.1"/>
											<g>
												<circle class="st5" cx="1395.1" cy="1262" r="134.1"/>
												<g>
													<g>
														
															<ellipse transform="matrix(0.7071 -0.7071 0.7071 0.7071 -483.7335 1356.1044)" class="st4" cx="1395.1" cy="1262" rx="60.2" ry="60.2"/>
														<circle class="st4" cx="1395.1" cy="1262" r="51.2"/>
													</g>
													<g>
														<g>
															<line class="st4" x1="1334.9" y1="1256.5" x2="1261.1" y2="1258.5"/>
															<line class="st4" x1="1334.9" y1="1267.5" x2="1261.1" y2="1265.5"/>
														</g>
														<g>
															<line class="st4" x1="1455.3" y1="1267.5" x2="1529.1" y2="1265.5"/>
															<line class="st4" x1="1455.3" y1="1256.5" x2="1529.1" y2="1258.5"/>
														</g>
														<g>
															<line class="st4" x1="1389.6" y1="1322.1" x2="1391.6" y2="1395.9"/>
															<line class="st4" x1="1400.6" y1="1322.1" x2="1398.6" y2="1395.9"/>
														</g>
														<g>
															<line class="st4" x1="1400.6" y1="1201.8" x2="1398.6" y2="1128"/>
															<line class="st4" x1="1389.6" y1="1201.8" x2="1391.6" y2="1128"/>
														</g>
													</g>
												</g>
											</g>
										</g>
									</g>
								</g>
							</g>
							<g>
								<g>
									<circle class="st5" cx="1581.6" cy="1513.2" r="66.2"/>
									
										<ellipse transform="matrix(0.9729 -0.2311 0.2311 0.9729 -306.9355 406.5471)" class="st5" cx="1581.6" cy="1513.2" rx="46.5" ry="46.5"/>
								</g>
								<circle class="st5" cx="1208.6" cy="1513.2" r="66.2"/>
								
									<ellipse transform="matrix(0.438 -0.899 0.899 0.438 -681.1666 1936.8948)" class="st5" cx="1208.6" cy="1513.2" rx="46.5" ry="46.5"/>
							</g>
						</g>
					</g>
				</g>
			</g>
			<g>
				<path class="st1" d="M165.1,1704.1c566.1-6.8,1140.7-6.9,1706.8,0C1305.8,1711,731.2,1710.9,165.1,1704.1L165.1,1704.1z"/>
			</g>
		</g>
		<g>
			<g>
				<path class="st1" d="M1218.1,681.5c0,21.6-8,35.7-23.5,42.5l22.2,84.3c1,3.9-1,5.8-4.5,5.8h-33.5c-3.2,0-4.8-1.6-5.5-4.5
					l-21.6-81.8h-22.2v81.1c0,3.2-1.9,5.1-5.2,5.1H1091c-3.2,0-5.1-1.9-5.1-5.1V561.8c0-3.2,1.9-5.1,5.1-5.1h80.8
					c30.3,0,46.3,16.1,46.3,46.3V681.5z M1161.5,685.3c8.4,0,12.9-4.5,12.9-12.9V612c0-8.4-4.5-12.9-12.9-12.9h-31.9v86.3H1161.5z"
					/>
				<path class="st1" d="M1368.1,814.1c-2.9,0-4.5-1.6-5.1-4.5l-9-47h-57.3l-8.7,47c-0.6,2.9-2.3,4.5-5.1,4.5h-34.4
					c-3.5,0-5.1-1.9-4.2-5.5l53.4-247.5c0.6-3.2,2.6-4.5,5.5-4.5h44.7c2.9,0,4.8,1.3,5.5,4.5l53.4,247.5c0.6,3.5-0.6,5.5-4.5,5.5
					H1368.1z M1325.3,612.9l-20.6,112.3h41.2L1325.3,612.9z"/>
				<path class="st1" d="M1435.7,561.8c0-3.2,1.6-5.1,5.1-5.1h77.2c30.3,0,46.3,16.4,46.3,46.7v164.5c0,30.3-16.1,46.3-46.3,46.3
					h-77.2c-3.5,0-5.1-1.6-5.1-5.1V561.8z M1509.1,771.6c8.4,0,12.9-4.2,12.9-12.9V612.3c0-8.7-4.5-13.2-12.9-13.2h-29.6v172.5
					H1509.1z"/>
				<path class="st1" d="M1641.7,556.6c3.2,0,5.2,1.9,5.2,5.1v247.2c0,3.2-1.9,5.1-5.2,5.1h-33.5c-3.5,0-5.1-1.9-5.1-5.1V561.8
					c0-3.2,1.6-5.1,5.1-5.1H1641.7z"/>
				<path class="st1" d="M1685.4,603c0-30.3,16.1-46.3,46.3-46.3h36c30.3,0,46.3,16.1,46.3,46.3v164.8c0,30.3-16.1,46.3-46.3,46.3
					h-36c-30.3,0-46.3-16.1-46.3-46.3V603z M1759.8,772.6c8.4,0,12.9-4.2,12.9-12.9V611c0-8.4-4.5-12.9-12.9-12.9h-18.7
					c-8.4,0-12.9,4.5-12.9,12.9v148.7c0,8.7,4.5,12.9,12.9,12.9H1759.8z"/>
			</g>
		</g>
		<g>
			<g>
				<path class="st1" d="M570.7,292c0,3.2-1.9,5.1-5.1,5.1h-79.8v64.7h60.5c3.2,0,5.1,1.9,5.1,5.1v32.2c0,3.5-1.9,5.1-5.1,5.1h-60.5
					V507c0,3.2-1.9,5.1-5.2,5.1h-33.5c-3.5,0-5.1-1.9-5.1-5.1V259.8c0-3.2,1.6-5.1,5.1-5.1h118.4c3.2,0,5.1,1.9,5.1,5.1V292z"/>
				<path class="st1" d="M718.7,254.7c3.5,0,6.4,2.9,6.4,6.4v204.7c0,30.3-16.1,46.3-46.3,46.3h-36c-30.3,0-46.3-16.1-46.3-46.3
					V261.1c0-3.5,2.9-6.4,6.4-6.4h30.9c3.5,0,6.4,2.9,6.4,6.4v195.7c0,8.7,4.5,12.9,12.9,12.9h16.7c8.4,0,12.9-4.2,12.9-12.9V261.1
					c0-3.5,2.9-6.4,6.4-6.4H718.7z"/>
				<path class="st1" d="M889.7,254.7c3.2,0,5.1,1.9,5.1,5.1V507c0,3.2-1.9,5.1-5.1,5.1h-31.9c-2.9,0-4.8-1.3-5.8-4.2l-49.2-137.4
					h-1.6V507c0,3.2-1.6,5.1-5.2,5.1h-33.5c-3.2,0-5.1-1.9-5.1-5.1V259.8c0-3.2,1.9-5.1,5.1-5.1h31.9c2.9,0,4.8,1.3,5.8,4.2
					l48.9,136.8h1.9V259.8c0-3.2,1.6-5.1,5.1-5.1H889.7z"/>
				<path class="st1" d="M933.4,259.8c0-3.2,1.6-5.1,5.1-5.1h77.2c30.3,0,46.3,16.4,46.3,46.7v164.5c0,30.3-16.1,46.3-46.3,46.3
					h-77.2c-3.5,0-5.1-1.6-5.1-5.1V259.8z M1006.8,469.7c8.4,0,12.9-4.2,12.9-12.9V310.3c0-8.7-4.5-13.2-12.9-13.2h-29.6v172.5
					H1006.8z"/>
				<path class="st1" d="M1199.3,512.1c-2.9,0-4.5-1.6-5.1-4.5l-9-47h-57.3l-8.7,47c-0.6,2.9-2.3,4.5-5.1,4.5h-34.4
					c-3.5,0-5.1-1.9-4.2-5.5l53.4-247.5c0.6-3.2,2.6-4.5,5.5-4.5h44.7c2.9,0,4.8,1.3,5.5,4.5l53.4,247.5c0.6,3.5-0.6,5.5-4.5,5.5
					H1199.3z M1156.5,311l-20.6,112.3h41.2L1156.5,311z"/>
				<path class="st1" d="M1369.2,254.7c4.8,0,7.1,2.9,5.1,7.4l-58.9,143.2v100.4c0,4.2-2.3,6.4-6.4,6.4h-30.9
					c-4.2,0-6.4-2.3-6.4-6.4V405.3l-58.9-143.2c-1.9-4.5,0.3-7.4,5.1-7.4h32.2c3.9,0,6.1,1.6,7.4,5.1l36,92.4l36-92.4
					c1.3-3.5,3.5-5.1,7.4-5.1H1369.2z"/>
			</g>
		</g>
	</g>
</g>
<g id="Artboard_2">
</g>
</svg>
