<svg width="18" height="24" viewBox="0 0 18 24" fill="none" xmlns="http://www.w3.org/2000/svg">
<path d="M9.21697 15.0789C11.2614 15.0789 12.9117 13.4286 12.9117 11.3842V3.99472C12.9117 1.9503 11.2614 0.299988 9.21697 0.299988C7.17255 0.299988 5.52224 1.9503 5.52224 3.99472V11.3842C5.52224 13.4286 7.17255 15.0789 9.21697 15.0789ZM16.4956 11.3842C15.8921 11.3842 15.3872 11.8276 15.2887 12.431C14.7837 15.3253 12.259 17.5421 9.21697 17.5421C6.17497 17.5421 3.65024 15.3253 3.14529 12.431C3.04676 11.8276 2.54182 11.3842 1.93834 11.3842C1.18708 11.3842 0.595923 12.0493 0.706765 12.7882C1.31024 16.4829 4.26603 19.3771 7.98539 19.9067V22.4684C7.98539 23.1458 8.53961 23.7 9.21697 23.7C9.89434 23.7 10.4486 23.1458 10.4486 22.4684V19.9067C14.1679 19.3771 17.1237 16.4829 17.7272 12.7882C17.8503 12.0493 17.2469 11.3842 16.4956 11.3842Z" fill="#174780"/>
</svg>
