<svg width="24" height="17" viewBox="0 0 24 17" fill="none" xmlns="http://www.w3.org/2000/svg">
<path d="M11.7997 0.5C9.88005 0.50602 8.02585 1.19838 6.57206 2.452C5.45788 3.412 4.6506 4.66291 4.4426 5.91818C2.00478 6.45636 0.16333 8.58 0.16333 11.1444C0.16333 14.1233 2.64769 16.5 5.66297 16.5H18.6171C21.2571 16.5 23.4361 14.42 23.4361 11.8062C23.4361 9.42655 21.6295 7.48764 19.3139 7.16036C18.9604 3.40764 15.7124 0.5 11.7997 0.5ZM15.2237 7.98509C15.2913 8.05271 15.345 8.13298 15.3815 8.22133C15.4181 8.30968 15.437 8.40437 15.437 8.5C15.437 8.59563 15.4181 8.69032 15.3815 8.77867C15.345 8.86702 15.2913 8.94729 15.2237 9.01491C15.1561 9.08253 15.0758 9.13617 14.9875 9.17276C14.8991 9.20936 14.8044 9.22819 14.7088 9.22819C14.6132 9.22819 14.5185 9.20936 14.4301 9.17276C14.3418 9.13617 14.2615 9.08253 14.1939 9.01491L12.527 7.34655V12.8636C12.527 13.0565 12.4503 13.2415 12.314 13.3779C12.1776 13.5143 11.9926 13.5909 11.7997 13.5909C11.6068 13.5909 11.4218 13.5143 11.2854 13.3779C11.149 13.2415 11.0724 13.0565 11.0724 12.8636V7.34655L9.40551 9.01491C9.26895 9.15147 9.08373 9.22819 8.8906 9.22819C8.69747 9.22819 8.51226 9.15147 8.37569 9.01491C8.23913 8.87835 8.16241 8.69313 8.16241 8.5C8.16241 8.30687 8.23913 8.12165 8.37569 7.98509L11.2848 5.076C11.3523 5.00827 11.4326 4.95454 11.521 4.91787C11.6093 4.88121 11.704 4.86234 11.7997 4.86234C11.8954 4.86234 11.9901 4.88121 12.0784 4.91787C12.1668 4.95454 12.247 5.00827 12.3146 5.076L15.2237 7.98509Z" fill="white"/>
</svg>
