<svg width="16" height="16" viewBox="0 0 16 16" fill="none" xmlns="http://www.w3.org/2000/svg">
<path d="M8 0.5C12.1421 0.5 15.5 3.85786 15.5 8C15.5 12.1421 12.1421 15.5 8 15.5C5.21986 15.5 2.79513 13.9862 1.49975 11.739L4.14013 10.2201C4.90979 11.5551 6.34841 12.4559 8 12.4559C10.4609 12.4559 12.4559 10.4609 12.4559 8C12.4559 5.53909 10.4609 3.54413 8 3.54413C6.94516 3.54413 5.97835 3.91314 5.21589 4.52649L7.18517 5.92725L0.5 8.15655V1.17016L2.67712 2.71924C4.03595 1.3494 5.91809 0.5 8 0.5Z" fill="white"/>
</svg>
