<svg width="15" height="20" viewBox="0 0 15 20" fill="none" xmlns="http://www.w3.org/2000/svg">
<path d="M7.79993 13C8.86079 13 9.87821 12.5786 10.6284 11.8284C11.3785 11.0783 11.7999 10.0609 11.7999 9V4C11.7999 2.93913 11.3785 1.92172 10.6284 1.17157C9.87821 0.421427 8.86079 0 7.79993 0C6.73906 0 5.72164 0.421427 4.9715 1.17157C4.22135 1.92172 3.79993 2.93913 3.79993 4V9C3.79993 10.0609 4.22135 11.0783 4.9715 11.8284C5.72164 12.5786 6.73906 13 7.79993 13Z" fill="white"/>
<path d="M14.7999 9C14.7999 8.73478 14.6946 8.48043 14.507 8.29289C14.3195 8.10536 14.0651 8 13.7999 8C13.5347 8 13.2804 8.10536 13.0928 8.29289C12.9053 8.48043 12.7999 8.73478 12.7999 9C12.7999 10.3261 12.2731 11.5979 11.3355 12.5355C10.3978 13.4732 9.12601 14 7.79993 14C6.47384 14 5.20208 13.4732 4.26439 12.5355C3.32671 11.5979 2.79993 10.3261 2.79993 9C2.79993 8.73478 2.69457 8.48043 2.50703 8.29289C2.3195 8.10536 2.06514 8 1.79993 8C1.53471 8 1.28036 8.10536 1.09282 8.29289C0.905284 8.48043 0.799927 8.73478 0.799927 9C0.801898 10.6818 1.40933 12.3068 2.51111 13.5775C3.61288 14.8482 5.13533 15.6797 6.79993 15.92V18H4.68993C4.45388 18 4.22751 18.0938 4.0606 18.2607C3.89369 18.4276 3.79993 18.654 3.79993 18.89V19.11C3.79993 19.346 3.89369 19.5724 4.0606 19.7393C4.22751 19.9062 4.45388 20 4.68993 20H10.9099C11.146 20 11.3723 19.9062 11.5393 19.7393C11.7062 19.5724 11.7999 19.346 11.7999 19.11V18.89C11.7999 18.654 11.7062 18.4276 11.5393 18.2607C11.3723 18.0938 11.146 18 10.9099 18H8.79993V15.92C10.4645 15.6797 11.987 14.8482 13.0887 13.5775C14.1905 12.3068 14.798 10.6818 14.7999 9Z" fill="white"/>
</svg>
