<svg width="16" height="16" viewBox="0 0 16 16" fill="none" xmlns="http://www.w3.org/2000/svg">
<path d="M7.74805 0.5C11.8902 0.5 15.248 3.85786 15.248 8C15.248 12.1421 11.8902 15.5 7.74805 15.5C4.96791 15.5 2.54317 13.9862 1.2478 11.739L3.88817 10.2201C4.65783 11.5551 6.09646 12.4559 7.74805 12.4559C10.209 12.4559 12.2039 10.4609 12.2039 8C12.2039 5.53909 10.209 3.54413 7.74805 3.54413C6.69321 3.54413 5.7264 3.91314 4.96393 4.52649L6.93322 5.92725L0.248047 8.15655V1.17016L2.42517 2.71924C3.784 1.3494 5.66613 0.5 7.74805 0.5Z" fill="rgba(255,255,255,0.5)"/>
</svg>
