<svg width="21" height="20" viewBox="0 0 21 20" fill="none" xmlns="http://www.w3.org/2000/svg">
<path d="M17.392 17.5H19.792V19.5H13.792V13.5H15.792V16.23C17.622 14.76 18.792 12.52 18.792 9.99999C18.792 5.92999 15.732 2.55999 11.792 2.06999V0.0499878C16.842 0.549988 20.792 4.80999 20.792 9.99999C20.792 12.99 19.472 15.67 17.392 17.5ZM2.79199 9.99999C2.79199 7.47999 3.96199 5.22999 5.79199 3.76999V6.49999H7.79199V0.499988H1.79199V2.49999H4.19199C2.11199 4.32999 0.791992 7.00999 0.791992 9.99999C0.791992 15.19 4.74199 19.45 9.79199 19.95V17.93C5.85199 17.44 2.79199 14.07 2.79199 9.99999Z" fill="white" fill-opacity="0.8"/>
</svg>
