<svg width="18" height="21" viewBox="0 0 18 21" fill="none" xmlns="http://www.w3.org/2000/svg">
<path d="M15 15.0568C14.24 15.0568 13.56 15.3568 13.04 15.8268L5.91 11.6768C5.96 11.4468 6 11.2168 6 10.9768C6 10.7368 5.96 10.5068 5.91 10.2768L12.96 6.16681C13.5 6.66681 14.21 6.97681 15 6.97681C16.66 6.97681 18 5.63681 18 3.97681C18 2.31681 16.66 0.976807 15 0.976807C13.34 0.976807 12 2.31681 12 3.97681C12 4.21681 12.04 4.44681 12.09 4.67681L5.04 8.78681C4.5 8.28681 3.79 7.97681 3 7.97681C1.34 7.97681 0 9.31681 0 10.9768C0 12.6368 1.34 13.9768 3 13.9768C3.79 13.9768 4.5 13.6668 5.04 13.1668L12.16 17.3268C12.11 17.5368 12.08 17.7568 12.08 17.9768C12.08 19.5868 13.39 20.8968 15 20.8968C16.61 20.8968 17.92 19.5868 17.92 17.9768C17.92 16.3668 16.61 15.0568 15 15.0568Z" fill="white"/>
</svg>
