<svg width="23" height="20" viewBox="0 0 23 20" fill="none" xmlns="http://www.w3.org/2000/svg">
<path fill-rule="evenodd" clip-rule="evenodd" d="M17.2296 0.364356C17.5713 -0.0575611 18.1904 -0.122547 18.6123 0.219206L21.9457 2.91921C22.1761 3.10587 22.31 3.38659 22.31 3.68315C22.31 3.97972 22.1761 4.26044 21.9457 4.4471L18.6123 7.1471C18.1904 7.48886 17.5713 7.42387 17.2296 7.00195C16.8878 6.58004 16.9528 5.96096 17.3747 5.61921L18.5512 4.66628H9.10465C7.24338 4.66628 5.48967 5.26692 4.22373 6.29233C2.96339 7.31321 2.30999 8.64793 2.30999 9.98315C2.30999 10.5261 1.86984 10.9663 1.32687 10.9663C0.783909 10.9663 0.34375 10.5261 0.34375 9.98315C0.34375 7.97665 1.32924 6.10651 2.98613 4.76443C4.63742 3.42689 6.84033 2.70003 9.10465 2.70003H18.5512L17.3747 1.7471C16.9528 1.40535 16.8878 0.786273 17.2296 0.364356ZM21.3269 9.00003C21.8698 9.00003 22.31 9.44019 22.31 9.98315C22.31 11.9897 21.3245 13.8598 19.6676 15.2019C18.0163 16.5394 15.8134 17.2663 13.5491 17.2663H4.10255L5.279 18.2192C5.70092 18.561 5.76591 19.18 5.42415 19.602C5.0824 20.0239 4.46332 20.0889 4.04141 19.7471L0.708074 17.0471C0.477623 16.8604 0.34375 16.5797 0.34375 16.2832C0.34375 15.9866 0.477623 15.7059 0.708074 15.5192L4.04141 12.8192C4.46332 12.4775 5.0824 12.5424 5.42415 12.9644C5.76591 13.3863 5.70092 14.0053 5.279 14.3471L4.10255 15.3H13.5491C15.4104 15.3 17.1641 14.6994 18.43 13.674C19.6904 12.6531 20.3438 11.3184 20.3438 9.98315C20.3438 9.44019 20.7839 9.00003 21.3269 9.00003Z" fill="#A1CDFF"/>
<path d="M5.73242 9.98315C5.73242 9.69149 5.83268 9.44767 6.0332 9.25171C6.23828 9.05575 6.50944 8.95776 6.84668 8.95776C7.18392 8.95776 7.4528 9.05575 7.65332 9.25171C7.8584 9.44767 7.96094 9.69149 7.96094 9.98315C7.96094 10.2748 7.8584 10.5186 7.65332 10.7146C7.4528 10.9106 7.18392 11.0085 6.84668 11.0085C6.50944 11.0085 6.23828 10.9106 6.0332 10.7146C5.83268 10.5186 5.73242 10.2748 5.73242 9.98315Z" fill="#A1CDFF"/>
<path d="M10.213 9.98315C10.213 9.69149 10.3132 9.44767 10.5138 9.25171C10.7188 9.05575 10.99 8.95776 11.3272 8.95776C11.6645 8.95776 11.9333 9.05575 12.1339 9.25171C12.3389 9.44767 12.4415 9.69149 12.4415 9.98315C12.4415 10.2748 12.3389 10.5186 12.1339 10.7146C11.9333 10.9106 11.6645 11.0085 11.3272 11.0085C10.99 11.0085 10.7188 10.9106 10.5138 10.7146C10.3132 10.5186 10.213 10.2748 10.213 9.98315Z" fill="#A1CDFF"/>
<path d="M14.6935 9.98315C14.6935 9.69149 14.7938 9.44767 14.9943 9.25171C15.1994 9.05575 15.4705 8.95776 15.8078 8.95776C16.145 8.95776 16.4139 9.05575 16.6144 9.25171C16.8195 9.44767 16.922 9.69149 16.922 9.98315C16.922 10.2748 16.8195 10.5186 16.6144 10.7146C16.4139 10.9106 16.145 11.0085 15.8078 11.0085C15.4705 11.0085 15.1994 10.9106 14.9943 10.7146C14.7938 10.5186 14.6935 10.2748 14.6935 9.98315Z" fill="#A1CDFF"/>
</svg>
