<svg width="60" height="60" viewBox="0 0 60 60" fill="none" xmlns="http://www.w3.org/2000/svg">
<path d="M29.9782 0.000482807C12.828 0.0941096 0.0638165 12.9245 0.000232996 29.8573C-0.0633505 46.7991 12.894 59.3581 29.9668 60.0001C46.5813 59.5443 59.9372 47.0902 59.9998 30.1058C60.0635 12.7949 46.6698 -0.0908819 29.9782 0.000482807ZM30.0058 56.1405C26.5181 56.113 23.0704 55.3983 19.8617 54.0376C16.6531 52.6768 13.7471 50.6971 11.3115 48.2125C8.87593 45.728 6.95899 42.788 5.6714 39.5622C4.38381 36.3364 3.75106 32.8887 3.80968 29.4182C3.94293 22.5143 6.8182 15.9438 11.8066 11.144C16.795 6.34427 23.4904 3.70586 30.4284 3.80594C37.3402 3.91986 43.9282 6.74127 48.7631 11.6581C53.5981 16.5749 56.29 23.1906 56.2549 30.07C56.1872 36.9724 53.3983 43.5722 48.4888 48.4483C43.5792 53.3244 36.9418 56.0869 30.0058 56.1405Z" fill="#50A7DC"/>
<path d="M36.9407 24.0544C34.7269 23.9938 31.6584 25.8247 31.4902 28.7172C31.4227 29.7587 31.2882 30.7949 31.0876 31.8193C30.4298 35.2955 28.1426 37.2876 24.8637 38.1578C22.0191 38.9128 19.5822 37.8934 17.5646 35.8827C16.1174 34.4809 15.2665 32.5794 15.1877 30.5711C15.1509 29.7886 14.8362 29.2332 13.9585 29.2808C13.0797 29.3285 13.0667 30.013 13.0423 30.6579C13.0375 30.7414 13.0372 30.8251 13.0414 30.9086C13.193 35.3665 16.8629 39.4984 21.2162 40.3239C25.9674 41.2245 30.6439 39.0264 32.4397 34.7765C33.133 33.1358 33.2744 31.2562 33.6039 29.4739C33.8462 28.1629 34.3088 27.0665 35.7002 26.6159C36.2643 26.3799 36.889 26.3279 37.4846 26.4674C38.0803 26.607 38.6161 26.9308 39.0151 27.3925C39.5129 27.9914 39.8767 28.689 40.0822 29.4388C40.2994 30.2142 40.5855 30.6976 41.4518 30.5704C42.325 30.4423 42.2972 29.7673 42.2712 29.1274C42.1677 26.5742 39.6118 24.1272 36.9407 24.0544Z" fill="#50A7DC"/>
<path d="M39.2159 19.6814C34.9766 18.7673 31.2056 19.8008 28.3834 23.6715C26.9167 25.6833 26.4658 28.03 26.367 30.4793C26.3413 31.2204 26.0557 31.9291 25.5596 32.4825C25.0636 33.0358 24.3885 33.3988 23.6515 33.5084C22.453 33.7357 20.9595 32.8634 20.358 31.5621C20.176 31.184 20.0322 30.7889 19.9286 30.3826C19.7652 29.6918 19.4514 29.1843 18.6544 29.2997C17.7236 29.4344 17.7283 30.1525 17.7698 30.8626C17.9197 33.4253 20.5277 35.7851 23.2247 35.7991C24.5712 35.8024 25.8689 35.2978 26.8564 34.387C27.844 33.4761 28.4481 32.2267 28.547 30.8904C28.6302 29.9547 28.8109 29.0271 28.9619 28.0981C29.5912 24.2246 32.9461 21.8898 36.2518 21.5214C39.2439 21.1877 42.9412 23.1784 44.2439 26.738C44.5415 27.5709 44.7508 28.4323 44.8685 29.3084C44.9794 30.0972 45.2351 30.6271 46.1192 30.5739C47.0403 30.5186 46.957 29.7893 46.9931 29.1772C47.0064 28.8109 46.9885 28.4442 46.9393 28.0809C46.6522 26.0695 45.7612 24.1912 44.383 22.6924C43.0048 21.1936 41.2038 20.1441 39.2159 19.6814Z" fill="#50A7DC"/>
</svg>
