<svg width="20" height="21" viewBox="0 0 20 21" fill="none" xmlns="http://www.w3.org/2000/svg">
<circle cx="10" cy="10.0112" r="10" fill="#868686"/>
<path d="M11.2999 5.60327C11.2999 5.05282 10.614 4.80161 10.2584 5.22134L8.6496 7.12273C8.57571 7.21004 8.48368 7.28021 8.37991 7.32836C8.27615 7.3765 8.16314 7.40146 8.04875 7.4015H6.57497C6.15726 7.4015 5.75666 7.56743 5.4613 7.86279C5.16593 8.15816 5 8.55876 5 8.97647V10.5514C5 10.9691 5.16593 11.3697 5.4613 11.6651C5.75666 11.9605 6.15726 12.1264 6.57497 12.1264H8.04875C8.16314 12.1265 8.27615 12.1514 8.37991 12.1996C8.48368 12.2477 8.57571 12.3179 8.6496 12.4052L10.2584 14.3062C10.6136 14.7263 11.2999 14.4751 11.2999 13.9246V5.60327ZM12.6516 7.07705C12.6942 7.04772 12.7422 7.02707 12.7928 7.01629C12.8433 7.0055 12.8956 7.00478 12.9464 7.01418C12.9973 7.02358 13.0458 7.0429 13.0892 7.07105C13.1326 7.0992 13.17 7.13563 13.1993 7.17824C13.7761 8.01731 14.0805 8.88118 14.0805 9.76395C14.0805 10.6467 13.7761 11.5106 13.1993 12.3497C13.17 12.3923 13.1326 12.4287 13.0892 12.4568C13.0458 12.485 12.9973 12.5043 12.9464 12.5137C12.8956 12.5231 12.8433 12.5224 12.7928 12.5116C12.7422 12.5008 12.6942 12.4802 12.6516 12.4509C12.609 12.4215 12.5726 12.3841 12.5444 12.3407C12.5163 12.2973 12.497 12.2488 12.4876 12.198C12.4782 12.1471 12.4789 12.0949 12.4897 12.0443C12.5005 11.9937 12.5211 11.9458 12.5504 11.9032C13.0564 11.1673 13.2934 10.4562 13.2934 9.76395C13.2934 9.07175 13.0564 8.36065 12.5504 7.62435C12.4913 7.5383 12.4689 7.4323 12.4879 7.32967C12.507 7.22704 12.566 7.13618 12.652 7.07705H12.6516ZM14.3278 5.54145C14.2903 5.50578 14.2462 5.47782 14.198 5.45918C14.1498 5.44055 14.0983 5.4316 14.0466 5.43284C13.9949 5.43408 13.944 5.4455 13.8967 5.46643C13.8494 5.48736 13.8067 5.5174 13.771 5.55484C13.7353 5.59228 13.7074 5.63637 13.6888 5.68461C13.6701 5.73285 13.6612 5.78429 13.6624 5.83599C13.6636 5.88769 13.6751 5.93864 13.696 5.98593C13.7169 6.03321 13.747 6.07592 13.7844 6.11159C14.7243 7.00657 15.2129 8.37129 15.2129 9.76395C15.2129 11.1566 14.7243 12.5213 13.7844 13.4163C13.747 13.452 13.7169 13.4947 13.696 13.542C13.6751 13.5893 13.6636 13.6402 13.6624 13.6919C13.6612 13.7436 13.6701 13.7951 13.6888 13.8433C13.7074 13.8915 13.7353 13.9356 13.771 13.9731C13.8067 14.0105 13.8494 14.0405 13.8967 14.0615C13.944 14.0824 13.9949 14.0938 14.0466 14.0951C14.0983 14.0963 14.1498 14.0874 14.198 14.0687C14.2462 14.0501 14.2903 14.0221 14.3278 13.9865C15.4551 12.9127 16 11.3244 16 9.76395C16 8.20355 15.4551 6.61519 14.3278 5.54145Z" fill="black"/>
</svg>
