<svg width="24" height="24" viewBox="0 0 24 24" fill="black" xmlns="http://www.w3.org/2000/svg">
<g clip-path="url(#clip0_474_3515)">
<path d="M4.38318 18.5375C6.44473 18.5375 8.08839 17.7722 9.31418 16.2415C9.31418 16.1341 9.24453 16.0401 9.10524 15.9596L8.31126 14.4289C7.9491 15.1539 7.41282 15.738 6.70242 16.1811C5.99202 16.6242 5.21894 16.8457 4.38318 16.8457H2.33556C2.11269 16.8457 1.91071 16.933 1.72963 17.1076C1.54855 17.2821 1.45801 17.4768 1.45801 17.6916C1.45801 17.9065 1.54855 18.1012 1.72963 18.2757C1.91071 18.4503 2.11269 18.5375 2.33556 18.5375H4.38318ZM19.9284 4.19749C19.4826 3.82154 19.0647 3.82154 18.6747 4.19749C18.2568 4.6003 18.2568 5.00312 18.6747 5.40593L19.803 6.53379H16.3346C14.3009 6.53379 12.6712 7.29913 11.4454 8.82981C11.4454 8.91038 11.5011 9.00436 11.6125 9.11178L12.4065 10.6425C12.7687 9.9174 13.3049 9.33333 14.0153 8.89023C14.7257 8.44714 15.4988 8.2256 16.3346 8.2256H19.803L18.6747 9.35347C18.2568 9.75628 18.2568 10.1591 18.6747 10.5619C18.8419 10.723 19.0508 10.8036 19.3015 10.8036C19.4966 10.8036 19.7055 10.723 19.9284 10.5619L22.6028 7.98391C22.965 7.5811 22.965 7.17829 22.6028 6.77548L19.9284 4.19749ZM19.9284 14.5094C19.4826 14.1335 19.0647 14.1335 18.6747 14.5094C18.2568 14.9122 18.2568 15.3151 18.6747 15.7179L19.803 16.8457H16.3346C15.4988 16.8457 14.7188 16.6242 13.9945 16.1811C13.2701 15.738 12.7129 15.1539 12.3229 14.4289L11.3618 12.5357L10.3589 10.6425L9.941 9.87712C9.43954 8.85667 8.68736 8.04433 7.68444 7.44012C6.68153 6.8359 5.5811 6.53379 4.38318 6.53379H2.33556C2.11269 6.53379 1.91071 6.62107 1.72963 6.79562C1.54855 6.97017 1.45801 7.16486 1.45801 7.3797C1.45801 7.59453 1.54855 7.78922 1.72963 7.96377C1.91071 8.13832 2.11269 8.2256 2.33556 8.2256H4.38318C6.16614 8.2256 7.50336 9.03122 8.39484 10.6425L9.39775 12.5357L10.3589 14.4289L10.8186 15.1942C11.3757 16.2147 12.1488 17.027 13.1378 17.6312C14.1268 18.2354 15.2202 18.5375 16.4182 18.5375H19.9284L18.7583 19.6654C18.3404 20.0682 18.3404 20.471 18.7583 20.8738C18.9255 21.035 19.1344 21.1155 19.3851 21.1155C19.608 21.1155 19.8169 21.035 20.0119 20.8738L22.6864 18.2959C23.0485 17.893 23.0485 17.4902 22.6864 17.0874L19.9284 14.5094Z" fill="white"/>
</g>
<defs>
<clipPath id="clip0_474_3515">
<rect width="24" height="24" fill="white"/>
</clipPath>
</defs>
</svg>
