<svg width="16" height="13" viewBox="0 0 16 13" fill="none" xmlns="http://www.w3.org/2000/svg">
<path d="M12.2503 5.81816C12.2503 5.13886 11.7687 4.57078 11.1305 4.43407C11.3855 4.00836 11.542 3.51607 11.542 2.98482C11.542 1.42224 10.2712 0.151489 8.70866 0.151489C7.63483 0.151489 6.70974 0.758531 6.22949 1.64182C5.74924 0.758531 4.82416 0.151489 3.75033 0.151489C2.18774 0.151489 0.916992 1.42224 0.916992 2.98482C0.916992 3.62374 1.13799 4.20741 1.4957 4.68199C1.31687 4.81269 1.1713 4.98364 1.07077 5.18101C0.970233 5.37839 0.917555 5.59665 0.916992 5.81816V11.4848C0.916992 12.2661 1.55237 12.9015 2.33366 12.9015H10.8337C11.615 12.9015 12.2503 12.2661 12.2503 11.4848V9.61695L15.0837 11.0336V6.07528L12.2503 7.49195V5.81816ZM8.70866 1.56816C9.48995 1.56816 10.1253 2.20353 10.1253 2.98482C10.1253 3.76611 9.48995 4.40149 8.70866 4.40149C7.92737 4.40149 7.29199 3.76611 7.29199 2.98482C7.29199 2.20353 7.92737 1.56816 8.70866 1.56816ZM3.75033 1.56816C4.53162 1.56816 5.16699 2.20353 5.16699 2.98482C5.16699 3.76611 4.53162 4.40149 3.75033 4.40149C2.96903 4.40149 2.33366 3.76611 2.33366 2.98482C2.33366 2.20353 2.96903 1.56816 3.75033 1.56816Z" fill="white"/>
</svg>
