<svg width="14" height="10" viewBox="0 0 14 10" fill="none" xmlns="http://www.w3.org/2000/svg">
<path d="M7 0.338989C3.875 0.338989 1.20625 2.28274 0.125 5.02649C1.20625 7.77024 3.875 9.71399 7 9.71399C10.125 9.71399 12.7937 7.77024 13.875 5.02649C12.7937 2.28274 10.125 0.338989 7 0.338989ZM7 8.15149C5.275 8.15149 3.875 6.75149 3.875 5.02649C3.875 3.30149 5.275 1.90149 7 1.90149C8.725 1.90149 10.125 3.30149 10.125 5.02649C10.125 6.75149 8.725 8.15149 7 8.15149ZM7 3.15149C5.9625 3.15149 5.125 3.98899 5.125 5.02649C5.125 6.06399 5.9625 6.90149 7 6.90149C8.0375 6.90149 8.875 6.06399 8.875 5.02649C8.875 3.98899 8.0375 3.15149 7 3.15149Z" fill="white"/>
</svg>
