<?xml version="1.0" encoding="utf-8"?>
<!-- Generator: Adobe Illustrator 23.0.0, SVG Export Plug-In . SVG Version: 6.00 Build 0)  -->
<svg version="1.1" id="圖層_1" xmlns="http://www.w3.org/2000/svg" xmlns:xlink="http://www.w3.org/1999/xlink" x="0px" y="0px"
	 viewBox="0 0 17 34" style="enable-background:new 0 0 17 34;" xml:space="preserve">
<style type="text/css">
	.st0{clip-path:url(#SVGID_2_);}
	.st1{fill:#FFFFFF;}
	.st2{clip-path:url(#SVGID_4_);}
	.st3{fill:#F63E5E;}
</style>
<g>
	<defs>
		<rect id="SVGID_1_" x="0.3" y="0.8" width="16" height="16"/>
	</defs>
	<clipPath id="SVGID_2_">
		<use xlink:href="#SVGID_1_"  style="overflow:visible;"/>
	</clipPath>
	<g class="st0">
		<path class="st1" d="M9.1,0.9c-1-0.2-1.8,0.5-1.9,1.4C7.1,3.4,7,4.3,6.8,4.9c-0.1,0.4-0.5,1-1,1.6C5.2,7.2,4.5,7.7,3.6,7.9
			C2.9,8.1,2.3,8.7,2.3,9.6v4c0,0.8,0.7,1.5,1.4,1.5c1.1,0.1,1.6,0.4,2.1,0.7l0,0c0.3,0.2,0.6,0.3,1,0.5c0.4,0.1,0.9,0.2,1.5,0.2
			h3.5c0.9,0,1.6-0.5,1.9-1.1c0.2-0.3,0.2-0.6,0.3-0.9c0-0.2,0-0.3-0.1-0.5c0.2-0.3,0.4-0.6,0.5-0.9c0.1-0.3,0.2-0.8,0-1.1
			c0.1-0.1,0.1-0.3,0.2-0.4c0.1-0.3,0.1-0.6,0.1-0.9c0-0.3,0-0.6-0.1-0.9c0-0.1-0.1-0.2-0.1-0.4c0.2-0.2,0.3-0.5,0.3-0.8
			c0-0.3,0-0.6-0.1-0.9c-0.2-0.6-0.7-1.1-1.2-1.3c-0.8-0.3-1.8-0.3-2.5-0.2c-0.1,0-0.3,0-0.4,0.1c0.3-1.5,0.3-3-0.1-4.5
			c-0.1-0.2-0.2-0.5-0.4-0.6C9.8,1.1,9.6,1,9.4,1L9.1,0.9z M11.8,15.6H8.3c-0.5,0-0.9-0.1-1.1-0.2c-0.3-0.1-0.5-0.2-0.8-0.4l0,0
			c-0.6-0.3-1.2-0.7-2.5-0.9c-0.3,0-0.6-0.3-0.6-0.6v-4c0-0.3,0.2-0.5,0.6-0.7c1.1-0.3,2-1,2.6-1.7c0.6-0.7,1.1-1.5,1.2-2
			C8,4.5,8.1,3.5,8.2,2.4c0-0.4,0.4-0.6,0.7-0.5l0.3,0.1c0.2,0,0.3,0.1,0.3,0.3c0.4,1.6,0.4,3.2-0.1,4.7c0,0.1,0,0.2,0,0.3
			c0,0.1,0.1,0.2,0.1,0.2c0.1,0.1,0.1,0.1,0.2,0.1c0.1,0,0.2,0,0.3,0l0,0l0,0l0.1,0c0.3-0.1,0.7-0.1,1-0.2c0.7-0.1,1.5-0.1,2.1,0.2
			c0.2,0.1,0.4,0.3,0.6,0.7c0.1,0.3,0.1,0.7-0.3,1L13,9.6l0.4,0.4c0,0,0.1,0.1,0.2,0.3c0,0.2,0.1,0.4,0.1,0.6c0,0.2,0,0.4-0.1,0.6
			c-0.1,0.2-0.1,0.3-0.2,0.3L13,12.1l0.4,0.4c0,0,0.1,0.2,0,0.5c-0.1,0.3-0.3,0.6-0.5,0.8l-0.4,0.4l0.4,0.4c0,0,0,0,0,0.2
			c0,0.1,0,0.3-0.1,0.4C12.7,15.3,12.3,15.6,11.8,15.6L11.8,15.6z"/>
	</g>
</g>
<g>
	<defs>
		<rect id="SVGID_3_" x="0.3" y="18" width="16" height="16"/>
	</defs>
	<clipPath id="SVGID_4_">
		<use xlink:href="#SVGID_3_"  style="overflow:visible;"/>
	</clipPath>
	<g class="st2">
		<path class="st3" d="M9.1,18c-1-0.2-1.8,0.5-1.9,1.4c-0.1,1.1-0.2,2-0.4,2.6c-0.1,0.4-0.5,1-1,1.6c-0.6,0.6-1.3,1.2-2.1,1.4
			c-0.7,0.2-1.4,0.8-1.4,1.6v4c0,0.8,0.7,1.5,1.4,1.5c1.1,0.1,1.6,0.4,2.1,0.7l0,0c0.3,0.2,0.6,0.3,1,0.5c0.4,0.1,0.9,0.2,1.5,0.2
			h3.5c0.9,0,1.6-0.5,1.9-1.1c0.2-0.3,0.2-0.6,0.3-0.9c0-0.2,0-0.3-0.1-0.5c0.2-0.3,0.4-0.6,0.5-0.9c0.1-0.3,0.2-0.8,0-1.1
			c0.1-0.1,0.1-0.3,0.2-0.4c0.1-0.3,0.1-0.6,0.1-0.9c0-0.3,0-0.6-0.1-0.9c0-0.1-0.1-0.2-0.1-0.4c0.2-0.2,0.3-0.5,0.3-0.8
			c0-0.3,0-0.6-0.1-0.9c-0.2-0.6-0.7-1.1-1.2-1.3c-0.8-0.3-1.8-0.3-2.5-0.2c-0.1,0-0.3,0-0.4,0c0.3-1.5,0.3-3-0.1-4.5
			c-0.1-0.2-0.2-0.5-0.4-0.6c-0.2-0.2-0.4-0.3-0.6-0.3L9.1,18z"/>
	</g>
</g>
</svg>
