<svg width="17" height="17" viewBox="0 0 17 17" fill="none" xmlns="http://www.w3.org/2000/svg">
<g clip-path="url(#clip0_1116_17952)">
<path d="M9.114 0.888736C8.158 0.649736 7.27 1.37274 7.206 2.30874C7.134 3.35974 6.976 4.32474 6.778 4.89874C6.653 5.25874 6.299 5.91174 5.738 6.53774C5.181 7.16074 4.456 7.71574 3.607 7.94774C2.935 8.13074 2.25 8.71274 2.25 9.56274V13.5637C2.25 14.4087 2.932 15.0277 3.698 15.1087C4.768 15.2227 5.262 15.5237 5.766 15.8317L5.814 15.8617C6.086 16.0267 6.392 16.2097 6.784 16.3457C7.181 16.4817 7.645 16.5627 8.25 16.5627H11.75C12.687 16.5627 13.349 16.0857 13.684 15.4987C13.8459 15.2217 13.9334 14.9076 13.938 14.5867C13.938 14.4347 13.915 14.2747 13.861 14.1227C14.062 13.8597 14.241 13.5447 14.349 13.2217C14.459 12.8917 14.521 12.4597 14.353 12.0727C14.422 11.9427 14.473 11.8037 14.512 11.6697C14.589 11.3997 14.625 11.1017 14.625 10.8127C14.625 10.5247 14.589 10.2277 14.512 9.95674C14.477 9.83215 14.4308 9.71099 14.374 9.59474C14.5491 9.34561 14.6618 9.05805 14.7025 8.75627C14.7432 8.4545 14.7108 8.14736 14.608 7.86074C14.402 7.26874 13.926 6.76074 13.408 6.58874C12.561 6.30674 11.605 6.31274 10.892 6.37774C10.744 6.39105 10.5963 6.40773 10.449 6.42774C10.7959 4.94212 10.7746 3.39425 10.387 1.91874C10.3196 1.68232 10.1902 1.46822 10.0123 1.29857C9.83436 1.12891 9.61435 1.00986 9.375 0.953736L9.114 0.888736ZM11.75 15.5637H8.25C7.74 15.5637 7.387 15.4947 7.11 15.3997C6.829 15.3027 6.604 15.1717 6.334 15.0067L6.294 14.9827C5.739 14.6437 5.096 14.2517 3.804 14.1147C3.471 14.0787 3.25 13.8247 3.25 13.5647V9.56274C3.25 9.30874 3.476 9.01974 3.87 8.91273C4.965 8.61273 5.847 7.91674 6.484 7.20474C7.119 6.49474 7.548 5.72974 7.722 5.22674C7.965 4.52674 8.129 3.45874 8.204 2.37674C8.229 2.01474 8.564 1.78274 8.871 1.85874L9.133 1.92474C9.293 1.96474 9.391 2.06774 9.421 2.17974C9.82939 3.73576 9.77903 5.37668 9.276 6.90474C9.24753 6.98972 9.24242 7.0808 9.26122 7.16844C9.28002 7.25607 9.32203 7.33705 9.38285 7.40288C9.44368 7.46871 9.52108 7.51698 9.60695 7.54264C9.69283 7.5683 9.78403 7.57041 9.871 7.54874L9.874 7.54774L9.888 7.54474L9.946 7.53074C10.288 7.45812 10.6339 7.4057 10.982 7.37374C11.645 7.31374 12.439 7.31974 13.092 7.53774C13.267 7.59574 13.542 7.83774 13.662 8.18774C13.769 8.49574 13.749 8.85773 13.396 9.20973L13.043 9.56274L13.396 9.91674C13.439 9.95974 13.501 10.0577 13.55 10.2317C13.598 10.3987 13.625 10.6017 13.625 10.8127C13.625 11.0247 13.598 11.2267 13.55 11.3947C13.5 11.5687 13.439 11.6667 13.396 11.7097L13.043 12.0627L13.396 12.4167C13.443 12.4637 13.505 12.5937 13.401 12.9047C13.2926 13.2063 13.1204 13.4809 12.896 13.7097L12.543 14.0627L12.896 14.4167C12.902 14.4217 12.937 14.4667 12.937 14.5867C12.9326 14.7334 12.8909 14.8766 12.816 15.0027C12.651 15.2907 12.313 15.5627 11.75 15.5627V15.5637Z" fill="white"/>
</g>
<defs>
<clipPath id="clip0_1116_17952">
<rect width="16" height="16" fill="white" transform="translate(0.25 0.842773)"/>
</clipPath>
</defs>
</svg>
