<?xml version="1.0" encoding="utf-8"?>
<!-- Generator: Adobe Illustrator 23.0.0, SVG Export Plug-In . SVG Version: 6.00 Build 0)  -->
<svg version="1.1" id="圖層_1" xmlns="http://www.w3.org/2000/svg" xmlns:xlink="http://www.w3.org/1999/xlink" x="0px" y="0px"
	 viewBox="0 0 17.1 34.1" style="enable-background:new 0 0 17.1 34.1;" xml:space="preserve">
<style type="text/css">
	.st0{display:none;}
	.st1{fill:#FFFBFB;}
	.st2{fill:#FFFFFF;}
</style>
<rect y="0" class="st0" width="17" height="34"/>
<image style="display:none;overflow:visible;" width="17" height="34" xlink:href="voice_play_time.png" >
</image>
<path class="st1" d="M8.5,15.9c-2,0-3.9-0.8-5.3-2.2c-1.4-1.4-2.2-3.3-2.2-5.3s0.8-3.9,2.2-5.3c1.4-1.4,3.3-2.2,5.3-2.2
	s3.9,0.8,5.3,2.2c1.4,1.4,2.2,3.3,2.2,5.3s-0.8,3.9-2.2,5.3C12.4,15.2,10.5,15.9,8.5,15.9z M8.5,17c2.3,0,4.4-0.9,6-2.5
	c1.6-1.6,2.5-3.8,2.5-6c0-2.3-0.9-4.4-2.5-6C12.9,0.9,10.8,0,8.5,0c-2.3,0-4.4,0.9-6,2.5C0.9,4.1,0,6.2,0,8.5c0,2.3,0.9,4.4,2.5,6
	C4.1,16.1,6.2,17,8.5,17z"/>
<path class="st1" d="M6.7,5.4c0.1,0,0.2-0.1,0.3-0.1c0.1,0,0.2,0,0.3,0.1l3.7,2.7c0.1,0,0.1,0.1,0.2,0.2c0,0.1,0.1,0.2,0.1,0.2
	c0,0.1,0,0.2-0.1,0.2c0,0.1-0.1,0.1-0.2,0.2l-3.7,2.7c-0.1,0.1-0.2,0.1-0.3,0.1c-0.1,0-0.2,0-0.3-0.1c-0.1,0-0.2-0.1-0.2-0.2
	c-0.1-0.1-0.1-0.2-0.1-0.3V5.8c0-0.1,0-0.2,0.1-0.3C6.5,5.5,6.6,5.4,6.7,5.4z"/>
<g>
	<path class="st1" d="M8.5,33c-2,0-3.9-0.8-5.3-2.2c-1.4-1.4-2.2-3.3-2.2-5.3s0.8-3.9,2.2-5.3c1.4-1.4,3.3-2.2,5.3-2.2
		s3.9,0.8,5.3,2.2c1.4,1.4,2.2,3.3,2.2,5.3s-0.8,3.9-2.2,5.3C12.4,32.2,10.5,33,8.5,33z M8.5,34.1c2.3,0,4.4-0.9,6-2.5
		c1.6-1.6,2.5-3.8,2.5-6c0-2.3-0.9-4.4-2.5-6c-1.6-1.6-3.8-2.5-6-2.5c-2.3,0-4.4,0.9-6,2.5c-1.6,1.6-2.5,3.8-2.5,6
		c0,2.3,0.9,4.4,2.5,6C4.1,33.2,6.2,34.1,8.5,34.1z"/>
	<path class="st2" d="M6.7,29.1c0.5,0,0.9-0.4,0.9-0.9v-5.3c0-0.5-0.4-0.9-0.9-0.9c-0.5,0-0.9,0.4-0.9,0.9v5.3
		C5.8,28.7,6.2,29.1,6.7,29.1z M10.3,29.1c0.5,0,0.9-0.4,0.9-0.9v-5.3c0-0.5-0.4-0.9-0.9-0.9c-0.5,0-0.9,0.4-0.9,0.9v5.3
		C9.4,28.7,9.8,29.1,10.3,29.1z"/>
	<path class="st2" d="M6.7,29.1c0.5,0,0.9-0.4,0.9-0.9v-5.3c0-0.5-0.4-0.9-0.9-0.9c-0.5,0-0.9,0.4-0.9,0.9v5.3
		C5.8,28.7,6.2,29.1,6.7,29.1z M10.3,29.1c0.5,0,0.9-0.4,0.9-0.9v-5.3c0-0.5-0.4-0.9-0.9-0.9c-0.5,0-0.9,0.4-0.9,0.9v5.3
		C9.4,28.7,9.8,29.1,10.3,29.1z"/>
</g>
</svg>
