<svg width="25" height="24" viewBox="0 0 25 24" fill="none" xmlns="http://www.w3.org/2000/svg">
<path d="M5.9381 17.6524V21.2412L10.3776 17.6524" fill="white"/>
<path fill-rule="evenodd" clip-rule="evenodd" d="M5.13043 2.75882C3.58815 2.75882 2.33789 4.00908 2.33789 5.55136V14.8598C2.33789 16.4021 3.58815 17.6524 5.13043 17.6524H20.024C21.5663 17.6524 22.8165 16.4021 22.8165 14.8598V5.55136C22.8165 4.00908 21.5663 2.75882 20.024 2.75882H5.13043ZM10.8793 10.0809C11.1992 10.961 11.7509 11.734 12.4734 12.3149C13.0267 11.8565 13.4807 11.2859 13.8066 10.6392C14.1325 9.9924 14.3231 9.28361 14.3665 8.55771H8.3884V6.52676H11.3774V4.49581H13.3701V6.52676H16.6583L16.7578 7.54229C16.805 8.60935 16.6346 9.67478 16.2573 10.6711C15.88 11.6674 15.304 12.573 14.5659 13.3303C15.1796 13.5229 15.817 13.6255 16.459 13.635V15.666C15.1053 15.6299 13.7771 15.2828 12.5731 14.6504C11.3215 15.2488 9.96795 15.5937 8.58759 15.666L8.48793 13.635C9.19589 13.6335 9.90017 13.5309 10.5803 13.3303C9.70293 12.4346 9.0827 11.3108 8.78691 10.0809H10.8793Z" fill="white"/>
</svg>
