<svg width="17" height="17" viewBox="0 0 17 17" fill="none" xmlns="http://www.w3.org/2000/svg">
<path d="M8.30274 1.16064C6.91827 1.16064 5.56489 1.57119 4.41375 2.34036C3.2626 3.10953 2.36539 4.20278 1.83558 5.48186C1.30577 6.76094 1.16714 8.16841 1.43724 9.52628C1.70734 10.8841 2.37402 12.1314 3.35299 13.1104C4.33196 14.0894 5.57924 14.756 6.93711 15.0261C8.29497 15.2962 9.70244 15.1576 10.9815 14.6278C12.2606 14.098 13.3539 13.2008 14.123 12.0496C14.8922 10.8985 15.3027 9.54511 15.3027 8.16064C15.3027 6.30413 14.5652 4.52365 13.2525 3.2109C11.9397 1.89814 10.1593 1.16064 8.30274 1.16064ZM8.30274 14.1606C7.11605 14.1606 5.95601 13.8088 4.96932 13.1495C3.98262 12.4902 3.21359 11.5531 2.75946 10.4567C2.30533 9.36039 2.18651 8.15399 2.41803 6.9901C2.64954 5.82622 3.22098 4.75712 4.0601 3.918C4.89921 3.07889 5.96831 2.50744 7.1322 2.27593C8.29608 2.04442 9.50248 2.16324 10.5988 2.61737C11.6952 3.07149 12.6323 3.84053 13.2916 4.82722C13.9508 5.81392 14.3027 6.97396 14.3027 8.16064C14.3027 9.75194 13.6706 11.2781 12.5454 12.4033C11.4202 13.5285 9.89404 14.1606 8.30274 14.1606Z" fill="white"/>
</svg>
