<?xml version="1.0" encoding="utf-8"?>
<!-- Generator: Adobe Illustrator 23.0.0, SVG Export Plug-In . SVG Version: 6.00 Build 0)  -->
<svg version="1.1" id="圖層_1" xmlns="http://www.w3.org/2000/svg" xmlns:xlink="http://www.w3.org/1999/xlink" x="0px" y="0px"
	 viewBox="0 0 16 32" style="enable-background:new 0 0 16 32;" xml:space="preserve">
<style type="text/css">
	.st0{display:none;}
	.st1{opacity:0.5;fill:#FFFFFF;}
	.st2{fill:#FFFFFF;}
</style>
<rect y="16.1" class="st0" width="16" height="16"/>
<path class="st1" d="M8.3,14.7c-3.7,0-6.7-3-6.7-6.7c0-3.7,3-6.7,6.7-6.7C12,1.3,15,4.3,15,8C15,11.7,12,14.7,8.3,14.7z M5.6,6.7
	L4.3,8l3.3,3.3l4.7-4.7L11,5.3L7.6,8.7L5.6,6.7z"/>
<path class="st2" d="M8.3,30.7c-3.7,0-6.7-3-6.7-6.7c0-3.7,3-6.7,6.7-6.7c3.7,0,6.7,3,6.7,6.7C15,27.8,12,30.7,8.3,30.7z M5.6,22.7
	l-1.3,1.3l3.3,3.3l4.7-4.7L11,21.4l-3.3,3.3L5.6,22.7z"/>
</svg>
