<svg width="7" height="7" viewBox="0 0 7 7" fill="none" xmlns="http://www.w3.org/2000/svg">
<path d="M3.30274 0.160645C2.70939 0.160645 2.12937 0.336592 1.63602 0.666236C1.14268 0.99588 0.75816 1.46442 0.531097 2.01259C0.304034 2.56077 0.244624 3.16397 0.36038 3.74592C0.476136 4.32786 0.761858 4.86241 1.18142 5.28196C1.60097 5.70152 2.13552 5.98724 2.71746 6.103C3.29941 6.21876 3.90261 6.15935 4.45079 5.93228C4.99896 5.70522 5.4675 5.3207 5.79714 4.82735C6.12679 4.33401 6.30274 3.75399 6.30274 3.16064C6.30274 2.365 5.98667 1.60193 5.42406 1.03932C4.86145 0.476715 4.09839 0.160645 3.30274 0.160645Z" fill="white"/>
</svg>
