<?xml version="1.0" encoding="utf-8"?>
<!-- Generator: Adobe Illustrator 25.4.1, SVG Export Plug-In . SVG Version: 6.00 Build 0)  -->
<svg version="1.1" id="圖層_1" xmlns="http://www.w3.org/2000/svg" xmlns:xlink="http://www.w3.org/1999/xlink" x="0px" y="0px"
	 viewBox="0 0 96.9 15" style="enable-background:new 0 0 96.9 15;" xml:space="preserve">
<style type="text/css">
	.st0{fill:#FFFFFF;}
</style>
<path class="st0" d="M25.5,0.5h3.1v14.1h-3.1c-0.8-2.5-1.6-5.1-2.4-7.5c0.1,0.7,0.2,1.4,0.2,2.1c0,1.8,0.1,3.5,0.1,5.3
	c0,0,0,0.1,0,0.1h-3c0-0.1,0-0.2,0-0.3c0-4.5,0-9,0-13.4c0-0.1,0-0.2,0-0.3h3c0.8,2.7,1.7,5.4,2.5,8C25.5,5.9,25.4,3.2,25.5,0.5z"/>
<path class="st0" d="M33.8,11.3c0.5,0,0.8-0.2,1-0.5c0.2-0.3,0.3-0.6,0.4-0.9c0.3-1.3,0.3-2.5,0.1-3.8c-0.1-0.5-0.3-1-0.6-1.4
	c-0.2-0.3-0.5-0.5-1-0.5V11.3z M30.6,0.5H34c0.1,0,0.2,0,0.3,0.1c0.9,0.1,1.7,0.5,2.3,1c0.9,0.8,1.4,1.7,1.7,2.7
	c0.5,1.5,0.5,3.1,0.4,4.6C38.7,10,38.4,11.1,38,12c-0.6,1.2-1.4,2.1-2.9,2.5c-0.3,0.1-0.5,0.1-0.8,0.2h-3.7V0.5z"/>
<path class="st0" d="M15,0.5h3.2c0,0.4,0,0.9,0,1.3c0,3,0,6,0,9c0,1.2-0.5,2.3-1.6,3c-0.5,0.4-1.1,0.6-1.7,0.7h-1.2c0,0-0.1,0-0.1,0
	c-1.5-0.2-2.5-1-3-2.3c-0.3-0.8-0.4-1.6-0.4-2.5c0-3.1,0-6.2,0-9.3h3.2c0,3.1,0,6.2,0,9.3c0,0.3,0,0.6,0.1,0.9
	c0.1,0.4,0.3,0.6,0.7,0.6c0.4,0,0.6-0.2,0.7-0.6c0.1-0.4,0.1-0.8,0.1-1.3c0-2.8,0-5.6,0-8.4C14.9,0.8,15,0.7,15,0.5z"/>
<path class="st0" d="M45.1,9.9C45,8,44.8,6.2,44.6,4.4c-0.2,1.8-0.5,3.6-0.7,5.5H45.1z M49.1,14.6h-3.3c-0.1-0.6-0.2-1.2-0.2-1.9
	c-0.7,0-1.3,0-2,0c0,0-0.1,0-0.1,0.1c0,0-0.1,0.1-0.1,0.1c-0.1,0.6-0.1,1.1-0.2,1.7h-3.4c0-0.1,0-0.2,0.1-0.3
	c0.3-1.3,0.5-2.6,0.8-3.9c0.5-2.3,0.9-4.6,1.4-6.9c0.2-1,0.4-2,0.6-3h3.9c0.4,2.1,0.7,4.2,1.1,6.2c0.4,2,0.7,4,1.1,6
	C48.9,13.4,49,14,49.1,14.6z"/>
<path class="st0" d="M8,0.5v3.2H3.2v1.9h3.1v3.1H3.2v5.9H0V0.5H8z"/>
<path class="st0" d="M55.2,0.5c1.1,0,2.1,0,3.2,0c0.1,0,0.1,0,0.2,0.1c0,0.1-0.1,0.2-0.1,0.2c-0.9,2.5-1.7,5-2.5,7.5
	c-0.1,0.2-0.1,0.4-0.1,0.6c0,1.7,0,3.5,0,5.2c0,0.1,0,0.2,0,0.4h-3.2c0-1.9,0-3.8,0-5.7c0-0.2,0-0.3-0.1-0.5c-0.4-1-0.8-2.1-1.1-3.1
	c-0.6-1.6-1.2-3.2-1.7-4.9H53c0.4,1.4,0.7,2.7,1.1,4.1C54.5,3.3,54.8,1.9,55.2,0.5z"/>
<path class="st0" d="M79.3,0.3c-0.9,1.3-2.5,2.6-3.9,3.4c0.4,0.3,0.8,0.7,1.1,1c1.5-0.9,3.1-2.4,4.3-3.8L79.3,0.3z M79.7,4.6
	c-1,1.4-2.8,2.8-4.3,3.6c0.4,0.3,0.8,0.7,1,1.1c1.7-1,3.5-2.5,4.7-4L79.7,4.6z M69,3.2h4.5v0.8H69V3.2z M69,1.5h4.5v0.8H69V1.5z
	 M75.6,5.9h-3.4C72,5.6,71.8,5.3,71.6,5H75V0.5h-7.4V5h3.9l-1.3,0.3c0.1,0.2,0.2,0.4,0.3,0.6h-3.7v1.2h8.8V5.9z M68.3,11.2
	c-0.3,0.8-0.9,1.7-1.5,2.3c0.3,0.2,0.8,0.6,1.1,0.8c0.6-0.7,1.3-1.7,1.7-2.7L68.3,11.2z M69.1,8.8h4.2V10h-4.2V8.8z M74.8,11V7.8
	h-7.1V11h2.7v2.4c0,0.1,0,0.2-0.2,0.2c-0.1,0-0.7,0-1.3,0c0.2,0.3,0.4,0.8,0.5,1.2c0.9,0,1.5,0,2-0.2c0.5-0.2,0.6-0.5,0.6-1.2V11
	H74.8z M80,9.2c-1,1.8-3,3.4-5,4.3c-0.3-0.6-0.9-1.6-1.4-2.4l-1.1,0.5c0.5,0.8,1.1,1.8,1.4,2.5l1.1-0.5c0.3,0.3,0.8,0.8,1,1.1
	c2.2-1.1,4.2-2.9,5.4-5L80,9.2z M93.4,8.9v1.4h-7.2V8.9H93.4z M86.2,13v-1.5h7.2V13H86.2z M84.6,14.9h1.5v-0.6h7.2v0.6h1.6V7.7H84.6
	V14.9z M93.1,5.1c0.3-0.6,0.7-1.3,1-2l-1.5-0.3h3.5V1.4h-5.4c-0.2-0.5-0.4-1.1-0.7-1.5l-1.5,0.3c0.2,0.4,0.4,0.8,0.6,1.3h-5.6v1.3h9
	c-0.2,0.7-0.6,1.7-1,2.4h-3.7l0.2,0c-0.1-0.6-0.5-1.6-1-2.3l-1.5,0.3c0.4,0.6,0.7,1.4,0.8,2h-3.8v1.3h14.4V5.1H93.1z"/>
</svg>
